<?xml version="1.0" standalone="no"?>
<!DOCTYPE svg PUBLIC "-//W3C//DTD SVG 1.1//EN" "http://www.w3.org/Graphics/SVG/1.1/DTD/svg11.dtd" >
<svg xmlns="http://www.w3.org/2000/svg" xmlns:xlink="http://www.w3.org/1999/xlink" version="1.1">
<metadata>
Created by FontForge 20190801 at Sun Jul 19 19:57:02 2015
 By www-data
Copyright (c) 2014 by Graviton. All rights reserved.
</metadata>
<defs>
<font id="SVNAgudaRegular" horiz-adv-x="630" >
  <font-face 
    font-family="SVNAgudaRegular"
    font-weight="400"
    font-stretch="normal"
    units-per-em="1000"
    panose-1="0 0 0 0 0 0 0 0 0 0"
    ascent="776"
    descent="-224"
    x-height="560"
    cap-height="720"
    bbox="-60 -240 1195 1068"
    underline-thickness="50"
    underline-position="-100"
    unicode-range="U+0020-FB99"
  />
<missing-glyph horiz-adv-x="800" 
d="M167 593q97 97 233 97t233 -97t97 -233t-97 -233t-233 -97t-233 97t-97 233t97 233zM538 180l42 42l-138 138l138 138l-42 42l-138 -138l-138 138l-42 -42l138 -138l-138 -138l42 -42l138 138z" />
    <glyph glyph-name="graviton" unicode="&#x6b3;" horiz-adv-x="565" arabic-form="medial" 
d="M231 222v113q0 10 10 10h77v-133h-77q-10 0 -10 10zM330 522q-20 -20 -48 -20t-48 20t-20 49t20 49t48 20t48 -20q21 -20 21 -49t-21 -49zM132 402q62 63 150 63t150 -63q63 -62 63 -150t-63 -150q-62 -62 -150 -62t-150 62t-62 150t62 150zM354 158v217q0 3 -3 3h-110
q-19 0 -33 -13.5t-14 -32.5v-107q0 -19 14 -33t33 -14h77v-23q0 -10 -10 -10h-70q-4 0 -4 -3v-27q0 -3 4 -3h70q19 0 32.5 13.5t13.5 32.5z" />
    <glyph glyph-name=".notdef" horiz-adv-x="800" 
d="M167 593q97 97 233 97t233 -97t97 -233t-97 -233t-233 -97t-233 97t-97 233t97 233zM538 180l42 42l-138 138l138 138l-42 42l-138 -138l-138 138l-42 -42l138 -138l-138 -138l42 -42l138 138z" />
    <glyph glyph-name=".null" horiz-adv-x="0" 
 />
    <glyph glyph-name="nonmarkingreturn" horiz-adv-x="333" 
 />
    <glyph glyph-name="space" unicode=" " horiz-adv-x="320" 
 />
    <glyph glyph-name="exclam" unicode="!" horiz-adv-x="220" 
d="M80 160v560h60v-560h-60zM145 4q-14 -14 -35 -14t-36 14q-14 15 -14 36t14 35q15 15 36 15t35 -15q15 -14 15 -35t-15 -36z" />
    <glyph glyph-name="quotedbl" unicode="&#x22;" horiz-adv-x="360" 
d="M140 600h-60v120h60v-120zM220 600v120h60v-120h-60z" />
    <glyph glyph-name="numbersign" unicode="#" horiz-adv-x="640" 
d="M570 540v-36h-100v-288h100v-36h-100v-100h-40v100h-220v-100h-40v100h-100v36h100v288h-100v36h100v100h40v-100h220v100h40v-100h100zM210 216h220v288h-220v-288z" />
    <glyph glyph-name="dollar" unicode="$" horiz-adv-x="620" 
d="M550 480v-20h-60v20q0 57 -22 80.5t-78 23.5h-160q-56 0 -78 -23.5t-22 -80.5q0 -31 17.5 -43t70.5 -25l12 -3l160 -40q13 -4 31.5 -9t24.5 -6q16 -4 42 -15q34 -14 45.5 -34.5t16.5 -64.5q0 -82 -39 -121t-121 -39h-50v-80h-60v80h-50q-82 0 -121 39t-39 121v20h60v-20
q0 -57 22 -80.5t78 -23.5h160q56 0 78 23.5t22 80.5q0 31 -17.5 43t-70.5 25q-6 3 -12 3l-160 40q-15 4 -33.5 8.5t-22.5 5.5q-12 3 -43 16q-33 14 -45 35t-16 64q0 82 39 121t121 39h50v80h60v-80h50q82 0 121 -39t39 -121z" />
    <glyph glyph-name="percent" unicode="%" horiz-adv-x="890" 
d="M375 600v-120q0 -68 -26.5 -94t-93.5 -26h-60q-67 0 -93.5 26t-26.5 94v120q0 68 26.5 94t93.5 26h60q67 0 93.5 -26t26.5 -94zM115 600v-120q0 -49 16 -66.5t64 -17.5h60q48 0 64 17.5t16 66.5v120q0 49 -16 66.5t-64 17.5h-60q-48 0 -64 -17.5t-16 -66.5zM635 360h60
q67 0 93.5 -26t26.5 -94v-120q0 -68 -26.5 -94t-93.5 -26h-60q-67 0 -93.5 26t-26.5 94v120q0 68 26.5 94t93.5 26zM775 120v120q0 49 -16 66.5t-64 17.5h-60q-48 0 -64 -17.5t-16 -66.5v-120q0 -49 16 -66.5t64 -17.5h60q48 0 64 17.5t16 66.5zM243 0l360 720h44l-360 -720
h-44z" />
    <glyph glyph-name="ampersand" unicode="&#x26;" horiz-adv-x="685" 
d="M235 388h420v-56h-80v-172q0 -82 -38.5 -121t-121.5 -39h-180q-83 0 -121.5 39t-38.5 121v70q0 59 24 88.5t48 35.5l8 1v10q-3 0 -8.5 1.5t-19.5 9.5t-24.5 20t-19 37t-8.5 57v70q0 82 38.5 121t121.5 39h140q83 0 121.5 -39t38.5 -121v-60h-60v60q0 57 -22 80.5
t-78 23.5h-140q-56 0 -78 -23.5t-22 -80.5v-70q0 -57 22 -79.5t78 -22.5zM515 160v172h-280q-56 0 -78 -22.5t-22 -79.5v-70q0 -57 22 -80.5t78 -23.5h180q56 0 78 23.5t22 80.5z" />
    <glyph glyph-name="quotesingle" unicode="'" horiz-adv-x="220" 
d="M140 600h-60v120h60v-120z" />
    <glyph glyph-name="parenleft" unicode="(" horiz-adv-x="335" 
d="M235 -184h60v-56h-60q-83 0 -121.5 39t-38.5 121v680q0 82 38.5 121t121.5 39h60v-56h-60q-56 0 -78 -23.5t-22 -80.5v-680q0 -57 22 -80.5t78 -23.5z" />
    <glyph glyph-name="parenright" unicode=")" horiz-adv-x="335" 
d="M40 -240v56h60q56 0 78 23.5t22 80.5v680q0 57 -22 80.5t-78 23.5h-60v56h60q82 0 121 -39t39 -121v-680q0 -82 -39 -121t-121 -39h-60z" />
    <glyph glyph-name="asterisk" unicode="*" horiz-adv-x="520" 
d="M293 558h157v-36h-157l85 -147l-34 -20l-84 145l-84 -145l-34 20l84 147h-156v36h156l-84 147l34 20l84 -145l84 145l34 -20z" />
    <glyph glyph-name="plus" unicode="+" horiz-adv-x="620" 
d="M340 308h210v-56h-210v-212h-60v212h-210v56h210v212h60v-212z" />
    <glyph glyph-name="comma" unicode="," horiz-adv-x="240" 
d="M60 -50l32 130h78l-65 -130h-45z" />
    <glyph glyph-name="hyphen" unicode="-" horiz-adv-x="400" 
d="M70 308h260v-56h-260v56z" />
    <glyph glyph-name="period" unicode="." horiz-adv-x="240" 
d="M84 75q15 15 36 15t35 -15q15 -14 15 -35t-15 -36q-14 -14 -35 -14t-36 14q-14 15 -14 36t14 35z" />
    <glyph glyph-name="slash" unicode="/" horiz-adv-x="403" 
d="M50 0l240 720h63l-240 -720h-63z" />
    <glyph glyph-name="zero" unicode="0" horiz-adv-x="670" 
d="M235 720h200q83 0 121.5 -39t38.5 -121v-400q0 -82 -38.5 -121t-121.5 -39h-200q-83 0 -121.5 39t-38.5 121v400q0 82 38.5 121t121.5 39zM535 160v400q0 57 -22 80.5t-78 23.5h-200q-56 0 -78 -23.5t-22 -80.5v-400q0 -57 22 -80.5t78 -23.5h200q56 0 78 23.5t22 80.5z
" />
    <glyph glyph-name="one" unicode="1" horiz-adv-x="300" 
d="M160 664h-120v56h180v-720h-60v664z" />
    <glyph glyph-name="two" unicode="2" horiz-adv-x="665" 
d="M135 160v-104h460v-56h-520v160q0 53 7.5 83t28.5 50q22 22 47 34q31 14 77 29l200 67q67 23 83 46q17 26 17 91q0 57 -22 80.5t-78 23.5h-200q-56 0 -78 -23.5t-22 -80.5v-60h-60v60q0 82 38.5 121t121.5 39h200q83 0 121.5 -39t38.5 -121q0 -53 -7.5 -83t-28.5 -51
q-24 -22 -47 -33q-31 -14 -77 -29l-200 -67q-67 -23 -83 -47q-17 -25 -17 -90z" />
    <glyph glyph-name="three" unicode="3" horiz-adv-x="665" 
d="M230 720h200q82 0 121 -39t39 -121v-70q0 -59 -24 -88.5t-48 -35.5l-8 -1v-10q3 0 8.5 -1.5t19.5 -9.5t24.5 -20t19 -37t8.5 -57v-70q0 -82 -39 -121t-121 -39h-200q-82 0 -121 39t-39 121v60h60v-60q0 -57 22 -80.5t78 -23.5h200q56 0 78 23.5t22 80.5v70q0 57 -22 79.5
t-78 22.5h-200v56h200q56 0 78 22.5t22 79.5v70q0 57 -22 80.5t-78 23.5h-200q-56 0 -78 -23.5t-22 -80.5v-60h-60v60q0 82 39 121t121 39z" />
    <glyph glyph-name="four" unicode="4" horiz-adv-x="615" 
d="M490 256v304h60v-560h-60v200h-460v83l269 437h71l-280 -454v-10h400z" />
    <glyph glyph-name="five" unicode="5" horiz-adv-x="665" 
d="M135 428h300q83 0 121.5 -39t38.5 -121v-108q0 -82 -38.5 -121t-121.5 -39h-200q-83 0 -121.5 39t-38.5 121v60h60v-60q0 -57 22 -80.5t78 -23.5h200q56 0 78 23.5t22 80.5v108q0 57 -22 80.5t-78 23.5h-360v348h510v-56h-450v-236z" />
    <glyph glyph-name="six" unicode="6" horiz-adv-x="670" 
d="M595 560v-60h-60v60q0 57 -22 80.5t-78 23.5h-200q-56 0 -78 -23.5t-22 -80.5v-172h300q83 0 121.5 -39t38.5 -121v-68q0 -82 -38.5 -121t-121.5 -39h-200q-83 0 -121.5 39t-38.5 121v400q0 82 38.5 121t121.5 39h200q83 0 121.5 -39t38.5 -121zM435 332h-300v-172
q0 -57 22 -80.5t78 -23.5h200q56 0 78 23.5t22 80.5v68q0 57 -22 80.5t-78 23.5z" />
    <glyph glyph-name="seven" unicode="7" horiz-adv-x="610" 
d="M200 0l300 654v10h-460v56h520v-79l-294 -641h-66z" />
    <glyph glyph-name="eight" unicode="8" horiz-adv-x="670" 
d="M235 720h200q83 0 121.5 -39t38.5 -121v-70q0 -59 -24 -88.5t-48 -35.5l-8 -1v-10q3 0 8.5 -1.5t19.5 -9.5t24.5 -20t19 -37t8.5 -57v-70q0 -82 -38.5 -121t-121.5 -39h-200q-83 0 -121.5 39t-38.5 121v70q0 59 24 88.5t48 35.5l8 1v10q-3 0 -8.5 1.5t-19.5 9.5t-24.5 20
t-19 37t-8.5 57v70q0 82 38.5 121t121.5 39zM535 160v70q0 57 -22 79.5t-78 22.5h-200q-56 0 -78 -22.5t-22 -79.5v-70q0 -57 22 -80.5t78 -23.5h200q56 0 78 23.5t22 80.5zM535 490v70q0 57 -22 80.5t-78 23.5h-200q-56 0 -78 -23.5t-22 -80.5v-70q0 -57 22 -79.5t78 -22.5
h200q56 0 78 22.5t22 79.5z" />
    <glyph glyph-name="nine" unicode="9" horiz-adv-x="670" 
d="M75 160v60h60v-60q0 -57 22 -80.5t78 -23.5h200q56 0 78 23.5t22 80.5v172h-300q-83 0 -121.5 39t-38.5 121v68q0 82 38.5 121t121.5 39h200q83 0 121.5 -39t38.5 -121v-400q0 -82 -38.5 -121t-121.5 -39h-200q-83 0 -121.5 39t-38.5 121zM235 388h300v172q0 57 -22 80.5
t-78 23.5h-200q-56 0 -78 -23.5t-22 -80.5v-68q0 -57 22 -80.5t78 -23.5z" />
    <glyph glyph-name="colon" unicode=":" horiz-adv-x="240" 
d="M84 75q15 15 36 15t35 -15q15 -14 15 -35t-15 -36q-14 -14 -35 -14t-36 14q-14 15 -14 36t14 35zM155 484q-14 -14 -35 -14t-36 14q-14 15 -14 36t14 35q15 15 36 15t35 -15q15 -14 15 -35t-15 -36z" />
    <glyph glyph-name="semicolon" unicode=";" horiz-adv-x="240" 
d="M105 -50h-45l32 130h78zM155 484q-14 -14 -35 -14t-36 14q-14 15 -14 36t14 35q15 15 36 15t35 -15q15 -14 15 -35t-15 -36z" />
    <glyph glyph-name="less" unicode="&#x3c;" horiz-adv-x="620" 
d="M550 460l-420 -175v-10l420 -175v-61l-480 200v82l480 200v-61z" />
    <glyph glyph-name="equal" unicode="=" horiz-adv-x="620" 
d="M70 334v56h480v-56h-480zM550 170h-480v56h480v-56z" />
    <glyph glyph-name="greater" unicode="&#x3e;" horiz-adv-x="620" 
d="M490 275v10l-420 175v61l480 -200v-82l-480 -200v61z" />
    <glyph glyph-name="question" unicode="?" horiz-adv-x="660" 
d="M264 75q15 15 36 15t35 -15q15 -14 15 -35t-15 -36q-14 -14 -35 -14t-36 14q-14 15 -14 36t14 35zM200 720h240q82 0 121 -39t39 -121v-120q0 -82 -39 -121t-121 -39h-110v-120h-60v176h170q56 0 78 23.5t22 80.5v120q0 57 -22 80.5t-78 23.5h-240q-56 0 -78 -23.5
t-22 -80.5v-60h-60v60q0 82 39 121t121 39z" />
    <glyph glyph-name="at" unicode="@" horiz-adv-x="800" 
d="M370 540h60q66 0 93 -23t27 -77v-140q0 -68 -26 -94t-94 -26h-60q-66 0 -93 23t-27 77q0 43 20 57q24 15 100 34l140 35v34q0 36 -17 50t-63 14h-60q-48 0 -64 -17.5t-16 -66.5v-10h-40v10q0 68 26 94t94 26zM510 300v69l-140 -35q-56 -13 -69 -22q-11 -8 -11 -32
q0 -36 17 -50t63 -14h60q48 0 64 17.5t16 66.5zM167 593q97 97 233 97t233 -97t97 -233t-97 -233t-233 -97t-233 97t-97 233t97 233zM195 155q85 -85 205 -85t205 85t85 205t-85 205t-205 85t-205 -85t-85 -205t85 -205z" />
    <glyph glyph-name="A" unicode="A" horiz-adv-x="683" 
d="M294 720h96l263 -720h-64l-77 212h-341l-77 -212h-64zM337 664l-145 -396h299l-144 396h-10z" />
    <glyph glyph-name="B" unicode="B" horiz-adv-x="715" 
d="M640 560v-70q0 -59 -24 -88.5t-48 -35.5l-8 -1v-10q3 0 8.5 -1.5t19.5 -9.5t24.5 -20t19 -37t8.5 -57v-70q0 -82 -39 -121t-121 -39h-400v720h400q82 0 121 -39t39 -121zM580 160v70q0 57 -22 79.5t-78 22.5h-340v-276h340q56 0 78 23.5t22 80.5zM140 388h340
q56 0 78 22.5t22 79.5v70q0 57 -22 80.5t-78 23.5h-340v-276z" />
    <glyph glyph-name="C" unicode="C" horiz-adv-x="705" 
d="M575 160v60h60v-60q0 -82 -38.5 -121t-121.5 -39h-240q-83 0 -121.5 39t-38.5 121v400q0 82 38.5 121t121.5 39h240q83 0 121.5 -39t38.5 -121v-60h-60v60q0 57 -22 80.5t-78 23.5h-240q-56 0 -78 -23.5t-22 -80.5v-400q0 -57 22 -80.5t78 -23.5h240q56 0 78 23.5
t22 80.5z" />
    <glyph glyph-name="D" unicode="D" horiz-adv-x="715" 
d="M80 720h400q82 0 121 -39t39 -121v-400q0 -82 -39 -121t-121 -39h-400v720zM580 160v400q0 57 -22 80.5t-78 23.5h-340v-608h340q56 0 78 23.5t22 80.5z" />
    <glyph glyph-name="E" unicode="E" horiz-adv-x="665" 
d="M600 720v-56h-460v-276h450v-56h-450v-276h460v-56h-520v720h520z" />
    <glyph glyph-name="F" unicode="F" horiz-adv-x="655" 
d="M140 332v-332h-60v720h520v-56h-460v-276h450v-56h-450z" />
    <glyph glyph-name="G" unicode="G" horiz-adv-x="710" 
d="M635 560v-60h-60v60q0 57 -22 80.5t-78 23.5h-240q-56 0 -78 -23.5t-22 -80.5v-400q0 -57 22 -80.5t78 -23.5h240q56 0 78 23.5t22 80.5v172h-220v56h280v-228q0 -82 -38.5 -121t-121.5 -39h-240q-83 0 -121.5 39t-38.5 121v400q0 82 38.5 121t121.5 39h240
q83 0 121.5 -39t38.5 -121z" />
    <glyph glyph-name="H" unicode="H" horiz-adv-x="720" 
d="M580 388v332h60v-720h-60v332h-440v-332h-60v720h60v-332h440z" />
    <glyph glyph-name="I" unicode="I" horiz-adv-x="220" 
d="M140 0h-60v720h60v-720z" />
    <glyph glyph-name="J" unicode="J" horiz-adv-x="700" 
d="M560 160v560h60v-560q0 -82 -39 -121t-121 -39h-240q-82 0 -121 39t-39 121v200h60v-200q0 -57 22 -80.5t78 -23.5h240q56 0 78 23.5t22 80.5z" />
    <glyph glyph-name="K" unicode="K" horiz-adv-x="692" 
d="M662 720l-244 -360l244 -360h-72l-225 332h-225v-332h-60v720h60v-332h225l225 332h72z" />
    <glyph glyph-name="L" unicode="L" 
d="M140 56h460v-56h-520v720h60v-664z" />
    <glyph glyph-name="M" unicode="M" horiz-adv-x="820" 
d="M415 256l217 464h108v-720h-60v664h-10l-218 -464h-85l-217 464h-10v-664h-60v720h107l218 -464h10z" />
    <glyph glyph-name="N" unicode="N" horiz-adv-x="720" 
d="M580 56v664h60v-720h-105l-385 664h-10v-664h-60v720h105l385 -664h10z" />
    <glyph glyph-name="O" unicode="O" horiz-adv-x="710" 
d="M235 720h240q83 0 121.5 -39t38.5 -121v-400q0 -82 -38.5 -121t-121.5 -39h-240q-83 0 -121.5 39t-38.5 121v400q0 82 38.5 121t121.5 39zM575 160v400q0 57 -22 80.5t-78 23.5h-240q-56 0 -78 -23.5t-22 -80.5v-400q0 -57 22 -80.5t78 -23.5h240q56 0 78 23.5t22 80.5z
" />
    <glyph glyph-name="P" unicode="P" horiz-adv-x="700" 
d="M80 720h400q82 0 121 -39t39 -121v-120q0 -82 -39 -121t-121 -39h-340v-280h-60v720zM580 440v120q0 57 -22 80.5t-78 23.5h-340v-328h340q56 0 78 23.5t22 80.5z" />
    <glyph glyph-name="Q" unicode="Q" horiz-adv-x="710" 
d="M235 720h240q83 0 121.5 -39t38.5 -121v-400q0 -82 -38.5 -121t-121.5 -39h-90v-160h-60v160h-90q-83 0 -121.5 39t-38.5 121v400q0 82 38.5 121t121.5 39zM575 160v400q0 57 -22 80.5t-78 23.5h-240q-56 0 -78 -23.5t-22 -80.5v-400q0 -57 22 -80.5t78 -23.5h240
q56 0 78 23.5t22 80.5z" />
    <glyph glyph-name="R" unicode="R" horiz-adv-x="710" 
d="M640 560v-120q0 -82 -39 -121t-121 -39h-43l190 -280h-72l-190 280h-225v-280h-60v720h400q82 0 121 -39t39 -121zM140 664v-328h340q56 0 78 23.5t22 80.5v120q0 57 -22 80.5t-78 23.5h-340z" />
    <glyph glyph-name="S" unicode="S" horiz-adv-x="700" 
d="M630 560v-60h-60v60q0 57 -22 80.5t-78 23.5h-240q-56 0 -78 -23.5t-22 -80.5q0 -61 17 -86q16 -22 83 -45l240 -80q76 -26 107 -46q30 -20 40 -49t13 -94q0 -82 -39 -121t-121 -39h-240q-82 0 -121 39t-39 121v60h60v-60q0 -57 22 -80.5t78 -23.5h240q56 0 78 23.5
t22 80.5q0 62 -17 85q-16 22 -83 45l-240 80q-38 12 -77 28q-23 11 -47 33q-21 20 -28.5 49t-7.5 80q0 82 39 121t121 39h240q82 0 121 -39t39 -121z" />
    <glyph glyph-name="T" unicode="T" horiz-adv-x="620" 
d="M30 720h560v-56h-250v-664h-60v664h-250v56z" />
    <glyph glyph-name="U" unicode="U" horiz-adv-x="720" 
d="M580 160v560h60v-560q0 -82 -39 -121t-121 -39h-240q-82 0 -121 39t-39 121v560h60v-560q0 -57 22 -80.5t78 -23.5h240q56 0 78 23.5t22 80.5z" />
    <glyph glyph-name="V" unicode="V" horiz-adv-x="683" 
d="M94 720l243 -664h10l242 664h64l-263 -720h-96l-264 720h64z" />
    <glyph glyph-name="W" unicode="W" horiz-adv-x="1060" 
d="M773 56l184 664h63l-200 -720h-100l-185 664h-10l-185 -664h-99l-201 720h62l186 -664h10l184 664h95l186 -664h10z" />
    <glyph glyph-name="X" unicode="X" horiz-adv-x="665" 
d="M337 388l225 332h73l-244 -360l244 -360h-73l-225 332h-10l-225 -332h-72l244 360l-244 360h72l225 -332h10z" />
    <glyph glyph-name="Y" unicode="Y" horiz-adv-x="663" 
d="M564 720h69l-272 -482v-238h-60v238l-271 482h69l227 -404h10z" />
    <glyph glyph-name="Z" unicode="Z" horiz-adv-x="690" 
d="M625 720v-85l-500 -569v-10h500v-56h-560v85l500 569v10h-500v56h560z" />
    <glyph glyph-name="bracketleft" unicode="[" horiz-adv-x="340" 
d="M300 760v-56h-160v-888h160v-56h-220v1000h220z" />
    <glyph glyph-name="backslash" unicode="\" horiz-adv-x="403" 
d="M50 720h63l240 -720h-63z" />
    <glyph glyph-name="bracketright" unicode="]" horiz-adv-x="340" 
d="M200 704h-160v56h220v-1000h-220v56h160v888z" />
    <glyph glyph-name="asciicircum" unicode="^" horiz-adv-x="609" 
d="M275 720h59l205 -320h-48l-182 284h-10l-182 -284h-47z" />
    <glyph glyph-name="underscore" unicode="_" horiz-adv-x="660" 
d="M70 36h520v-36h-520v36z" />
    <glyph glyph-name="grave" unicode="`" horiz-adv-x="300" 
d="M70 780h67l93 -140h-43z" />
    <glyph glyph-name="a" unicode="a" horiz-adv-x="625" 
d="M230 560h160q82 0 121 -39t39 -121v-240q0 -82 -39 -121t-121 -39h-160q-82 0 -121 39t-39 121q0 46 26 76q12 13 35 23q24 10 43 15q5 2 24 6.5t32 8.5l260 65v46q0 57 -22 80.5t-78 23.5h-160q-56 0 -78 -23.5t-22 -80.5v-20h-60v20q0 82 39 121t121 39zM490 160v136
l-260 -65l-12 -3q-41 -9 -63 -22q-25 -12 -25 -46q0 -57 22 -80.5t78 -23.5h160q56 0 78 23.5t22 80.5z" />
    <glyph glyph-name="b" unicode="b" horiz-adv-x="635" 
d="M80 760h60v-200h260q82 0 121 -39t39 -121v-240q0 -82 -39 -121t-121 -39h-160q-82 0 -121 39t-39 121v600zM240 56h160q56 0 78 23.5t22 80.5v240q0 57 -22 80.5t-78 23.5h-260v-344q0 -57 22 -80.5t78 -23.5z" />
    <glyph glyph-name="c" unicode="c" horiz-adv-x="625" 
d="M495 160v20h60v-20q0 -82 -38.5 -121t-121.5 -39h-160q-83 0 -121.5 39t-38.5 121v240q0 82 38.5 121t121.5 39h160q83 0 121.5 -39t38.5 -121v-20h-60v20q0 57 -22 80.5t-78 23.5h-160q-56 0 -78 -23.5t-22 -80.5v-240q0 -57 22 -80.5t78 -23.5h160q56 0 78 23.5
t22 80.5z" />
    <glyph glyph-name="d" unicode="d" horiz-adv-x="635" 
d="M495 560v200h60v-600q0 -82 -38.5 -121t-121.5 -39h-160q-83 0 -121.5 39t-38.5 121v240q0 82 38.5 121t121.5 39h260zM235 56h160q56 0 78 23.5t22 80.5v344h-260q-56 0 -78 -23.5t-22 -80.5v-240q0 -57 22 -80.5t78 -23.5z" />
    <glyph glyph-name="e" unicode="e" 
d="M235 560h160q83 0 121.5 -39t38.5 -121v-148h-420v-92q0 -57 22 -80.5t78 -23.5h160q56 0 78 23.5t22 80.5v20h60v-20q0 -82 -38.5 -121t-121.5 -39h-160q-83 0 -121.5 39t-38.5 121v240q0 82 38.5 121t121.5 39zM135 308h360v92q0 57 -22 80.5t-78 23.5h-160
q-56 0 -78 -23.5t-22 -80.5v-92z" />
    <glyph glyph-name="f" unicode="f" horiz-adv-x="415" 
d="M360 704h-140q-48 0 -64 -17.5t-16 -66.5v-60h200v-56h-200v-504h-60v620q0 75 32.5 107.5t107.5 32.5h140v-56z" />
    <glyph glyph-name="g" unicode="g" horiz-adv-x="590" 
d="M140 134l260 -65q13 -3 32 -8.5t24 -6.5q16 -4 42 -15q34 -14 45.5 -34.5t16.5 -64.5q0 -82 -39 -121t-121 -39h-160q-82 0 -121 39t-39 121v460q0 82 39 121t121 39h120q82 0 121 -39t39 -121v-40q0 -82 -39 -121t-121 -39h-220v-66zM140 400v-144h220q56 0 78 23.5
t22 80.5v40q0 57 -22 80.5t-78 23.5h-120q-56 0 -78 -23.5t-22 -80.5zM240 -164h160q56 0 78 23.5t22 80.5q0 31 -17.5 43t-70.5 25q-6 3 -12 3l-260 65v-136q0 -57 22 -80.5t78 -23.5z" />
    <glyph glyph-name="h" unicode="h" horiz-adv-x="640" 
d="M140 504v-504h-60v760h60v-200h260q82 0 121 -39t39 -121v-400h-60v400q0 57 -22 80.5t-78 23.5h-260z" />
    <glyph glyph-name="i" unicode="i" horiz-adv-x="220" 
d="M140 0h-60v560h60v-560zM74 715q15 15 36 15t35 -15q15 -14 15 -35t-15 -36q-14 -14 -35 -14t-36 14q-14 15 -14 36t14 35z" />
    <glyph glyph-name="j" unicode="j" horiz-adv-x="220" 
d="M74 715q15 15 36 15t35 -15q15 -14 15 -35t-15 -36q-14 -14 -35 -14t-36 14q-14 15 -14 36t14 35zM80 -60v620h60v-620q0 -75 -32.5 -107.5t-107.5 -32.5h-60v56h60q48 0 64 17.5t16 66.5z" />
    <glyph glyph-name="k" unicode="k" horiz-adv-x="612" 
d="M507 560h75l-203 -280l203 -280h-75l-182 252h-185v-252h-60v760h60v-452h185z" />
    <glyph glyph-name="l" unicode="l" horiz-adv-x="320" 
d="M140 760v-620q0 -49 16 -66.5t64 -17.5h60v-56h-60q-75 0 -107.5 32.5t-32.5 107.5v620h60z" />
    <glyph glyph-name="m" unicode="m" horiz-adv-x="940" 
d="M600 560h100q82 0 121 -39t39 -121v-400h-60v400q0 57 -22 80.5t-78 23.5h-100q-56 0 -78 -23.5t-22 -80.5v-400h-60v400q0 57 -22 80.5t-78 23.5h-100q-56 0 -78 -23.5t-22 -80.5v-400h-60v400q0 82 39 121t121 39h100q59 0 88.5 -24t35.5 -48l1 -8h10q0 3 1.5 8.5
t9.5 19.5t20 24.5t37 19t57 8.5z" />
    <glyph glyph-name="n" unicode="n" horiz-adv-x="640" 
d="M560 0h-60v400q0 57 -22 80.5t-78 23.5h-160q-56 0 -78 -23.5t-22 -80.5v-400h-60v400q0 82 39 121t121 39h160q82 0 121 -39t39 -121v-400z" />
    <glyph glyph-name="o" unicode="o" 
d="M235 560h160q83 0 121.5 -39t38.5 -121v-240q0 -82 -38.5 -121t-121.5 -39h-160q-83 0 -121.5 39t-38.5 121v240q0 82 38.5 121t121.5 39zM495 160v240q0 57 -22 80.5t-78 23.5h-160q-56 0 -78 -23.5t-22 -80.5v-240q0 -57 22 -80.5t78 -23.5h160q56 0 78 23.5t22 80.5z
" />
    <glyph glyph-name="p" unicode="p" horiz-adv-x="635" 
d="M140 0v-200h-60v600q0 82 39 121t121 39h160q82 0 121 -39t39 -121v-240q0 -82 -39 -121t-121 -39h-260zM400 504h-160q-56 0 -78 -23.5t-22 -80.5v-344h260q56 0 78 23.5t22 80.5v240q0 57 -22 80.5t-78 23.5z" />
    <glyph glyph-name="q" unicode="q" horiz-adv-x="635" 
d="M555 -200h-60v200h-260q-83 0 -121.5 39t-38.5 121v240q0 82 38.5 121t121.5 39h160q83 0 121.5 -39t38.5 -121v-600zM395 504h-160q-56 0 -78 -23.5t-22 -80.5v-240q0 -57 22 -80.5t78 -23.5h260v344q0 57 -22 80.5t-78 23.5z" />
    <glyph glyph-name="r" unicode="r" horiz-adv-x="400" 
d="M240 560h120v-56h-120q-56 0 -78 -23.5t-22 -80.5v-400h-60v400q0 82 39 121t121 39z" />
    <glyph glyph-name="s" unicode="s" horiz-adv-x="620" 
d="M550 400v-20h-60v20q0 57 -22 80.5t-78 23.5h-160q-56 0 -78 -23.5t-22 -80.5q0 -31 17.5 -43t70.5 -25l12 -3l160 -40q13 -4 31.5 -8.5t24.5 -6.5q16 -4 42 -15q34 -14 45.5 -34.5t16.5 -64.5q0 -82 -39 -121t-121 -39h-160q-82 0 -121 39t-39 121v20h60v-20
q0 -57 22 -80.5t78 -23.5h160q56 0 78 23.5t22 80.5q0 31 -17.5 43t-70.5 25q-6 3 -12 3l-160 40q-15 4 -33.5 8.5t-22.5 5.5q-12 3 -43 16q-33 14 -45 35t-16 64q0 82 39 121t121 39h160q82 0 121 -39t39 -121z" />
    <glyph glyph-name="t" unicode="t" horiz-adv-x="415" 
d="M220 56h140v-56h-140q-75 0 -107.5 32.5t-32.5 107.5v520h60v-100h200v-56h-200v-364q0 -49 16 -66.5t64 -17.5z" />
    <glyph glyph-name="u" unicode="u" horiz-adv-x="640" 
d="M500 160v400h60v-400q0 -82 -39 -121t-121 -39h-160q-82 0 -121 39t-39 121v400h60v-400q0 -57 22 -80.5t78 -23.5h160q56 0 78 23.5t22 80.5z" />
    <glyph glyph-name="v" unicode="v" horiz-adv-x="604" 
d="M95 560l202 -504h10l203 504h64l-225 -560h-94l-225 560h65z" />
    <glyph glyph-name="w" unicode="w" horiz-adv-x="899" 
d="M652 56l145 504h62l-161 -560h-98l-145 504h-10l-145 -504h-99l-161 560h62l145 -504h10l145 504h95l145 -504h10z" />
    <glyph glyph-name="x" unicode="x" horiz-adv-x="583" 
d="M553 560l-203 -280l203 -280h-74l-182 252h-10l-183 -252h-74l203 280l-203 280h74l183 -252h10l182 252h74z" />
    <glyph glyph-name="y" unicode="y" horiz-adv-x="604" 
d="M307 56l203 504h64l-305 -760h-65l81 200h-30l-225 560h65l202 -504h10z" />
    <glyph glyph-name="z" unicode="z" horiz-adv-x="610" 
d="M545 472l-420 -406v-10h420v-56h-480v87l420 407v10h-420v56h480v-88z" />
    <glyph glyph-name="braceleft" unicode="{" horiz-adv-x="420" 
d="M220 600v-210q0 -59 -24 -88.5t-48 -35.5l-8 -1v-10q3 0 8.5 -1.5t19.5 -9.5t24.5 -20t19 -37t8.5 -57v-210q0 -57 22 -80.5t78 -23.5h60v-56h-60q-82 0 -121 39t-39 121v210q0 57 -22 79.5t-78 22.5h-30v56h30q56 0 78 22.5t22 79.5v210q0 82 39 121t121 39h60v-56h-60
q-56 0 -78 -23.5t-22 -80.5z" />
    <glyph glyph-name="bar" unicode="|" horiz-adv-x="200" 
d="M120 -240h-40v1040h40v-1040z" />
    <glyph glyph-name="braceright" unicode="}" horiz-adv-x="420" 
d="M200 390v210q0 57 -22 80.5t-78 23.5h-60v56h60q82 0 121 -39t39 -121v-210q0 -57 22 -79.5t78 -22.5h30v-56h-30q-56 0 -78 -22.5t-22 -79.5v-210q0 -82 -39 -121t-121 -39h-60v56h60q56 0 78 23.5t22 80.5v210q0 59 24 88.5t48 35.5l8 1v10q-3 0 -8.5 1.5t-19.5 9.5
t-24.5 20t-19 37t-8.5 57z" />
    <glyph glyph-name="asciitilde" unicode="~" horiz-adv-x="620" 
d="M490 392v28h60v-28q0 -75 -32.5 -107.5t-107.5 -32.5h-200q-48 0 -64 -17.5t-16 -66.5v-28h-60v28q0 75 32.5 107.5t107.5 32.5h200q48 0 64 17.5t16 66.5z" />
    <glyph glyph-name="uni00A0" unicode="&#xa0;" horiz-adv-x="320" 
 />
    <glyph glyph-name="exclamdown" unicode="&#xa1;" horiz-adv-x="220" 
d="M140 -160h-60v560h60v-560zM74 555q15 15 36 15t35 -15q15 -14 15 -35t-15 -36q-14 -14 -35 -14t-36 14q-14 15 -14 36t14 35z" />
    <glyph glyph-name="cent" unicode="&#xa2;" horiz-adv-x="625" 
d="M555 480v-20h-60v20q0 57 -22 80.5t-78 23.5h-160q-56 0 -78 -23.5t-22 -80.5v-240q0 -57 22 -80.5t78 -23.5h160q56 0 78 23.5t22 80.5v20h60v-20q0 -82 -38.5 -121t-121.5 -39h-50v-80h-60v80h-50q-83 0 -121.5 39t-38.5 121v240q0 82 38.5 121t121.5 39h50v80h60v-80
h50q83 0 121.5 -39t38.5 -121z" />
    <glyph glyph-name="sterling" unicode="&#xa3;" horiz-adv-x="720" 
d="M650 560v-60h-60v60q0 57 -22 80.5t-78 23.5h-200q-56 0 -78 -23.5t-22 -80.5v-167h200v-56h-200v-281h460v-56h-600v56h80v281h-80v56h80v167q0 82 39 121t121 39h200q82 0 121 -39t39 -121z" />
    <glyph glyph-name="currency" unicode="&#xa4;" horiz-adv-x="600" 
d="M468 234l62 -62l-42 -42l-62 62q-57 -42 -126 -42t-126 42l-62 -62l-42 42l62 62q-42 57 -42 126t42 126l-62 62l42 42l62 -62q57 42 126 42t126 -42l62 62l42 -42l-62 -62q42 -57 42 -126t-42 -126zM194 466q-44 -44 -44 -106t44 -106t106 -44t106 44t44 106t-44 106
t-106 44t-106 -44z" />
    <glyph glyph-name="yen" unicode="&#xa5;" horiz-adv-x="663" 
d="M564 720h69l-228 -404h96v-36h-340v36h96l-227 404h69l227 -404h10zM301 136h-140v36h340v-36h-140v-136h-60v136z" />
    <glyph glyph-name="brokenbar" unicode="&#xa6;" horiz-adv-x="200" 
d="M80 400v320h40v-320h-40zM120 -160h-40v320h40v-320z" />
    <glyph glyph-name="section" unicode="&#xa7;" horiz-adv-x="620" 
d="M550 560v-20h-60v20q0 57 -22 80.5t-78 23.5h-160q-56 0 -78 -23.5t-22 -80.5q0 -31 17.5 -43t70.5 -25l12 -3l160 -40q13 -4 31.5 -8.5t24.5 -6.5q16 -4 42 -15q34 -14 45.5 -34.5t16.5 -64.5v-60h-60v60q0 31 -17.5 43t-70.5 25q-6 3 -12 3l-160 40q-15 4 -33.5 8.5
t-22.5 5.5q-12 3 -43 16q-33 14 -45 35t-16 64q0 82 39 121t121 39h160q82 0 121 -39t39 -121zM230 249l160 -40q13 -3 31.5 -8t24.5 -7q16 -4 42 -15q34 -14 45.5 -34.5t16.5 -64.5q0 -82 -39 -121t-121 -39h-160q-82 0 -121 39t-39 121v20h60v-20q0 -57 22 -80.5t78 -23.5
h160q56 0 78 23.5t22 80.5q0 31 -17.5 43t-70.5 25q-6 3 -12 3l-160 40q-15 4 -33.5 8.5t-22.5 5.5q-12 3 -43 16q-33 14 -45 35t-16 64v60h60v-60q0 -31 17.5 -43t70.5 -25z" />
    <glyph glyph-name="dieresis" unicode="&#xa8;" horiz-adv-x="360" 
d="M82 698q16 18 38.5 10t28 -28t-10.5 -38t-38.5 -10t-28 28t10.5 38zM222 698q16 18 38.5 10t28 -28t-10.5 -38t-38.5 -10t-28 28t10.5 38z" />
    <glyph glyph-name="copyright" unicode="&#xa9;" horiz-adv-x="800" 
d="M370 540h60q68 0 94 -26t26 -94v-10h-40v10q0 49 -16 66.5t-64 17.5h-60q-48 0 -64 -17.5t-16 -66.5v-120q0 -49 16 -66.5t64 -17.5h60q48 0 64 17.5t16 66.5v10h40v-10q0 -68 -26 -94t-94 -26h-60q-68 0 -94 26t-26 94v120q0 68 26 94t94 26zM167 593q97 97 233 97
t233 -97t97 -233t-97 -233t-233 -97t-233 97t-97 233t97 233zM195 155q85 -85 205 -85t205 85t85 205t-85 205t-205 85t-205 -85t-85 -205t85 -205z" />
    <glyph glyph-name="ordfeminine" unicode="&#xaa;" horiz-adv-x="445" 
d="M190 720h60q66 0 93 -23t27 -77v-140q0 -68 -26 -94t-94 -26h-60q-66 0 -93 23t-27 77q0 43 20 57q24 15 100 34l140 35v34q0 36 -17 50t-63 14h-60q-48 0 -64 -17.5t-16 -66.5v-10h-40v10q0 68 26 94t94 26zM330 480v69l-140 -35q-56 -13 -69 -22q-11 -8 -11 -32
q0 -36 17 -50t63 -14h60q48 0 64 17.5t16 66.5z" />
    <glyph glyph-name="guillemotleft" unicode="&#xab;" horiz-adv-x="600" 
d="M70 280l150 200h75l-150 -200l150 -200h-75zM455 480h75l-150 -200l150 -200h-75l-150 200z" />
    <glyph glyph-name="logicalnot" unicode="&#xac;" horiz-adv-x="620" 
d="M70 314v56h480v-180h-60v124h-420z" />
    <glyph glyph-name="uni00AD" unicode="&#xad;" horiz-adv-x="400" 
d="M70 308h260v-56h-260v56z" />
    <glyph glyph-name="registered" unicode="&#xae;" horiz-adv-x="800" 
d="M167 593q97 97 233 97t233 -97t97 -233t-97 -233t-233 -97t-233 97t-97 233t97 233zM195 155q85 -85 205 -85t205 85t85 205t-85 205t-205 85t-205 -85t-85 -205t85 -205zM260 540h180q66 0 93 -23t27 -77v-30q0 -50 -23 -73t-78 -27l95 -130h-50l-94 130h-110v-130h-40
v360zM520 410v30q0 36 -17 50t-63 14h-140v-158h140q46 0 63 14t17 50z" />
    <glyph glyph-name="overscore" unicode="&#xaf;" horiz-adv-x="380" 
d="M310 640h-240v36h240v-36z" />
    <glyph glyph-name="degree" unicode="&#xb0;" horiz-adv-x="520" 
d="M125 674q56 56 135 56q78 0 134 -56t56 -134q0 -79 -56 -135q-55 -55 -134 -55q-80 0 -135 55t-55 135q0 79 55 134zM154 434q44 -44 106 -44t106 44t44 106t-44 106t-106 44t-106 -44t-44 -106t44 -106z" />
    <glyph glyph-name="plusminus" unicode="&#xb1;" horiz-adv-x="620" 
d="M550 40h-480v56h480v-56zM340 520v-162h210v-56h-210v-162h-60v162h-210v56h210v162h60z" />
    <glyph glyph-name="twosuperior" unicode="&#xb2;" horiz-adv-x="445" 
d="M255 529l-60 -15q-56 -13 -69 -22q-11 -8 -11 -32v-64h260v-36h-300v100q0 43 20 57q24 15 100 34l60 15q56 13 69 22q11 8 11 32q0 36 -17 50t-63 14h-60q-48 0 -64 -17.5t-16 -66.5v-10h-40v10q0 68 26.5 94t93.5 26h60q66 0 93 -23t27 -77q0 -44 -21 -57
q-22 -15 -99 -34z" />
    <glyph glyph-name="threesuperior" unicode="&#xb3;" horiz-adv-x="445" 
d="M310 545v-10q2 0 6.5 -0.5t14.5 -4.5t18 -11t14.5 -22.5t6.5 -36.5q0 -54 -27 -77t-93 -23h-60q-68 0 -94 26t-26 94h40q0 -49 16 -66.5t64 -17.5h60q46 0 63 14t17 50t-16.5 49t-63.5 13h-90v36h90q47 0 63.5 13t16.5 49t-17 50t-63 14h-60q-48 0 -64 -17.5t-16 -66.5
h-40q0 68 26 94t94 26h60q66 0 93 -23t27 -77q0 -31 -14 -50.5t-31 -22.5z" />
    <glyph glyph-name="acute" unicode="&#xb4;" horiz-adv-x="300" 
d="M70 640l93 140h67l-117 -140h-43z" />
    <glyph glyph-name="mu" unicode="&#xb5;" horiz-adv-x="640" 
d="M500 160v400h60v-400q0 -82 -39 -121t-121 -39h-260v-160h-60v720h60v-504h260q56 0 78 23.5t22 80.5z" />
    <glyph glyph-name="paragraph" unicode="&#xb6;" horiz-adv-x="540" 
d="M420 -120v840h40v-840h-40zM60 360v200q0 82 39 121t121 39h80v-840h-40v320h-40q-82 0 -121 39t-39 121z" />
    <glyph glyph-name="middot" unicode="&#xb7;" horiz-adv-x="240" 
d="M84 315q15 15 36 15t35 -15q15 -14 15 -35t-15 -36q-14 -14 -35 -14t-36 14q-14 15 -14 36t14 35z" />
    <glyph glyph-name="cedilla" unicode="&#xb8;" horiz-adv-x="380" 
d="M130 -86v86h40v-50h60q45 0 62.5 -17.5t17.5 -62.5v-10q0 -45 -17.5 -62.5t-62.5 -17.5h-160v36h160q26 0 33 8t7 36v10q0 28 -7 36t-33 8h-100z" />
    <glyph glyph-name="onesuperior" unicode="&#xb9;" horiz-adv-x="240" 
d="M40 684v36h120v-360h-40v324h-80z" />
    <glyph glyph-name="ordmasculine" unicode="&#xba;" horiz-adv-x="450" 
d="M195 720h60q67 0 93.5 -26t26.5 -94v-120q0 -68 -26.5 -94t-93.5 -26h-60q-67 0 -93.5 26t-26.5 94v120q0 68 26.5 94t93.5 26zM335 480v120q0 49 -16 66.5t-64 17.5h-60q-48 0 -64 -17.5t-16 -66.5v-120q0 -49 16 -66.5t64 -17.5h60q48 0 64 17.5t16 66.5z" />
    <glyph glyph-name="guillemotright" unicode="&#xbb;" horiz-adv-x="600" 
d="M305 480h75l150 -200l-150 -200h-75l150 200zM220 280l-150 200h75l150 -200l-150 -200h-75z" />
    <glyph glyph-name="onequarter" unicode="&#xbc;" horiz-adv-x="665" 
d="M160 360h-40v324h-80v36h120v-360zM68 0l360 720h44l-360 -720h-44zM560 116v164h40v-280h-40v80h-260v58l151 222h49l-160 -234v-10h220z" />
    <glyph glyph-name="onehalf" unicode="&#xbd;" horiz-adv-x="710" 
d="M160 360h-40v324h-80v36h120v-360zM68 0l360 720h44l-360 -720h-44zM380 100v-64h260v-36h-300v100q0 43 20 57q24 15 100 34l60 15q56 13 69 22q11 9 11 32q0 36 -17 50t-63 14h-60q-48 0 -64 -17.5t-16 -66.5v-10h-40v10q0 68 26 94t94 26h60q66 0 93 -23t27 -77
q0 -44 -21 -57q-22 -15 -99 -34l-60 -15q-56 -13 -69 -22q-11 -8 -11 -32z" />
    <glyph glyph-name="threequarters" unicode="&#xbe;" horiz-adv-x="835" 
d="M370 460q0 -54 -27 -77t-93 -23h-60q-68 0 -94 26t-26 94h40q0 -49 16 -66.5t64 -17.5h60q46 0 63 14t17 50t-16.5 49t-63.5 13h-90v36h90q47 0 63.5 13t16.5 49t-17 50t-63 14h-60q-48 0 -64 -17.5t-16 -66.5h-40q0 68 26 94t94 26h60q66 0 93 -23t27 -77
q0 -31 -14 -50.5t-31 -22.5l-15 -2v-10q2 0 6.5 -0.5t14.5 -4.5t18 -11t14.5 -22.5t6.5 -36.5zM238 0l360 720h44l-360 -720h-44zM730 116v164h40v-280h-40v80h-260v58l151 222h49l-160 -234v-10h220z" />
    <glyph glyph-name="questiondown" unicode="&#xbf;" horiz-adv-x="660" 
d="M395 484q-14 -14 -35 -14t-36 14q-14 15 -14 36t14 35q15 15 36 15t35 -15q15 -14 15 -35t-15 -36zM460 -160h-240q-82 0 -121 39t-39 121v120q0 82 39 121t121 39h110v120h60v-176h-170q-56 0 -78 -23.5t-22 -80.5v-120q0 -57 22 -80.5t78 -23.5h240q56 0 78 23.5
t22 80.5v60h60v-60q0 -82 -39 -121t-121 -39z" />
    <glyph glyph-name="Agrave" unicode="&#xc0;" horiz-adv-x="683" 
d="M295 916l93 -140h-43l-117 140h67zM294 720h96l263 -720h-64l-77 212h-341l-77 -212h-64zM337 664l-145 -396h299l-144 396h-10z" />
    <glyph glyph-name="Aacute" unicode="&#xc1;" horiz-adv-x="683" 
d="M345 776h-44l94 140h66zM30 0l262 720h97l264 -720h-64l-78 212h-340l-77 -212h-64zM191 268h300l-145 396h-10z" />
    <glyph glyph-name="Acircumflex" unicode="&#xc2;" horiz-adv-x="683" 
d="M294 720h96l263 -720h-64l-77 212h-341l-77 -212h-64zM337 664l-145 -396h299l-144 396h-10zM346 879h-10l-82 -104h-51l111 140h55l111 -140h-51z" />
    <glyph glyph-name="Atilde" unicode="&#xc3;" horiz-adv-x="683" 
d="M294 720h96l263 -720h-64l-77 212h-341l-77 -212h-64zM337 664l-145 -396h299l-144 396h-10zM244 815l-7 -18q-7 2 -22.5 9t-17.5 8l8 18q24 55 58 55q19 0 46 -11q7 -3 19.5 -8t18.5 -7q3 -1 38 -14q21 -8 30.5 -3t19.5 29q1 3 3.5 9.5t3.5 8.5q7 -2 22.5 -9t17.5 -8
l-8 -18q-24 -55 -59 -55q-18 0 -45 11q-12 4 -38 14q-14 5 -38 15q-23 9 -32.5 3.5t-17.5 -29.5z" />
    <glyph glyph-name="Adieresis" unicode="&#xc4;" horiz-adv-x="683" 
d="M299 802q-11 -12 -28 -12t-29 12q-11 12 -11 28t11 28q12 12 29 12t28 -12q12 -12 12 -28t-12 -28zM439 802q-11 -12 -28 -12t-29 12q-11 12 -11 28t11 28q12 12 29 12t28 -12q12 -12 12 -28t-12 -28zM294 720h96l263 -720h-64l-77 212h-341l-77 -212h-64zM337 664
l-145 -396h299l-144 396h-10z" />
    <glyph glyph-name="Aring" unicode="&#xc5;" horiz-adv-x="683" 
d="M401 815q-25 -25 -60 -25t-60 25t-25 60t25 60t60 25t60 -25t25 -60t-25 -60zM373 907q-13 13 -32 13t-32 -13t-13 -32t13 -32t32 -13t32 13t13 32t-13 32zM294 720h96l263 -720h-64l-77 212h-341l-77 -212h-64zM337 664l-145 -396h299l-144 396h-10z" />
    <glyph glyph-name="AE" unicode="&#xc6;" horiz-adv-x="1051" 
d="M986 720v-56h-460v-276h450v-56h-450v-276h460v-56h-520v212h-254l-114 -212h-68l388 720h568zM456 664l-213 -396h223v396h-10z" />
    <glyph glyph-name="Ccedilla" unicode="&#xc7;" horiz-adv-x="705" 
d="M635 560v-60h-60v60q0 57 -22 80.5t-78 23.5h-240q-56 0 -78 -23.5t-22 -80.5v-400q0 -57 22 -80.5t78 -23.5h240q56 0 78 23.5t22 80.5v60h60v-60q0 -82 -38.5 -121t-121.5 -39h-140v-50h60q45 0 62.5 -17.5t17.5 -62.5v-10q0 -45 -17.5 -62.5t-62.5 -17.5h-160v36h160
q26 0 33 8t7 36v10q0 28 -7 36t-33 8h-100v86h-60q-83 0 -121.5 39t-38.5 121v400q0 82 38.5 121t121.5 39h240q83 0 121.5 -39t38.5 -121z" />
    <glyph glyph-name="Egrave" unicode="&#xc8;" horiz-adv-x="665" 
d="M314 916l93 -140h-43l-117 140h67zM600 720v-56h-460v-276h450v-56h-450v-276h460v-56h-520v720h520z" />
    <glyph glyph-name="Eacute" unicode="&#xc9;" horiz-adv-x="665" 
d="M600 720v-56h-460v-276h450v-56h-450v-276h460v-56h-520v720h520zM380 916h67l-117 -140h-43z" />
    <glyph glyph-name="Ecircumflex" unicode="&#xca;" horiz-adv-x="665" 
d="M600 720v-56h-460v-276h450v-56h-450v-276h460v-56h-520v720h520zM345 880h-10l-83 -104h-51l111 140h55l112 -140h-52z" />
    <glyph glyph-name="Edieresis" unicode="&#xcb;" horiz-adv-x="665" 
d="M600 720v-56h-460v-276h450v-56h-450v-276h460v-56h-520v720h520zM298 802q-16 -18 -38.5 -10t-28 28t10.5 38t38.5 10t28 -28t-10.5 -38zM438 802q-16 -18 -38.5 -10t-28 28t10.5 38t38.5 10t28 -28t-10.5 -38z" />
    <glyph glyph-name="Igrave" unicode="&#xcc;" horiz-adv-x="220" 
d="M140 720v-720h-60v720h60zM96 776l-117 140h67l93 -140h-43z" />
    <glyph glyph-name="Iacute" unicode="&#xcd;" horiz-adv-x="220" 
d="M140 0h-60v720h60v-720zM173 916h67l-117 -140h-43z" />
    <glyph glyph-name="Icircumflex" unicode="&#xce;" horiz-adv-x="220" 
d="M140 0h-60v720h60v-720zM82 940h55l111 -140h-51l-82 104h-10l-83 -104h-51z" />
    <glyph glyph-name="Idieresis" unicode="&#xcf;" horiz-adv-x="220" 
d="M140 0h-60v720h60v-720zM12 858q16 18 38.5 10t28 -28t-10.5 -38t-38.5 -10t-28 28t10.5 38zM152 858q16 18 38.5 10t28 -28t-10.5 -38t-38.5 -10t-28 28t10.5 38z" />
    <glyph glyph-name="Eth" unicode="&#xd0;" horiz-adv-x="755" 
d="M120 720h400q82 0 121 -39t39 -121v-400q0 -82 -39 -121t-121 -39h-400v332h-80v56h80v332zM620 160v400q0 57 -22 80.5t-78 23.5h-340v-276h220v-56h-220v-276h340q56 0 78 23.5t22 80.5z" />
    <glyph glyph-name="Ntilde" unicode="&#xd1;" horiz-adv-x="720" 
d="M580 56v664h60v-720h-105l-385 664h-10v-664h-60v720h105l385 -664h10zM280 818v-18h-40v18q0 45 17.5 62.5t62.5 17.5h80q26 0 33 8t7 36v18h40v-18q0 -45 -17.5 -62.5t-62.5 -17.5h-80q-26 0 -33 -8t-7 -36z" />
    <glyph glyph-name="Ograve" unicode="&#xd2;" horiz-adv-x="710" 
d="M235 720h240q83 0 121.5 -39t38.5 -121v-400q0 -82 -38.5 -121t-121.5 -39h-240q-83 0 -121.5 39t-38.5 121v400q0 82 38.5 121t121.5 39zM135 560v-400q0 -57 22 -80.5t78 -23.5h240q56 0 78 23.5t22 80.5v400q0 57 -22 80.5t-78 23.5h-240q-56 0 -78 -23.5t-22 -80.5z
M376 776l-117 140h67l93 -140h-43z" />
    <glyph glyph-name="Oacute" unicode="&#xd3;" horiz-adv-x="710" 
d="M235 720h240q83 0 121.5 -39t38.5 -121v-400q0 -82 -38.5 -121t-121.5 -39h-240q-83 0 -121.5 39t-38.5 121v400q0 82 38.5 121t121.5 39zM575 160v400q0 57 -22 80.5t-78 23.5h-240q-56 0 -78 -23.5t-22 -80.5v-400q0 -57 22 -80.5t78 -23.5h240q56 0 78 23.5t22 80.5z
M408 916h67l-117 -140h-43z" />
    <glyph glyph-name="Ocircumflex" unicode="&#xd4;" horiz-adv-x="710" 
d="M235 720h240q83 0 121.5 -39t38.5 -121v-400q0 -82 -38.5 -121t-121.5 -39h-240q-83 0 -121.5 39t-38.5 121v400q0 82 38.5 121t121.5 39zM575 160v400q0 57 -22 80.5t-78 23.5h-240q-56 0 -78 -23.5t-22 -80.5v-400q0 -57 22 -80.5t78 -23.5h240q56 0 78 23.5t22 80.5z
M360 879h-10l-83 -104h-51l111 140h55l112 -140h-52z" />
    <glyph glyph-name="Otilde" unicode="&#xd5;" horiz-adv-x="710" 
d="M235 720h240q83 0 121.5 -39t38.5 -121v-400q0 -82 -38.5 -121t-121.5 -39h-240q-83 0 -121.5 39t-38.5 121v400q0 82 38.5 121t121.5 39zM575 160v400q0 57 -22 80.5t-78 23.5h-240q-56 0 -78 -23.5t-22 -80.5v-400q0 -57 22 -80.5t78 -23.5h240q56 0 78 23.5t22 80.5z
M259 815l-7 -18q-7 2 -22.5 9t-17.5 8l8 18q24 55 58 55q19 0 46 -11q6 -3 18.5 -8t19.5 -7q3 -1 38 -14q21 -8 30.5 -3t19.5 29q1 3 3.5 9.5t3.5 8.5q7 -2 22.5 -9t17.5 -8l-8 -18q-24 -55 -59 -55q-18 0 -45 11q-12 4 -38 14q-14 5 -38 15q-23 9 -32.5 3.5t-17.5 -29.5z
" />
    <glyph glyph-name="Odieresis" unicode="&#xd6;" horiz-adv-x="710" 
d="M313 802q-11 -12 -28 -12t-29 12q-11 12 -11 28t11 28q12 12 29 12t28 -12q12 -12 12 -28t-12 -28zM453 802q-11 -12 -28 -12t-29 12q-11 12 -11 28t11 28q12 12 29 12t28 -12q12 -12 12 -28t-12 -28zM235 720h240q83 0 121.5 -39t38.5 -121v-400q0 -82 -38.5 -121
t-121.5 -39h-240q-83 0 -121.5 39t-38.5 121v400q0 82 38.5 121t121.5 39zM575 160v400q0 57 -22 80.5t-78 23.5h-240q-56 0 -78 -23.5t-22 -80.5v-400q0 -57 22 -80.5t78 -23.5h240q56 0 78 23.5t22 80.5z" />
    <glyph glyph-name="multiply" unicode="&#xd7;" horiz-adv-x="580" 
d="M290 322l178 178l42 -42l-178 -178l178 -178l-42 -42l-178 178l-178 -178l-42 42l178 178l-178 178l42 42z" />
    <glyph glyph-name="Oslash" unicode="&#xd8;" horiz-adv-x="710" 
d="M235 720h240q83 0 121.5 -39t38.5 -121v-400q0 -82 -38.5 -121t-121.5 -39h-240q-83 0 -121.5 39t-38.5 121v400q0 82 38.5 121t121.5 39zM475 664h-240q-56 0 -78 -23.5t-22 -80.5v-290l440 220v70q0 57 -22 80.5t-78 23.5zM235 56h240q56 0 78 23.5t22 80.5v290
l-440 -220v-70q0 -57 22 -80.5t78 -23.5z" />
    <glyph glyph-name="Ugrave" unicode="&#xd9;" horiz-adv-x="720" 
d="M80 720h60v-560q0 -57 22 -80.5t78 -23.5h240q56 0 78 23.5t22 80.5v560h60v-560q0 -82 -39 -121t-121 -39h-240q-82 0 -121 39t-39 121v560zM373 775l-117 140h67l93 -140h-43z" />
    <glyph glyph-name="Uacute" unicode="&#xda;" horiz-adv-x="720" 
d="M580 160v560h60v-560q0 -82 -39 -121t-121 -39h-240q-82 0 -121 39t-39 121v560h60v-560q0 -57 22 -80.5t78 -23.5h240q56 0 78 23.5t22 80.5zM404 915h67l-117 -140h-43z" />
    <glyph glyph-name="Ucircumflex" unicode="&#xdb;" horiz-adv-x="720" 
d="M580 160v560h60v-560q0 -82 -39 -121t-121 -39h-240q-82 0 -121 39t-39 121v560h60v-560q0 -57 22 -80.5t78 -23.5h240q56 0 78 23.5t22 80.5zM365 904h-10l-83 -104h-51l111 140h55l112 -140h-52z" />
    <glyph glyph-name="Udieresis" unicode="&#xdc;" horiz-adv-x="720" 
d="M580 160v560h60v-560q0 -82 -39 -121t-121 -39h-240q-82 0 -121 39t-39 121v560h60v-560q0 -57 22 -80.5t78 -23.5h240q56 0 78 23.5t22 80.5zM318 802q-16 -18 -38.5 -10t-28 28t10.5 38t38.5 10t28 -28t-10.5 -38zM458 802q-16 -18 -38.5 -10t-28 28t10.5 38t38.5 10
t28 -28t-10.5 -38z" />
    <glyph glyph-name="Yacute" unicode="&#xdd;" horiz-adv-x="663" 
d="M336 316l228 404h69l-272 -482v-238h-60v238l-271 482h69l227 -404h10zM369 915h66l-116 -140h-44z" />
    <glyph glyph-name="Thorn" unicode="&#xde;" horiz-adv-x="700" 
d="M140 580h340q82 0 121 -39t39 -121v-120q0 -82 -39 -121t-121 -39h-340v-140h-60v720h60v-140zM580 300v120q0 57 -22 80.5t-78 23.5h-340v-328h340q56 0 78 23.5t22 80.5z" />
    <glyph glyph-name="germandbls" unicode="&#xdf;" horiz-adv-x="635" 
d="M240 720h160q82 0 121 -39t39 -121v-70q0 -59 -24 -88.5t-48 -35.5l-8 -1v-10q3 0 8.5 -1.5t19.5 -9.5t24.5 -20t19 -37t8.5 -57v-70q0 -82 -39 -121t-121 -39h-180v56h180q56 0 78 23.5t22 80.5v70q0 57 -22 79.5t-78 22.5h-70v56h70q56 0 78 22.5t22 79.5v70
q0 57 -22 80.5t-78 23.5h-160q-56 0 -78 -23.5t-22 -80.5v-560h-60v560q0 82 39 121t121 39z" />
    <glyph glyph-name="agrave" unicode="&#xe0;" horiz-adv-x="625" 
d="M230 560h160q82 0 121 -39t39 -121v-240q0 -82 -39 -121t-121 -39h-160q-82 0 -121 39t-39 121q0 46 26 76q12 13 35 23q24 10 43 15q5 2 24 6.5t32 8.5l260 65v46q0 57 -22 80.5t-78 23.5h-160q-56 0 -78 -23.5t-22 -80.5v-20h-60v20q0 82 39 121t121 39zM490 160v136
l-260 -65l-12 -3q-41 -9 -63 -22q-25 -12 -25 -46q0 -57 22 -80.5t78 -23.5h160q56 0 78 23.5t22 80.5zM298 763l93 -140h-43l-117 140h67z" />
    <glyph glyph-name="aacute" unicode="&#xe1;" horiz-adv-x="625" 
d="M230 560h160q82 0 121 -39t39 -121v-240q0 -82 -39 -121t-121 -39h-160q-82 0 -121 39t-39 121q0 46 26 76q12 13 35 23q24 10 43 15q5 2 24 6.5t32 8.5l260 65v46q0 57 -22 80.5t-78 23.5h-160q-56 0 -78 -23.5t-22 -80.5v-20h-60v20q0 82 39 121t121 39zM490 160v136
l-260 -65l-12 -3q-41 -9 -63 -22q-25 -12 -25 -46q0 -57 22 -80.5t78 -23.5h160q56 0 78 23.5t22 80.5zM366 763h67l-117 -140h-43z" />
    <glyph glyph-name="acircumflex" unicode="&#xe2;" horiz-adv-x="625" 
d="M230 560h160q82 0 121 -39t39 -121v-240q0 -82 -39 -121t-121 -39h-160q-82 0 -121 39t-39 121q0 46 26 76q12 13 35 23q24 10 43 15q5 2 24 6.5t32 8.5l260 65v46q0 57 -22 80.5t-78 23.5h-160q-56 0 -78 -23.5t-22 -80.5v-20h-60v20q0 82 39 121t121 39zM490 160v136
l-260 -65l-12 -3q-41 -9 -63 -22q-25 -12 -25 -46q0 -57 22 -80.5t78 -23.5h160q56 0 78 23.5t22 80.5zM331 727h-10l-83 -104h-51l111 140h55l112 -140h-52z" />
    <glyph glyph-name="atilde" unicode="&#xe3;" horiz-adv-x="625" 
d="M230 560h160q82 0 121 -39t39 -121v-240q0 -82 -39 -121t-121 -39h-160q-82 0 -121 39t-39 121q0 46 26 76q12 13 35 23q24 10 43 15q5 2 24 6.5t32 8.5l260 65v46q0 57 -22 80.5t-78 23.5h-160q-56 0 -78 -23.5t-22 -80.5v-20h-60v20q0 82 39 121t121 39zM490 160v136
l-260 -65l-12 -3q-41 -9 -63 -22q-25 -12 -25 -46q0 -57 22 -80.5t78 -23.5h160q56 0 78 23.5t22 80.5zM238 666l-7 -18q-7 2 -22.5 9t-17.5 8l8 18q24 55 58 55q19 0 46 -11q7 -3 19 -8t19 -7q3 -1 38 -14q21 -8 30.5 -3t19.5 29q1 2 3.5 8.5t3.5 9.5q7 -2 22.5 -9t17.5 -8
l-8 -18q-24 -55 -59 -55q-18 0 -45 11q-12 4 -38 14q-14 5 -38 15q-23 9 -32.5 3.5t-17.5 -29.5z" />
    <glyph glyph-name="adieresis" unicode="&#xe4;" horiz-adv-x="625" 
d="M230 560h160q82 0 121 -39t39 -121v-240q0 -82 -39 -121t-121 -39h-160q-82 0 -121 39t-39 121q0 46 26 76q12 13 35 23q24 10 43 15q5 2 24 6.5t32 8.5l260 65v46q0 57 -22 80.5t-78 23.5h-160q-56 0 -78 -23.5t-22 -80.5v-20h-60v20q0 82 39 121t121 39zM490 160v136
l-260 -65l-12 -3q-41 -9 -63 -22q-25 -12 -25 -46q0 -57 22 -80.5t78 -23.5h160q56 0 78 23.5t22 80.5zM268 642q-16 -18 -38.5 -10t-28 28t10.5 38t38.5 10t28 -28t-10.5 -38zM408 642q-16 -18 -38.5 -10t-28 28t10.5 38t38.5 10t28 -28t-10.5 -38z" />
    <glyph glyph-name="aring" unicode="&#xe5;" horiz-adv-x="625" 
d="M230 560h160q82 0 121 -39t39 -121v-240q0 -82 -39 -121t-121 -39h-160q-82 0 -121 39t-39 121q0 46 26 76q12 13 35 23q24 10 43 15q5 2 24 6.5t32 8.5l260 65v46q0 57 -22 80.5t-78 23.5h-160q-56 0 -78 -23.5t-22 -80.5v-20h-60v20q0 82 39 121t121 39zM490 160v136
l-260 -65l-12 -3q-41 -9 -63 -22q-25 -12 -25 -46q0 -57 22 -80.5t78 -23.5h160q56 0 78 23.5t22 80.5zM370 655q-25 -25 -60 -25t-60 25t-25 60t25 60t60 25t60 -25t25 -60t-25 -60zM342 747q-13 13 -32 13t-32 -13t-13 -32t13 -32t32 -13t32 13t13 32t-13 32z" />
    <glyph glyph-name="ae" unicode="&#xe6;" horiz-adv-x="1045" 
d="M970 400v-148h-420v-92q0 -57 22 -80.5t78 -23.5h160q56 0 78 23.5t22 80.5v20h60v-20q0 -82 -39 -121t-121 -39h-160q-59 0 -88.5 24t-35.5 48l-1 8h-10q0 -3 -1.5 -8.5t-9.5 -19.5t-20 -24.5t-37 -19t-57 -8.5h-160q-82 0 -121 39t-39 121q0 46 26 76q12 13 35 23
q24 10 43 15q5 2 24 6.5t32 8.5l260 65v46q0 57 -22 80.5t-78 23.5h-160q-56 0 -78 -23.5t-22 -80.5v-20h-60v20q0 82 39 121t121 39h160q59 0 88.5 -24t35.5 -48l1 -8h10q0 3 1.5 8.5t9.5 19.5t20 24.5t37 19t57 8.5h160q82 0 121 -39t39 -121zM550 400v-92h360v92
q0 57 -22 80.5t-78 23.5h-160q-56 0 -78 -23.5t-22 -80.5zM490 160v136l-260 -65l-12 -3q-41 -9 -63 -22q-25 -12 -25 -46q0 -57 22 -80.5t78 -23.5h160q56 0 78 23.5t22 80.5z" />
    <glyph glyph-name="ccedilla" unicode="&#xe7;" horiz-adv-x="625" 
d="M555 400v-20h-60v20q0 57 -22 80.5t-78 23.5h-160q-56 0 -78 -23.5t-22 -80.5v-240q0 -57 22 -80.5t78 -23.5h160q56 0 78 23.5t22 80.5v20h60v-20q0 -82 -38.5 -121t-121.5 -39h-100v-50h60q45 0 62.5 -17.5t17.5 -62.5v-10q0 -45 -17.5 -62.5t-62.5 -17.5h-160v36h160
q26 0 33 8t7 36v10q0 28 -7 36t-33 8h-100v86h-20q-83 0 -121.5 39t-38.5 121v240q0 82 38.5 121t121.5 39h160q83 0 121.5 -39t38.5 -121z" />
    <glyph glyph-name="egrave" unicode="&#xe8;" 
d="M555 400v-148h-420v-92q0 -57 22 -80.5t78 -23.5h160q56 0 78 23.5t22 80.5v20h60v-20q0 -82 -38.5 -121t-121.5 -39h-160q-83 0 -121.5 39t-38.5 121v240q0 82 38.5 121t121.5 39h160q83 0 121.5 -39t38.5 -121zM135 400v-92h360v92q0 57 -22 80.5t-78 23.5h-160
q-56 0 -78 -23.5t-22 -80.5zM289 763l93 -140h-43l-117 140h67z" />
    <glyph glyph-name="eacute" unicode="&#xe9;" 
d="M555 400v-148h-420v-92q0 -57 22 -80.5t78 -23.5h160q56 0 78 23.5t22 80.5v20h60v-20q0 -82 -38.5 -121t-121.5 -39h-160q-83 0 -121.5 39t-38.5 121v240q0 82 38.5 121t121.5 39h160q83 0 121.5 -39t38.5 -121zM135 400v-92h360v92q0 57 -22 80.5t-78 23.5h-160
q-56 0 -78 -23.5t-22 -80.5zM366 763h67l-117 -140h-43z" />
    <glyph glyph-name="ecircumflex" unicode="&#xea;" 
d="M555 400v-148h-420v-92q0 -57 22 -80.5t78 -23.5h160q56 0 78 23.5t22 80.5v20h60v-20q0 -82 -38.5 -121t-121.5 -39h-160q-83 0 -121.5 39t-38.5 121v240q0 82 38.5 121t121.5 39h160q83 0 121.5 -39t38.5 -121zM135 400v-92h360v92q0 57 -22 80.5t-78 23.5h-160
q-56 0 -78 -23.5t-22 -80.5zM321 727h-10l-83 -104h-51l111 140h55l112 -140h-52z" />
    <glyph glyph-name="edieresis" unicode="&#xeb;" 
d="M555 400v-148h-420v-92q0 -57 22 -80.5t78 -23.5h160q56 0 78 23.5t22 80.5v20h60v-20q0 -82 -38.5 -121t-121.5 -39h-160q-83 0 -121.5 39t-38.5 121v240q0 82 38.5 121t121.5 39h160q83 0 121.5 -39t38.5 -121zM135 400v-92h360v92q0 57 -22 80.5t-78 23.5h-160
q-56 0 -78 -23.5t-22 -80.5zM273 642q-11 -12 -28 -12t-29 12q-11 12 -11 28t11 28q12 12 29 12t28 -12q12 -12 12 -28t-12 -28zM413 642q-11 -12 -28 -12t-29 12q-11 12 -11 28t11 28q12 12 29 12t28 -12q12 -12 12 -28t-12 -28z" />
    <glyph glyph-name="igrave" unicode="&#xec;" horiz-adv-x="220" 
d="M140 560v-560h-60v560h60zM44 763l93 -140h-43l-117 140h67z" />
    <glyph glyph-name="iacute" unicode="&#xed;" horiz-adv-x="220" 
d="M140 0h-60v560h60v-560zM163 780h67l-117 -140h-43z" />
    <glyph glyph-name="icircumflex" unicode="&#xee;" horiz-adv-x="220" 
d="M140 0h-60v560h60v-560zM82 780h55l111 -140h-51l-82 104h-10l-83 -104h-51z" />
    <glyph glyph-name="idieresis" unicode="&#xef;" horiz-adv-x="220" 
d="M140 0h-60v560h60v-560zM12 698q16 18 38.5 10t28 -28t-10.5 -38t-38.5 -10t-28 28t10.5 38zM152 698q16 18 38.5 10t28 -28t-10.5 -38t-38.5 -10t-28 28t10.5 38z" />
    <glyph glyph-name="eth" unicode="&#xf0;" 
d="M315 720h80q83 0 121.5 -39t38.5 -121v-400q0 -82 -38.5 -121t-121.5 -39h-160q-83 0 -121.5 39t-38.5 121v160q0 82 38.5 121t121.5 39h260v80q0 57 -22 80.5t-78 23.5h-80v-80h-40v80h-120v56h120v80h40v-80zM495 160v264h-260q-56 0 -78 -23.5t-22 -80.5v-160
q0 -57 22 -80.5t78 -23.5h160q56 0 78 23.5t22 80.5z" />
    <glyph glyph-name="ntilde" unicode="&#xf1;" horiz-adv-x="640" 
d="M240 560h160q82 0 121 -39t39 -121v-400h-60v400q0 57 -22 80.5t-78 23.5h-160q-56 0 -78 -23.5t-22 -80.5v-400h-60v400q0 82 39 121t121 39zM240 658v-18h-40v18q0 45 17.5 62.5t62.5 17.5h80q26 0 33 8t7 36v18h40v-18q0 -45 -17.5 -62.5t-62.5 -17.5h-80
q-26 0 -33 -8t-7 -36z" />
    <glyph glyph-name="ograve" unicode="&#xf2;" 
d="M235 560h160q83 0 121.5 -39t38.5 -121v-240q0 -82 -38.5 -121t-121.5 -39h-160q-83 0 -121.5 39t-38.5 121v240q0 82 38.5 121t121.5 39zM495 160v240q0 57 -22 80.5t-78 23.5h-160q-56 0 -78 -23.5t-22 -80.5v-240q0 -57 22 -80.5t78 -23.5h160q56 0 78 23.5t22 80.5z
M276 763l93 -140h-43l-117 140h67z" />
    <glyph glyph-name="oacute" unicode="&#xf3;" 
d="M235 560h160q83 0 121.5 -39t38.5 -121v-240q0 -82 -38.5 -121t-121.5 -39h-160q-83 0 -121.5 39t-38.5 121v240q0 82 38.5 121t121.5 39zM135 400v-240q0 -57 22 -80.5t78 -23.5h160q56 0 78 23.5t22 80.5v240q0 57 -22 80.5t-78 23.5h-160q-56 0 -78 -23.5t-22 -80.5z
M366 763h67l-117 -140h-43z" />
    <glyph glyph-name="ocircumflex" unicode="&#xf4;" 
d="M235 560h160q83 0 121.5 -39t38.5 -121v-240q0 -82 -38.5 -121t-121.5 -39h-160q-83 0 -121.5 39t-38.5 121v240q0 82 38.5 121t121.5 39zM495 160v240q0 57 -22 80.5t-78 23.5h-160q-56 0 -78 -23.5t-22 -80.5v-240q0 -57 22 -80.5t78 -23.5h160q56 0 78 23.5t22 80.5z
M320 727h-10l-83 -104h-51l111 140h55l112 -140h-52z" />
    <glyph glyph-name="otilde" unicode="&#xf5;" 
d="M235 560h160q83 0 121.5 -39t38.5 -121v-240q0 -82 -38.5 -121t-121.5 -39h-160q-83 0 -121.5 39t-38.5 121v240q0 82 38.5 121t121.5 39zM495 160v240q0 57 -22 80.5t-78 23.5h-160q-56 0 -78 -23.5t-22 -80.5v-240q0 -57 22 -80.5t78 -23.5h160q56 0 78 23.5t22 80.5z
M223 667l-7 -18q-7 2 -22.5 9t-17.5 8l8 18q24 55 58 55q19 0 46 -11q7 -2 19.5 -7t18.5 -8q3 -1 38 -14q21 -8 30.5 -3t19.5 29q1 2 3.5 8.5t3.5 9.5q7 -2 22.5 -9t17.5 -8l-8 -18q-24 -55 -59 -55q-18 0 -45 11q-12 4 -38 14q-14 5 -38 15q-23 9 -32.5 3.5t-17.5 -29.5z
" />
    <glyph glyph-name="odieresis" unicode="&#xf6;" 
d="M273 642q-11 -12 -28 -12t-29 12q-11 12 -11 28t11 28q12 12 29 12t28 -12q12 -12 12 -28t-12 -28zM413 642q-11 -12 -28 -12t-29 12q-11 12 -11 28t11 28q12 12 29 12t28 -12q12 -12 12 -28t-12 -28zM235 560h160q83 0 121.5 -39t38.5 -121v-240q0 -82 -38.5 -121
t-121.5 -39h-160q-83 0 -121.5 39t-38.5 121v240q0 82 38.5 121t121.5 39zM495 160v240q0 57 -22 80.5t-78 23.5h-160q-56 0 -78 -23.5t-22 -80.5v-240q0 -57 22 -80.5t78 -23.5h160q56 0 78 23.5t22 80.5z" />
    <glyph glyph-name="divide" unicode="&#xf7;" horiz-adv-x="620" 
d="M70 252v56h480v-56h-480zM274 155q15 15 36 15t35 -15q15 -14 15 -35t-15 -36q-14 -14 -35 -14t-36 14q-14 15 -14 36t14 35zM345 404q-14 -14 -35 -14t-36 14q-14 15 -14 36t14 35q15 15 36 15t35 -15q15 -14 15 -35t-15 -36z" />
    <glyph glyph-name="oslash" unicode="&#xf8;" 
d="M235 560h160q83 0 121.5 -39t38.5 -121v-240q0 -82 -38.5 -121t-121.5 -39h-160q-83 0 -121.5 39t-38.5 121v240q0 82 38.5 121t121.5 39zM395 504h-160q-56 0 -78 -23.5t-22 -80.5v-190l360 180v10q0 57 -22 80.5t-78 23.5zM235 56h160q56 0 78 23.5t22 80.5v190
l-360 -180v-10q0 -57 22 -80.5t78 -23.5z" />
    <glyph glyph-name="ugrave" unicode="&#xf9;" horiz-adv-x="640" 
d="M500 160v400h60v-400q0 -82 -39 -121t-121 -39h-160q-82 0 -121 39t-39 121v400h60v-400q0 -57 22 -80.5t78 -23.5h160q56 0 78 23.5t22 80.5zM283 763l93 -140h-43l-117 140h67z" />
    <glyph glyph-name="uacute" unicode="&#xfa;" horiz-adv-x="640" 
d="M80 560h60v-400q0 -57 22 -80.5t78 -23.5h160q56 0 78 23.5t22 80.5v400h60v-400q0 -82 -39 -121t-121 -39h-160q-82 0 -121 39t-39 121v400zM366 763h67l-117 -140h-43z" />
    <glyph glyph-name="ucircumflex" unicode="&#xfb;" horiz-adv-x="640" 
d="M500 160v400h60v-400q0 -82 -39 -121t-121 -39h-160q-82 0 -121 39t-39 121v400h60v-400q0 -57 22 -80.5t78 -23.5h160q56 0 78 23.5t22 80.5zM325 744h-10l-83 -104h-51l111 140h55l112 -140h-52z" />
    <glyph glyph-name="udieresis" unicode="&#xfc;" horiz-adv-x="640" 
d="M500 160v400h60v-400q0 -82 -39 -121t-121 -39h-160q-82 0 -121 39t-39 121v400h60v-400q0 -57 22 -80.5t78 -23.5h160q56 0 78 23.5t22 80.5zM278 642q-16 -18 -38.5 -10t-28 28t10.5 38t38.5 10t28 -28t-10.5 -38zM418 642q-16 -18 -38.5 -10t-28 28t10.5 38t38.5 10
t28 -28t-10.5 -38z" />
    <glyph glyph-name="yacute" unicode="&#xfd;" horiz-adv-x="604" 
d="M307 56l203 504h64l-305 -760h-65l81 200h-30l-225 560h65l202 -504h10zM352 763h67l-117 -140h-43z" />
    <glyph glyph-name="thorn" unicode="&#xfe;" horiz-adv-x="635" 
d="M140 560h260q82 0 121 -39t39 -121v-240q0 -82 -39 -121t-121 -39h-260v-200h-60v960h60v-200zM500 160v240q0 57 -22 80.5t-78 23.5h-260v-448h260q56 0 78 23.5t22 80.5z" />
    <glyph glyph-name="ydieresis" unicode="&#xff;" horiz-adv-x="604" 
d="M260 642q-16 -18 -38.5 -10t-28 28t10.5 38t38.5 10t28 -28t-10.5 -38zM400 642q-16 -18 -38.5 -10t-28 28t10.5 38t38.5 10t28 -28t-10.5 -38zM307 56l203 504h64l-305 -760h-65l81 200h-30l-225 560h65l202 -504h10z" />
    <glyph glyph-name="Abreve" unicode="&#x102;" horiz-adv-x="683" 
d="M437 856v27h40v-27q0 -45 -17.5 -62.5t-62.5 -17.5h-109q-45 0 -62.5 17.5t-17.5 62.5v27h40v-27q0 -28 7 -36t33 -8h109q26 0 33 8t7 36zM294 720h96l263 -720h-64l-77 212h-341l-77 -212h-64zM337 664l-145 -396h299l-144 396h-10z" />
    <glyph glyph-name="abreve" unicode="&#x103;" horiz-adv-x="625" 
d="M230 560h160q82 0 121 -39t39 -121v-240q0 -82 -39 -121t-121 -39h-160q-82 0 -121 39t-39 121q0 46 26 76q12 13 35 23q24 10 43 15q5 2 24 6.5t32 8.5l260 65v46q0 57 -22 80.5t-78 23.5h-160q-56 0 -78 -23.5t-22 -80.5v-20h-60v20q0 82 39 121t121 39zM490 160v136
l-260 -65l-12 -3q-41 -9 -63 -22q-25 -12 -25 -46q0 -57 22 -80.5t78 -23.5h160q56 0 78 23.5t22 80.5zM416 703v27h40v-27q0 -45 -17.5 -62.5t-62.5 -17.5h-109q-45 0 -62.5 17.5t-17.5 62.5v27h40v-27q0 -28 7 -36t33 -8h109q26 0 33 8t7 36z" />
    <glyph glyph-name="Dcroat" unicode="&#x110;" horiz-adv-x="715" 
d="M80 720h400q82 0 121 -39t39 -121v-400q0 -82 -39 -121t-121 -39h-400v333h-62v56h62v331zM580 160v400q0 57 -22 80.5t-78 23.5h-340v-275h168v-56h-168v-277h340q56 0 78 23.5t22 80.5z" />
    <glyph glyph-name="dcroat" unicode="&#x111;" horiz-adv-x="635" 
d="M555 693h51v-56h-51v-477q0 -82 -38.5 -121t-121.5 -39h-160q-83 0 -121.5 39t-38.5 121v240q0 82 38.5 121t121.5 39h260v77h-149v56h149v67h60v-67zM235 56h160q56 0 78 23.5t22 80.5v344h-260q-56 0 -78 -23.5t-22 -80.5v-240q0 -57 22 -80.5t78 -23.5z" />
    <glyph glyph-name="Itilde" unicode="&#x128;" horiz-adv-x="220" 
d="M16 815l-7 -18q-7 2 -22.5 9t-17.5 8l8 18q24 55 58 55q19 0 46 -11q6 -3 19 -8t19 -7q3 -1 38 -14q21 -8 30.5 -3t19.5 29q1 3 3.5 9.5t3.5 8.5q7 -2 22.5 -9t17.5 -8l-8 -18q-24 -55 -59 -55q-18 0 -45 11q-12 4 -38 14q-14 5 -38 15q-23 9 -32.5 3.5t-17.5 -29.5z
M140 0h-60v720h60v-720z" />
    <glyph glyph-name="itilde" unicode="&#x129;" horiz-adv-x="220" 
d="M140 0h-60v560h60v-560zM15 667l-7 -18q-7 2 -22.5 9t-17.5 8l8 18q24 55 58 55q19 0 46 -11q7 -3 19.5 -8t18.5 -7q3 -1 38 -14q21 -8 30.5 -3t19.5 29q1 2 3.5 8.5t3.5 9.5q7 -2 22.5 -9t17.5 -8l-8 -18q-24 -55 -59 -55q-18 0 -45 11q-12 4 -38 14q-14 5 -38 15
q-23 9 -32.5 3.5t-17.5 -29.5z" />
    <glyph glyph-name="dotlessi" unicode="&#x131;" horiz-adv-x="220" 
d="M140 0h-60v560h60v-560z" />
    <glyph glyph-name="Lslash" unicode="&#x141;" horiz-adv-x="700" 
d="M210 315v-259h460v-56h-520v285l-120 -60v40l120 60v395h60v-365l240 120v-40z" />
    <glyph glyph-name="lslash" unicode="&#x142;" horiz-adv-x="410" 
d="M290 56h60v-56h-60q-75 0 -107.5 32.5t-32.5 107.5v205l-120 -60v40l120 60v375h60v-345l120 60v-40l-120 -60v-235q0 -49 16 -66.5t64 -17.5z" />
    <glyph glyph-name="OE" unicode="&#x152;" horiz-adv-x="1160" 
d="M1095 720v-56h-460v-276h450v-56h-450v-276h460v-56h-860q-83 0 -121.5 39t-38.5 121v400q0 82 38.5 121t121.5 39h860zM235 56h340v608h-340q-56 0 -78 -23.5t-22 -80.5v-400q0 -57 22 -80.5t78 -23.5z" />
    <glyph glyph-name="oe" unicode="&#x153;" horiz-adv-x="1050" 
d="M975 400v-148h-420v-92q0 -57 22 -80.5t78 -23.5h160q56 0 78 23.5t22 80.5v20h60v-20q0 -82 -38.5 -121t-121.5 -39h-160q-59 0 -89.5 24.5t-33.5 47.5l-2 8h-10q0 -3 -1.5 -8.5t-9.5 -19.5t-20 -24.5t-37 -19t-57 -8.5h-160q-83 0 -121.5 39t-38.5 121v240
q0 82 38.5 121t121.5 39h160q59 0 89.5 -24.5t33.5 -47.5l2 -8h10q0 3 1.5 8.5t9.5 19.5t20 24.5t37 19t57 8.5h160q83 0 121.5 -39t38.5 -121zM555 400v-92h360v92q0 57 -22 80.5t-78 23.5h-160q-56 0 -78 -23.5t-22 -80.5zM495 160v240q0 57 -22 80.5t-78 23.5h-160
q-56 0 -78 -23.5t-22 -80.5v-240q0 -57 22 -80.5t78 -23.5h160q56 0 78 23.5t22 80.5z" />
    <glyph glyph-name="Scaron" unicode="&#x160;" horiz-adv-x="700" 
d="M630 560v-60h-60v60q0 57 -22 80.5t-78 23.5h-240q-56 0 -78 -23.5t-22 -80.5q0 -61 17 -86q16 -22 83 -45l240 -80q76 -26 107 -46q30 -20 40 -49t13 -94q0 -82 -39 -121t-121 -39h-240q-82 0 -121 39t-39 121v60h60v-60q0 -57 22 -80.5t78 -23.5h240q56 0 78 23.5
t22 80.5q0 62 -17 85q-16 22 -83 45l-240 80q-38 12 -77 28q-23 11 -47 33q-21 20 -28.5 49t-7.5 80q0 82 39 121t121 39h240q82 0 121 -39t39 -121zM489 940l-112 -140h-55l-111 140h51l83 -104h10l82 104h52z" />
    <glyph glyph-name="scaron" unicode="&#x161;" horiz-adv-x="620" 
d="M550 400v-20h-60v20q0 57 -22 80.5t-78 23.5h-160q-56 0 -78 -23.5t-22 -80.5q0 -31 17.5 -43t70.5 -25l12 -3l160 -40q13 -4 31.5 -8.5t24.5 -6.5q16 -4 42 -15q34 -14 45.5 -34.5t16.5 -64.5q0 -82 -39 -121t-121 -39h-160q-82 0 -121 39t-39 121v20h60v-20
q0 -57 22 -80.5t78 -23.5h160q56 0 78 23.5t22 80.5q0 31 -17.5 43t-70.5 25q-6 3 -12 3l-160 40q-15 4 -33.5 8.5t-22.5 5.5q-12 3 -43 16q-33 14 -45 35t-16 64q0 82 39 121t121 39h160q82 0 121 -39t39 -121zM449 780l-112 -140h-55l-111 140h51l83 -104h10l82 104h52z
" />
    <glyph glyph-name="Utilde" unicode="&#x168;" horiz-adv-x="720" 
d="M265 815l-7 -18q-7 2 -22.5 9t-17.5 8l8 18q24 55 58 55q19 0 46 -11q7 -3 19 -8t19 -7q3 -1 38 -14q21 -8 30.5 -3t19.5 29q1 3 3.5 9.5t3.5 8.5q7 -2 22.5 -9t17.5 -8l-8 -18q-24 -55 -59 -55q-18 0 -45 11q-12 4 -38 14q-14 5 -38 15q-23 9 -32.5 3.5t-17.5 -29.5z
M580 160v560h60v-560q0 -82 -39 -121t-121 -39h-240q-82 0 -121 39t-39 121v560h60v-560q0 -57 22 -80.5t78 -23.5h240q56 0 78 23.5t22 80.5z" />
    <glyph glyph-name="utilde" unicode="&#x169;" horiz-adv-x="640" 
d="M222 666l-7 -18q-7 2 -22.5 9t-17.5 8l8 18q24 55 58 55q19 0 46 -11q7 -3 19.5 -8t18.5 -7q3 -1 38 -14q21 -8 30.5 -3t19.5 29q1 2 3.5 8.5t3.5 9.5q7 -2 22.5 -9t17.5 -8l-8 -18q-24 -55 -59 -55q-18 0 -45 11q-12 4 -38 14q-14 5 -38 15q-23 9 -32.5 3.5t-17.5 -29.5
zM500 160v400h60v-400q0 -82 -39 -121t-121 -39h-160q-82 0 -121 39t-39 121v400h60v-400q0 -57 22 -80.5t78 -23.5h160q56 0 78 23.5t22 80.5z" />
    <glyph glyph-name="Ydieresis" unicode="&#x178;" horiz-adv-x="663" 
d="M336 316l228 404h69l-272 -482v-238h-60v238l-271 482h69l227 -404h10zM429 802q-11 -12 -28 -12t-29 12q-11 12 -11 28t11 28q12 12 29 12t28 -12q12 -12 12 -28t-12 -28zM289 802q-11 -12 -28 -12t-29 12q-11 12 -11 28t11 28q12 12 29 12t28 -12q12 -12 12 -28
t-12 -28z" />
    <glyph glyph-name="Zcaron" unicode="&#x17d;" horiz-adv-x="690" 
d="M625 720v-85l-500 -569v-10h500v-56h-560v85l500 569v10h-500v56h560zM484 940l-112 -140h-55l-111 140h51l83 -104h10l82 104h52z" />
    <glyph glyph-name="zcaron" unicode="&#x17e;" horiz-adv-x="610" 
d="M545 472l-420 -406v-10h420v-56h-480v87l420 407v10h-420v56h480v-88zM444 780l-112 -140h-55l-111 140h51l83 -104h10l82 104h52z" />
    <glyph glyph-name="florin" unicode="&#x192;" horiz-adv-x="415" 
d="M360 704h-140q-48 0 -64 -17.5t-16 -66.5v-60h200v-56h-200v-564q0 -75 -32.5 -107.5t-107.5 -32.5h-60v56h60q48 0 64 17.5t16 66.5v680q0 75 32.5 107.5t107.5 32.5h140v-56z" />
    <glyph glyph-name="Ohorn" unicode="&#x1a0;" horiz-adv-x="710" 
d="M235 720h240q18 0 27 -1h77q45 -2 55 16.5t3 67.5v5h60v-5q6 -91 -26 -117q-22 -19 -61 -22q25 -38 25 -104v-400q0 -82 -38.5 -121t-121.5 -39h-240q-83 0 -121.5 39t-38.5 121v400q0 82 38.5 121t121.5 39zM575 160v400q0 57 -22 80.5t-78 23.5h-240q-56 0 -78 -23.5
t-22 -80.5v-400q0 -57 22 -80.5t78 -23.5h240q56 0 78 23.5t22 80.5z" />
    <glyph glyph-name="ohorn" unicode="&#x1a1;" 
d="M235 560h160q18 0 27 -1h79q45 -2 55 16.5t3 67.5v5h60v-5q6 -91 -26 -117q-22 -19 -63 -22q25 -37 25 -104v-240q0 -82 -38.5 -121t-121.5 -39h-160q-83 0 -121.5 39t-38.5 121v240q0 82 38.5 121t121.5 39zM495 160v240q0 58 -22 80q-19 21 -67 24h-171
q-56 0 -78 -23.5t-22 -80.5v-240q0 -57 22 -80.5t78 -23.5h160q56 0 78 23.5t22 80.5z" />
    <glyph glyph-name="Uhorn" unicode="&#x1af;" horiz-adv-x="720" 
d="M580 160v560h40q45 -2 55 16.5t3 67.5v5h60v-5q6 -91 -26 -117q-26 -23 -72 -24v-503q0 -82 -39 -121t-121 -39h-240q-82 0 -121 39t-39 121v560h60v-560q0 -57 22 -80.5t78 -23.5h240q56 0 78 23.5t22 80.5z" />
    <glyph glyph-name="uhorn" unicode="&#x1b0;" horiz-adv-x="640" 
d="M597 643v5h60v-5q6 -91 -26 -117q-25 -22 -71 -24v-342q0 -82 -39 -121t-121 -39h-160q-82 0 -121 39t-39 121v400h60v-400q0 -57 22 -80.5t78 -23.5h160q56 0 78 23.5t22 80.5v400h60v-1q27 3 35 18q9 22 2 66z" />
    <glyph glyph-name="circumflex" unicode="&#x2c6;" horiz-adv-x="417" 
d="M121 640h-51l111 140h55l111 -140h-51l-82 104h-10z" />
    <glyph glyph-name="caron" unicode="&#x2c7;" horiz-adv-x="417" 
d="M181 640l-111 140h51l83 -104h10l82 104h51l-111 -140h-55z" />
    <glyph glyph-name="uni02C9" unicode="&#x2c9;" horiz-adv-x="380" 
d="M310 640h-240v36h240v-36z" />
    <glyph glyph-name="breve" unicode="&#x2d8;" horiz-adv-x="380" 
d="M270 720v60h40v-60q0 -45 -17.5 -62.5t-62.5 -17.5h-80q-45 0 -62.5 17.5t-17.5 62.5v60h40v-60q0 -28 7 -36t33 -8h80q26 0 33 8t7 36z" />
    <glyph glyph-name="dotaccent" unicode="&#x2d9;" horiz-adv-x="240" 
d="M84 715q15 15 36 15t35 -15q15 -14 15 -35t-15 -36q-14 -14 -35 -14t-36 14q-14 15 -14 36t14 35z" />
    <glyph glyph-name="ring" unicode="&#x2da;" horiz-adv-x="310" 
d="M95 775q25 25 60 25t60 -25t25 -60t-25 -60t-60 -25t-60 25t-25 60t25 60zM123 683q13 -13 32 -13t32 13t13 32t-13 32t-32 13t-32 -13t-13 -32t13 -32z" />
    <glyph glyph-name="ogonek" unicode="&#x2db;" horiz-adv-x="340" 
d="M110 0v-100q0 -49 16 -66.5t64 -17.5h80v-36h-80q-68 0 -94 26t-26 94v100h40z" />
    <glyph glyph-name="tilde" unicode="&#x2dc;" horiz-adv-x="380" 
d="M270 782v18h40v-18q0 -45 -17.5 -62.5t-62.5 -17.5h-80q-26 0 -33 -8t-7 -36v-18h-40v18q0 45 17.5 62.5t62.5 17.5h80q26 0 33 8t7 36z" />
    <glyph glyph-name="hungarumlaut" unicode="&#x2dd;" horiz-adv-x="440" 
d="M70 640l93 140h67l-117 -140h-43zM210 640l93 140h67l-117 -140h-43z" />
    <glyph glyph-name="uni03A9" unicode="&#x3a9;" horiz-adv-x="680" 
d="M520 67v-11h120v-56h-180v90q44 4 62 27t18 74v329q0 57 -22 80.5t-78 23.5h-200q-56 0 -78 -23.5t-22 -80.5v-329q0 -52 17.5 -74.5t62.5 -26.5v-90h-180v56h120v11q-3 0 -8.5 1.5t-19.5 9t-24.5 19.5t-19 37t-8.5 57v329q0 82 39 121t121 39h200q82 0 121 -39t39 -121
v-329q0 -59 -24 -88t-48 -35z" />
    <glyph glyph-name="uni03BC" unicode="&#x3bc;" horiz-adv-x="640" 
d="M500 160v400h60v-400q0 -82 -39 -121t-121 -39h-260v-160h-60v720h60v-504h260q56 0 78 23.5t22 80.5z" />
    <glyph glyph-name="pi" unicode="&#x3c0;" horiz-adv-x="640" 
d="M40 560h560v-56h-80v-504h-60v504h-280v-504h-60v504h-80v56z" />
    <glyph glyph-name="uni1EA0" unicode="&#x1ea0;" horiz-adv-x="683" 
d="M317 -78q11 12 27 12t27 -11t11 -27t-11 -27t-27 -11t-27 11t-11 27t11 26zM294 720h96l263 -720h-64l-77 212h-341l-77 -212h-64zM337 664l-145 -396h299l-144 396h-10z" />
    <glyph glyph-name="uni1EA1" unicode="&#x1ea1;" horiz-adv-x="625" 
d="M283 -78q11 12 27 12t27 -11t11 -27t-11 -27t-27 -11t-27 11t-11 27t11 26zM230 560h160q82 0 121 -39t39 -121v-240q0 -82 -39 -121t-121 -39h-160q-82 0 -121 39t-39 121q0 46 26 76q12 13 35 23q24 10 43 15q5 2 24 6.5t32 8.5l260 65v46q0 57 -22 80.5t-78 23.5h-160
q-56 0 -78 -23.5t-22 -80.5v-20h-60v20q0 82 39 121t121 39zM490 160v136l-260 -65l-12 -3q-41 -9 -63 -22q-25 -12 -25 -46q0 -57 22 -80.5t78 -23.5h160q56 0 78 23.5t22 80.5z" />
    <glyph glyph-name="uni1EA2" unicode="&#x1ea2;" horiz-adv-x="683" 
d="M295 959h83q57 0 57 -59v-35q0 -30 -15 -43.5t-59 -13.5v-16q0 -3 -0.5 -8.5t-0.5 -7.5h-37v68h40q23 0 28.5 4t5.5 17v35q0 11 -4 15.5t-15 4.5h-83q-13 0 -17 -4t-4 -16v-28h-38v28q0 59 59 59zM294 720h96l263 -720h-64l-77 212h-341l-77 -212h-64zM337 664l-145 -396
h299l-144 396h-10z" />
    <glyph glyph-name="uni1EA3" unicode="&#x1ea3;" horiz-adv-x="625" 
d="M290 806h83q57 0 57 -59v-35q0 -30 -15 -43.5t-59 -13.5v-16q0 -3 -0.5 -8.5t-0.5 -7.5h-37v68h40q23 0 28.5 4t5.5 17v35q0 11 -4 15.5t-15 4.5h-83q-12 0 -16.5 -4.5t-4.5 -15.5v-28h-38v28q0 59 59 59zM230 560h160q82 0 121 -39t39 -121v-240q0 -82 -39 -121
t-121 -39h-160q-82 0 -121 39t-39 121q0 46 26 76q12 13 35 23q24 10 43 15q5 2 24 6.5t32 8.5l260 65v46q0 57 -22 80.5t-78 23.5h-160q-56 0 -78 -23.5t-22 -80.5v-20h-60v20q0 82 39 121t121 39zM490 160v136l-260 -65l-12 -3q-41 -9 -63 -22q-25 -12 -25 -46
q0 -57 22 -80.5t78 -23.5h160q56 0 78 23.5t22 80.5z" />
    <glyph glyph-name="uni1EA4" unicode="&#x1ea4;" horiz-adv-x="683" 
d="M294 720h96l263 -720h-64l-77 212h-341l-77 -212h-64zM337 664l-145 -396h299l-144 396h-10zM346 879h-10l-82 -104h-51l111 140h55l111 -140h-51zM486 886h-44l94 140h66z" />
    <glyph glyph-name="uni1EA5" unicode="&#x1ea5;" horiz-adv-x="625" 
d="M230 560h160q82 0 121 -39t39 -121v-240q0 -82 -39 -121t-121 -39h-160q-82 0 -121 39t-39 121q0 46 26 76q12 13 35 23q24 10 43 15q5 2 24 6.5t32 8.5l260 65v46q0 57 -22 80.5t-78 23.5h-160q-56 0 -78 -23.5t-22 -80.5v-20h-60v20q0 82 39 121t121 39zM490 160v136
l-260 -65l-12 -3q-41 -9 -63 -22q-25 -12 -25 -46q0 -57 22 -80.5t78 -23.5h160q56 0 78 23.5t22 80.5zM331 727h-10l-83 -104h-51l111 140h55l112 -140h-52zM471 734h-44l94 140h66z" />
    <glyph glyph-name="uni1EA6" unicode="&#x1ea6;" horiz-adv-x="683" 
d="M294 720h96l263 -720h-64l-77 212h-341l-77 -212h-64zM337 664l-145 -396h299l-144 396h-10zM346 879h-10l-82 -104h-51l111 140h55l111 -140h-51zM425 1026l93 -140h-43l-117 140h67z" />
    <glyph glyph-name="uni1EA7" unicode="&#x1ea7;" horiz-adv-x="625" 
d="M230 560h160q82 0 121 -39t39 -121v-240q0 -82 -39 -121t-121 -39h-160q-82 0 -121 39t-39 121q0 46 26 76q12 13 35 23q24 10 43 15q5 2 24 6.5t32 8.5l260 65v46q0 57 -22 80.5t-78 23.5h-160q-56 0 -78 -23.5t-22 -80.5v-20h-60v20q0 82 39 121t121 39zM490 160v136
l-260 -65l-12 -3q-41 -9 -63 -22q-25 -12 -25 -46q0 -57 22 -80.5t78 -23.5h160q56 0 78 23.5t22 80.5zM331 727h-10l-83 -104h-51l111 140h55l112 -140h-52zM410 874l93 -140h-43l-117 140h67z" />
    <glyph glyph-name="uni1EA8" unicode="&#x1ea8;" horiz-adv-x="683" 
d="M294 720h96l263 -720h-64l-77 212h-341l-77 -212h-64zM337 664l-145 -396h299l-144 396h-10zM346 879h-10l-82 -104h-51l111 140h55l111 -140h-51zM420 1067h83q57 0 57 -59v-35q0 -30 -15 -43.5t-59 -13.5v-16q0 -3 -0.5 -8.5t-0.5 -7.5h-37v68h40q23 0 28.5 4t5.5 17
v35q0 11 -4 15.5t-15 4.5h-83q-12 0 -16.5 -4t-4.5 -16v-28h-38v28q0 59 59 59z" />
    <glyph glyph-name="uni1EA9" unicode="&#x1ea9;" horiz-adv-x="625" 
d="M405 915h83q57 0 57 -59v-35q0 -30 -15 -43.5t-59 -13.5v-16q0 -3 -0.5 -8.5t-0.5 -7.5h-37v68h40q23 0 28.5 4t5.5 17v35q0 11 -4 15.5t-15 4.5h-83q-13 0 -17 -4t-4 -16v-28h-38v28q0 59 59 59zM230 560h160q82 0 121 -39t39 -121v-240q0 -82 -39 -121t-121 -39h-160
q-82 0 -121 39t-39 121q0 46 26 76q12 13 35 23q24 10 43 15q5 2 24 6.5t32 8.5l260 65v46q0 57 -22 80.5t-78 23.5h-160q-56 0 -78 -23.5t-22 -80.5v-20h-60v20q0 82 39 121t121 39zM490 160v136l-260 -65l-12 -3q-41 -9 -63 -22q-25 -12 -25 -46q0 -57 22 -80.5t78 -23.5
h160q56 0 78 23.5t22 80.5zM331 727h-10l-83 -104h-51l111 140h55l112 -140h-52z" />
    <glyph glyph-name="uni1EAA" unicode="&#x1eaa;" horiz-adv-x="683" 
d="M294 720h96l263 -720h-64l-77 212h-341l-77 -212h-64zM337 664l-145 -396h299l-144 396h-10zM346 879h-10l-82 -104h-51l111 140h55l111 -140h-51zM247 961l-7 -18q-7 2 -22.5 9t-17.5 8l8 18q24 55 58 55q19 0 46 -11q7 -2 19.5 -7t18.5 -8q3 -1 38 -14q21 -8 30.5 -3
t19.5 29q1 2 3.5 8.5t3.5 9.5q7 -2 22.5 -9t17.5 -8l-8 -18q-24 -55 -59 -55q-18 0 -45 11q-12 4 -38 14q-14 5 -38 15q-23 9 -32.5 3.5t-17.5 -29.5z" />
    <glyph glyph-name="uni1EAB" unicode="&#x1eab;" horiz-adv-x="625" 
d="M230 560h160q82 0 121 -39t39 -121v-240q0 -82 -39 -121t-121 -39h-160q-82 0 -121 39t-39 121q0 46 26 76q12 13 35 23q24 10 43 15q5 2 24 6.5t32 8.5l260 65v46q0 57 -22 80.5t-78 23.5h-160q-56 0 -78 -23.5t-22 -80.5v-20h-60v20q0 82 39 121t121 39zM490 160v136
l-260 -65l-12 -3q-41 -9 -63 -22q-25 -12 -25 -46q0 -57 22 -80.5t78 -23.5h160q56 0 78 23.5t22 80.5zM331 727h-10l-83 -104h-51l111 140h55l112 -140h-52zM232 809l-7 -18q-7 2 -22.5 9t-17.5 8l8 18q24 55 58 55q19 0 46 -11q6 -3 19 -8t19 -7q3 -1 38 -14
q21 -8 30.5 -3t19.5 29q1 2 3.5 8.5t3.5 9.5q7 -2 22.5 -9t17.5 -8l-8 -18q-24 -55 -59 -55q-18 0 -45 11q-12 4 -38 14q-14 5 -38 15q-23 9 -32.5 3.5t-17.5 -29.5z" />
    <glyph glyph-name="uni1EAC" unicode="&#x1eac;" horiz-adv-x="683" 
d="M294 720h96l263 -720h-64l-77 212h-341l-77 -212h-64zM337 664l-145 -396h299l-144 396h-10zM346 879h-10l-82 -104h-51l111 140h55l111 -140h-51zM317 -78q11 12 27 12t27 -11t11 -27t-11 -27t-27 -11t-27 11t-11 27t11 26z" />
    <glyph glyph-name="uni1EAD" unicode="&#x1ead;" horiz-adv-x="625" 
d="M230 560h160q82 0 121 -39t39 -121v-240q0 -82 -39 -121t-121 -39h-160q-82 0 -121 39t-39 121q0 46 26 76q12 13 35 23q24 10 43 15q5 2 24 6.5t32 8.5l260 65v46q0 57 -22 80.5t-78 23.5h-160q-56 0 -78 -23.5t-22 -80.5v-20h-60v20q0 82 39 121t121 39zM490 160v136
l-260 -65l-12 -3q-41 -9 -63 -22q-25 -12 -25 -46q0 -57 22 -80.5t78 -23.5h160q56 0 78 23.5t22 80.5zM331 727h-10l-83 -104h-51l111 140h55l112 -140h-52zM283 -78q11 12 27 12t27 -11t11 -27t-11 -27t-27 -11t-27 11t-11 27t11 26z" />
    <glyph glyph-name="uni1EAE" unicode="&#x1eae;" horiz-adv-x="683" 
d="M437 856v27h40v-27q0 -45 -17.5 -62.5t-62.5 -17.5h-109q-45 0 -62.5 17.5t-17.5 62.5v27h40v-27q0 -28 7 -36t33 -8h109q26 0 33 8t7 36zM344 883h-44l94 140h66zM294 720h96l263 -720h-64l-77 212h-341l-77 -212h-64zM337 664l-145 -396h299l-144 396h-10z" />
    <glyph glyph-name="uni1EAF" unicode="&#x1eaf;" horiz-adv-x="625" 
d="M230 560h160q82 0 121 -39t39 -121v-240q0 -82 -39 -121t-121 -39h-160q-82 0 -121 39t-39 121q0 46 26 76q12 13 35 23q24 10 43 15q5 2 24 6.5t32 8.5l260 65v46q0 57 -22 80.5t-78 23.5h-160q-56 0 -78 -23.5t-22 -80.5v-20h-60v20q0 82 39 121t121 39zM490 160v136
l-260 -65l-12 -3q-41 -9 -63 -22q-25 -12 -25 -46q0 -57 22 -80.5t78 -23.5h160q56 0 78 23.5t22 80.5zM416 703v27h40v-27q0 -45 -17.5 -62.5t-62.5 -17.5h-109q-45 0 -62.5 17.5t-17.5 62.5v27h40v-27q0 -28 7 -36t33 -8h109q26 0 33 8t7 36zM323 730h-44l94 140h66z" />
    <glyph glyph-name="uni1EB0" unicode="&#x1eb0;" horiz-adv-x="683" 
d="M437 856v27h40v-27q0 -45 -17.5 -62.5t-62.5 -17.5h-109q-45 0 -62.5 17.5t-17.5 62.5v27h40v-27q0 -28 7 -36t33 -8h109q26 0 33 8t7 36zM296 1022l93 -140h-43l-117 140h67zM294 720h96l263 -720h-64l-77 212h-341l-77 -212h-64zM337 664l-145 -396h299l-144 396h-10z
" />
    <glyph glyph-name="uni1EB1" unicode="&#x1eb1;" horiz-adv-x="625" 
d="M230 560h160q82 0 121 -39t39 -121v-240q0 -82 -39 -121t-121 -39h-160q-82 0 -121 39t-39 121q0 46 26 76q12 13 35 23q24 10 43 15q5 2 24 6.5t32 8.5l260 65v46q0 57 -22 80.5t-78 23.5h-160q-56 0 -78 -23.5t-22 -80.5v-20h-60v20q0 82 39 121t121 39zM490 160v136
l-260 -65l-12 -3q-41 -9 -63 -22q-25 -12 -25 -46q0 -57 22 -80.5t78 -23.5h160q56 0 78 23.5t22 80.5zM416 703v27h40v-27q0 -45 -17.5 -62.5t-62.5 -17.5h-109q-45 0 -62.5 17.5t-17.5 62.5v27h40v-27q0 -28 7 -36t33 -8h109q26 0 33 8t7 36zM275 869l93 -140h-43
l-117 140h67z" />
    <glyph glyph-name="uni1EB2" unicode="&#x1eb2;" horiz-adv-x="683" 
d="M437 856v27h40v-27q0 -45 -17.5 -62.5t-62.5 -17.5h-109q-45 0 -62.5 17.5t-17.5 62.5v27h40v-27q0 -28 7 -36t33 -8h109q26 0 33 8t7 36zM298 1065h83q57 0 57 -59v-35q0 -30 -15 -43.5t-59 -13.5v-16q0 -3 -0.5 -8.5t-0.5 -7.5h-37v68h40q23 0 28.5 4t5.5 17v35
q0 11 -4 15.5t-15 4.5h-83q-12 0 -16.5 -4t-4.5 -16v-28h-38v28q0 59 59 59zM294 720h96l263 -720h-64l-77 212h-341l-77 -212h-64zM337 664l-145 -396h299l-144 396h-10z" />
    <glyph glyph-name="uni1EB3" unicode="&#x1eb3;" horiz-adv-x="625" 
d="M230 560h160q82 0 121 -39t39 -121v-240q0 -82 -39 -121t-121 -39h-160q-82 0 -121 39t-39 121q0 46 26 76q12 13 35 23q24 10 43 15q5 2 24 6.5t32 8.5l260 65v46q0 57 -22 80.5t-78 23.5h-160q-56 0 -78 -23.5t-22 -80.5v-20h-60v20q0 82 39 121t121 39zM490 160v136
l-260 -65l-12 -3q-41 -9 -63 -22q-25 -12 -25 -46q0 -57 22 -80.5t78 -23.5h160q56 0 78 23.5t22 80.5zM416 703v27h40v-27q0 -45 -17.5 -62.5t-62.5 -17.5h-109q-45 0 -62.5 17.5t-17.5 62.5v27h40v-27q0 -28 7 -36t33 -8h109q26 0 33 8t7 36zM277 912h83q57 0 57 -59v-35
q0 -30 -15 -43.5t-59 -13.5v-16q0 -3 -0.5 -8.5t-0.5 -7.5h-37v68h40q23 0 28.5 4t5.5 17v35q0 11 -4 15.5t-15 4.5h-83q-13 0 -17 -4.5t-4 -15.5v-28h-38v28q0 59 59 59z" />
    <glyph glyph-name="uni1EB4" unicode="&#x1eb4;" horiz-adv-x="683" 
d="M437 856v27h40v-27q0 -45 -17.5 -62.5t-62.5 -17.5h-109q-45 0 -62.5 17.5t-17.5 62.5v27h40v-27q0 -28 7 -36t33 -8h109q26 0 33 8t7 36zM244 937l-7 -18q-7 2 -22.5 9t-17.5 8l8 18q24 55 58 55q19 0 46 -11q7 -2 19 -7t19 -8q3 -1 38 -14q21 -8 30.5 -3t19.5 29
q1 2 3.5 9t3.5 9q7 -2 22.5 -9t17.5 -8l-8 -18q-24 -55 -59 -55q-18 0 -45 11q-12 4 -38 14q-14 5 -38 15q-23 9 -32.5 3.5t-17.5 -29.5zM294 720h96l263 -720h-64l-77 212h-341l-77 -212h-64zM337 664l-145 -396h299l-144 396h-10z" />
    <glyph glyph-name="uni1EB5" unicode="&#x1eb5;" horiz-adv-x="625" 
d="M230 560h160q82 0 121 -39t39 -121v-240q0 -82 -39 -121t-121 -39h-160q-82 0 -121 39t-39 121q0 46 26 76q12 13 35 23q24 10 43 15q5 2 24 6.5t32 8.5l260 65v46q0 57 -22 80.5t-78 23.5h-160q-56 0 -78 -23.5t-22 -80.5v-20h-60v20q0 82 39 121t121 39zM490 160v136
l-260 -65l-12 -3q-41 -9 -63 -22q-25 -12 -25 -46q0 -57 22 -80.5t78 -23.5h160q56 0 78 23.5t22 80.5zM416 703v27h40v-27q0 -45 -17.5 -62.5t-62.5 -17.5h-109q-45 0 -62.5 17.5t-17.5 62.5v27h40v-27q0 -28 7 -36t33 -8h109q26 0 33 8t7 36zM223 784l-7 -18q-7 2 -22.5 9
t-17.5 8l8 18q24 55 58 55q19 0 46 -11q7 -3 19.5 -8t18.5 -7q3 -1 38 -14q21 -8 30.5 -3t19.5 29q1 2 3.5 8.5t3.5 9.5q7 -2 22.5 -9t17.5 -8l-8 -18q-24 -55 -59 -55q-18 0 -45 11q-12 4 -38 14q-14 5 -38 15q-23 9 -32.5 3.5t-17.5 -29.5z" />
    <glyph glyph-name="uni1EB6" unicode="&#x1eb6;" horiz-adv-x="683" 
d="M437 856v27h40v-27q0 -45 -17.5 -62.5t-62.5 -17.5h-109q-45 0 -62.5 17.5t-17.5 62.5v27h40v-27q0 -28 7 -36t33 -8h109q26 0 33 8t7 36zM317 -78q11 12 27 12t27 -11t11 -27t-11 -27t-27 -11t-27 11t-11 27t11 26zM294 720h96l263 -720h-64l-77 212h-341l-77 -212h-64z
M337 664l-145 -396h299l-144 396h-10z" />
    <glyph glyph-name="uni1EB7" unicode="&#x1eb7;" horiz-adv-x="625" 
d="M230 560h160q82 0 121 -39t39 -121v-240q0 -82 -39 -121t-121 -39h-160q-82 0 -121 39t-39 121q0 46 26 76q12 13 35 23q24 10 43 15q5 2 24 6.5t32 8.5l260 65v46q0 57 -22 80.5t-78 23.5h-160q-56 0 -78 -23.5t-22 -80.5v-20h-60v20q0 82 39 121t121 39zM490 160v136
l-260 -65l-12 -3q-41 -9 -63 -22q-25 -12 -25 -46q0 -57 22 -80.5t78 -23.5h160q56 0 78 23.5t22 80.5zM416 703v27h40v-27q0 -45 -17.5 -62.5t-62.5 -17.5h-109q-45 0 -62.5 17.5t-17.5 62.5v27h40v-27q0 -28 7 -36t33 -8h109q26 0 33 8t7 36zM283 -78q11 12 27 12t27 -11
t11 -27t-11 -27t-27 -11t-27 11t-11 27t11 26z" />
    <glyph glyph-name="uni1EB8" unicode="&#x1eb8;" horiz-adv-x="665" 
d="M317 -78q11 12 27 12t27 -11t11 -27t-11 -27t-27 -11t-27 11t-11 27t11 26zM600 720v-56h-460v-276h450v-56h-450v-276h460v-56h-520v720h520z" />
    <glyph glyph-name="uni1EB9" unicode="&#x1eb9;" 
d="M283 -78q11 12 27 12t27 -11t11 -27t-11 -27t-27 -11t-27 11t-11 27t11 26zM235 560h160q83 0 121.5 -39t38.5 -121v-148h-420v-92q0 -57 22 -80.5t78 -23.5h160q56 0 78 23.5t22 80.5v20h60v-20q0 -82 -38.5 -121t-121.5 -39h-160q-83 0 -121.5 39t-38.5 121v240
q0 82 38.5 121t121.5 39zM135 308h360v92q0 57 -22 80.5t-78 23.5h-160q-56 0 -78 -23.5t-22 -80.5v-92z" />
    <glyph glyph-name="uni1EBA" unicode="&#x1eba;" horiz-adv-x="665" 
d="M298 959h83q57 0 57 -59v-35q0 -30 -15 -43.5t-59 -13.5v-16q0 -3 -0.5 -8.5t-0.5 -7.5h-37v68h40q23 0 28.5 4t5.5 17v35q0 11 -4 15.5t-15 4.5h-83q-12 0 -16.5 -4t-4.5 -16v-28h-38v28q0 59 59 59zM600 720v-56h-460v-276h450v-56h-450v-276h460v-56h-520v720h520z
" />
    <glyph glyph-name="uni1EBB" unicode="&#x1ebb;" 
d="M284 806h83q57 0 57 -59v-35q0 -30 -15 -43.5t-59 -13.5v-16q0 -3 -0.5 -8.5t-0.5 -7.5h-37v68h40q23 0 28.5 4t5.5 17v35q0 11 -4 15.5t-15 4.5h-83q-12 0 -16.5 -4.5t-4.5 -15.5v-28h-38v28q0 59 59 59zM235 560h160q83 0 121.5 -39t38.5 -121v-148h-420v-92
q0 -57 22 -80.5t78 -23.5h160q56 0 78 23.5t22 80.5v20h60v-20q0 -82 -38.5 -121t-121.5 -39h-160q-83 0 -121.5 39t-38.5 121v240q0 82 38.5 121t121.5 39zM135 308h360v92q0 57 -22 80.5t-78 23.5h-160q-56 0 -78 -23.5t-22 -80.5v-92z" />
    <glyph glyph-name="uni1EBC" unicode="&#x1ebc;" horiz-adv-x="665" 
d="M251 815l-7 -18q-7 2 -22.5 9t-17.5 8l8 18q24 55 58 55q19 0 46 -11q6 -3 18.5 -8t19.5 -7q3 -1 38 -14q21 -8 30.5 -3t19.5 29q1 3 3.5 9.5t3.5 8.5q7 -2 22.5 -9t17.5 -8l-8 -18q-24 -55 -59 -55q-18 0 -45 11q-12 4 -38 14q-14 5 -38 15q-23 9 -32.5 3.5t-17.5 -29.5
zM600 720v-56h-460v-276h450v-56h-450v-276h460v-56h-520v720h520z" />
    <glyph glyph-name="uni1EBD" unicode="&#x1ebd;" 
d="M223 666l-7 -18q-7 2 -22.5 9t-17.5 8l8 18q24 55 58 55q19 0 46 -11q7 -3 19.5 -8t18.5 -7q3 -1 38 -14q21 -8 30.5 -3t19.5 29q1 2 3.5 8.5t3.5 9.5q7 -2 22.5 -9t17.5 -8l-8 -18q-24 -55 -59 -55q-18 0 -45 11q-12 4 -38 14q-14 5 -38 15q-23 9 -32.5 3.5t-17.5 -29.5
zM235 560h160q83 0 121.5 -39t38.5 -121v-148h-420v-92q0 -57 22 -80.5t78 -23.5h160q56 0 78 23.5t22 80.5v20h60v-20q0 -82 -38.5 -121t-121.5 -39h-160q-83 0 -121.5 39t-38.5 121v240q0 82 38.5 121t121.5 39zM135 308h360v92q0 57 -22 80.5t-78 23.5h-160
q-56 0 -78 -23.5t-22 -80.5v-92z" />
    <glyph glyph-name="uni1EBE" unicode="&#x1ebe;" horiz-adv-x="665" 
d="M600 720v-56h-460v-276h450v-56h-450v-276h460v-56h-520v720h520zM345 880h-10l-83 -104h-51l111 140h55l112 -140h-52zM484 887h-44l94 140h66z" />
    <glyph glyph-name="uni1EBF" unicode="&#x1ebf;" 
d="M555 400v-148h-420v-92q0 -57 22 -80.5t78 -23.5h160q56 0 78 23.5t22 80.5v20h60v-20q0 -82 -38.5 -121t-121.5 -39h-160q-83 0 -121.5 39t-38.5 121v240q0 82 38.5 121t121.5 39h160q83 0 121.5 -39t38.5 -121zM135 400v-92h360v92q0 57 -22 80.5t-78 23.5h-160
q-56 0 -78 -23.5t-22 -80.5zM321 727h-10l-83 -104h-51l111 140h55l112 -140h-52zM461 734h-44l94 140h66z" />
    <glyph glyph-name="uni1EC0" unicode="&#x1ec0;" horiz-adv-x="665" 
d="M600 720v-56h-460v-276h450v-56h-450v-276h460v-56h-520v720h520zM345 880h-10l-83 -104h-51l111 140h55l112 -140h-52zM423 1027l93 -140h-43l-117 140h67z" />
    <glyph glyph-name="uni1EC1" unicode="&#x1ec1;" 
d="M555 400v-148h-420v-92q0 -57 22 -80.5t78 -23.5h160q56 0 78 23.5t22 80.5v20h60v-20q0 -82 -38.5 -121t-121.5 -39h-160q-83 0 -121.5 39t-38.5 121v240q0 82 38.5 121t121.5 39h160q83 0 121.5 -39t38.5 -121zM135 400v-92h360v92q0 57 -22 80.5t-78 23.5h-160
q-56 0 -78 -23.5t-22 -80.5zM321 727h-10l-83 -104h-51l111 140h55l112 -140h-52zM400 874l93 -140h-43l-117 140h67z" />
    <glyph glyph-name="uni1EC2" unicode="&#x1ec2;" horiz-adv-x="665" 
d="M600 720v-56h-460v-276h450v-56h-450v-276h460v-56h-520v720h520zM345 880h-10l-83 -104h-51l111 140h55l112 -140h-52zM418 1068h83q57 0 57 -59v-35q0 -30 -15 -43.5t-59 -13.5v-16q0 -3 -0.5 -8.5t-0.5 -7.5h-37v68h40q23 0 28.5 4t5.5 17v35q0 11 -4 15.5t-15 4.5
h-83q-12 0 -16.5 -4.5t-4.5 -15.5v-28h-38v28q0 59 59 59z" />
    <glyph glyph-name="uni1EC3" unicode="&#x1ec3;" 
d="M555 400v-148h-420v-92q0 -57 22 -80.5t78 -23.5h160q56 0 78 23.5t22 80.5v20h60v-20q0 -82 -38.5 -121t-121.5 -39h-160q-83 0 -121.5 39t-38.5 121v240q0 82 38.5 121t121.5 39h160q83 0 121.5 -39t38.5 -121zM135 400v-92h360v92q0 57 -22 80.5t-78 23.5h-160
q-56 0 -78 -23.5t-22 -80.5zM321 727h-10l-83 -104h-51l111 140h55l112 -140h-52zM395 915h83q57 0 57 -59v-35q0 -30 -15 -43.5t-59 -13.5v-16q0 -3 -0.5 -8.5t-0.5 -7.5h-37v68h40q23 0 28.5 4t5.5 17v35q0 11 -4 15.5t-15 4.5h-83q-13 0 -17 -4t-4 -16v-28h-38v28
q0 59 59 59z" />
    <glyph glyph-name="uni1EC4" unicode="&#x1ec4;" horiz-adv-x="665" 
d="M600 720v-56h-460v-276h450v-56h-450v-276h460v-56h-520v720h520zM345 880h-10l-83 -104h-51l111 140h55l112 -140h-52zM245 962l-7 -18q-7 2 -22.5 9t-17.5 8l8 18q24 55 58 55q19 0 46 -11q6 -2 19 -7t19 -8q3 -1 38 -14q21 -8 30.5 -3t19.5 29q1 2 3.5 9t3.5 9
q7 -2 22.5 -9t17.5 -8l-8 -18q-24 -55 -59 -55q-18 0 -45 11q-12 4 -38 14q-14 5 -38 15q-23 9 -32.5 3.5t-17.5 -29.5z" />
    <glyph glyph-name="uni1EC5" unicode="&#x1ec5;" 
d="M555 400v-148h-420v-92q0 -57 22 -80.5t78 -23.5h160q56 0 78 23.5t22 80.5v20h60v-20q0 -82 -38.5 -121t-121.5 -39h-160q-83 0 -121.5 39t-38.5 121v240q0 82 38.5 121t121.5 39h160q83 0 121.5 -39t38.5 -121zM135 400v-92h360v92q0 57 -22 80.5t-78 23.5h-160
q-56 0 -78 -23.5t-22 -80.5zM321 727h-10l-83 -104h-51l111 140h55l112 -140h-52zM222 809l-7 -18q-7 2 -22.5 9t-17.5 8l8 18q24 55 58 55q19 0 46 -11q7 -3 19.5 -8t18.5 -7q3 -1 38 -14q21 -8 30.5 -3t19.5 29q1 2 3.5 8.5t3.5 9.5q7 -2 22.5 -9t17.5 -8l-8 -18
q-24 -55 -59 -55q-18 0 -45 11q-12 4 -38 14q-14 5 -38 15q-23 9 -32.5 3.5t-17.5 -29.5z" />
    <glyph glyph-name="uni1EC6" unicode="&#x1ec6;" horiz-adv-x="665" 
d="M600 720v-56h-460v-276h450v-56h-450v-276h460v-56h-520v720h520zM345 880h-10l-83 -104h-51l111 140h55l112 -140h-52zM317 -78q11 12 27 12t27 -11t11 -27t-11 -27t-27 -11t-27 11t-11 27t11 26z" />
    <glyph glyph-name="uni1EC7" unicode="&#x1ec7;" 
d="M555 400v-148h-420v-92q0 -57 22 -80.5t78 -23.5h160q56 0 78 23.5t22 80.5v20h60v-20q0 -82 -38.5 -121t-121.5 -39h-160q-83 0 -121.5 39t-38.5 121v240q0 82 38.5 121t121.5 39h160q83 0 121.5 -39t38.5 -121zM135 400v-92h360v92q0 57 -22 80.5t-78 23.5h-160
q-56 0 -78 -23.5t-22 -80.5zM321 727h-10l-83 -104h-51l111 140h55l112 -140h-52zM283 -78q11 12 27 12t27 -11t11 -27t-11 -27t-27 -11t-27 11t-11 27t11 26z" />
    <glyph glyph-name="uni1EC8" unicode="&#x1ec8;" horiz-adv-x="220" 
d="M65 959h83q57 0 57 -59v-35q0 -30 -15 -43.5t-59 -13.5v-16q0 -3 -0.5 -8.5t-0.5 -7.5h-37v68h40q23 0 28.5 4t5.5 17v35q0 11 -4 15.5t-15 4.5h-83q-13 0 -17 -4t-4 -16v-28h-38v28q0 59 59 59zM140 0h-60v720h60v-720z" />
    <glyph glyph-name="uni1EC9" unicode="&#x1ec9;" horiz-adv-x="220" 
d="M140 0h-60v560h60v-560zM63 806h83q57 0 57 -59v-35q0 -30 -15 -43.5t-59 -13.5v-16q0 -3 -0.5 -8.5t-0.5 -7.5h-37v68h40q23 0 28.5 4t5.5 17v35q0 11 -4 15.5t-15 4.5h-83q-13 0 -17 -4.5t-4 -15.5v-28h-38v28q0 59 59 59z" />
    <glyph glyph-name="uni1ECA" unicode="&#x1eca;" horiz-adv-x="220" 
d="M88 -78q11 12 27 12t27 -11t11 -27t-11 -27t-27 -11t-27 11t-11 27t11 26zM140 0h-60v720h60v-720z" />
    <glyph glyph-name="uni1ECB" unicode="&#x1ecb;" horiz-adv-x="220" 
d="M87 -78q11 12 27 12t27 -11t11 -27t-11 -27t-27 -11t-27 11t-11 27t11 26zM140 0h-60v560h60v-560zM74 715q15 15 36 15t35 -15q15 -14 15 -35t-15 -36q-14 -14 -35 -14t-36 14q-14 15 -14 36t14 35z" />
    <glyph glyph-name="uni1ECC" unicode="&#x1ecc;" horiz-adv-x="710" 
d="M323 -78q11 12 27 12t27 -11t11 -27t-11 -27t-27 -11t-27 11t-11 27t11 26zM235 720h240q83 0 121.5 -39t38.5 -121v-400q0 -82 -38.5 -121t-121.5 -39h-240q-83 0 -121.5 39t-38.5 121v400q0 82 38.5 121t121.5 39zM575 160v400q0 57 -22 80.5t-78 23.5h-240
q-56 0 -78 -23.5t-22 -80.5v-400q0 -57 22 -80.5t78 -23.5h240q56 0 78 23.5t22 80.5z" />
    <glyph glyph-name="uni1ECD" unicode="&#x1ecd;" 
d="M283 -78q11 12 27 12t27 -11t11 -27t-11 -27t-27 -11t-27 11t-11 27t11 26zM235 560h160q83 0 121.5 -39t38.5 -121v-240q0 -82 -38.5 -121t-121.5 -39h-160q-83 0 -121.5 39t-38.5 121v240q0 82 38.5 121t121.5 39zM495 160v240q0 57 -22 80.5t-78 23.5h-160
q-56 0 -78 -23.5t-22 -80.5v-240q0 -57 22 -80.5t78 -23.5h160q56 0 78 23.5t22 80.5z" />
    <glyph glyph-name="uni1ECE" unicode="&#x1ece;" horiz-adv-x="710" 
d="M235 720h240q83 0 121.5 -39t38.5 -121v-400q0 -82 -38.5 -121t-121.5 -39h-240q-83 0 -121.5 39t-38.5 121v400q0 82 38.5 121t121.5 39zM575 160v400q0 57 -22 80.5t-78 23.5h-240q-56 0 -78 -23.5t-22 -80.5v-400q0 -57 22 -80.5t78 -23.5h240q56 0 78 23.5t22 80.5z
M314 959h83q57 0 57 -59v-35q0 -30 -15 -43.5t-59 -13.5v-16q0 -3 -0.5 -8.5t-0.5 -7.5h-37v68h40q23 0 28.5 4t5.5 17v35q0 11 -4 15.5t-15 4.5h-83q-12 0 -16.5 -4t-4.5 -16v-28h-38v28q0 59 59 59z" />
    <glyph glyph-name="uni1ECF" unicode="&#x1ecf;" 
d="M281 806h83q57 0 57 -59v-35q0 -30 -15 -43.5t-59 -13.5v-16q0 -3 -0.5 -8.5t-0.5 -7.5h-37v68h40q23 0 28.5 4t5.5 17v35q0 11 -4 15.5t-15 4.5h-83q-13 0 -17 -4.5t-4 -15.5v-28h-38v28q0 59 59 59zM235 560h160q83 0 121.5 -39t38.5 -121v-240q0 -82 -38.5 -121
t-121.5 -39h-160q-83 0 -121.5 39t-38.5 121v240q0 82 38.5 121t121.5 39zM495 160v240q0 57 -22 80.5t-78 23.5h-160q-56 0 -78 -23.5t-22 -80.5v-240q0 -57 22 -80.5t78 -23.5h160q56 0 78 23.5t22 80.5z" />
    <glyph glyph-name="uni1ED0" unicode="&#x1ed0;" horiz-adv-x="710" 
d="M235 720h240q83 0 121.5 -39t38.5 -121v-400q0 -82 -38.5 -121t-121.5 -39h-240q-83 0 -121.5 39t-38.5 121v400q0 82 38.5 121t121.5 39zM575 160v400q0 57 -22 80.5t-78 23.5h-240q-56 0 -78 -23.5t-22 -80.5v-400q0 -57 22 -80.5t78 -23.5h240q56 0 78 23.5t22 80.5z
M360 879h-10l-83 -104h-51l111 140h55l112 -140h-52zM500 886h-44l94 140h66z" />
    <glyph glyph-name="uni1ED1" unicode="&#x1ed1;" 
d="M235 560h160q83 0 121.5 -39t38.5 -121v-240q0 -82 -38.5 -121t-121.5 -39h-160q-83 0 -121.5 39t-38.5 121v240q0 82 38.5 121t121.5 39zM495 160v240q0 57 -22 80.5t-78 23.5h-160q-56 0 -78 -23.5t-22 -80.5v-240q0 -57 22 -80.5t78 -23.5h160q56 0 78 23.5t22 80.5z
M320 727h-10l-83 -104h-51l111 140h55l112 -140h-52zM460 734h-44l94 140h66z" />
    <glyph glyph-name="uni1ED2" unicode="&#x1ed2;" horiz-adv-x="710" 
d="M235 720h240q83 0 121.5 -39t38.5 -121v-400q0 -82 -38.5 -121t-121.5 -39h-240q-83 0 -121.5 39t-38.5 121v400q0 82 38.5 121t121.5 39zM575 160v400q0 57 -22 80.5t-78 23.5h-240q-56 0 -78 -23.5t-22 -80.5v-400q0 -57 22 -80.5t78 -23.5h240q56 0 78 23.5t22 80.5z
M360 879h-10l-83 -104h-51l111 140h55l112 -140h-52zM439 1026l93 -140h-43l-117 140h67z" />
    <glyph glyph-name="uni1ED3" unicode="&#x1ed3;" 
d="M235 560h160q83 0 121.5 -39t38.5 -121v-240q0 -82 -38.5 -121t-121.5 -39h-160q-83 0 -121.5 39t-38.5 121v240q0 82 38.5 121t121.5 39zM495 160v240q0 57 -22 80.5t-78 23.5h-160q-56 0 -78 -23.5t-22 -80.5v-240q0 -57 22 -80.5t78 -23.5h160q56 0 78 23.5t22 80.5z
M320 727h-10l-83 -104h-51l111 140h55l112 -140h-52zM399 874l93 -140h-43l-117 140h67z" />
    <glyph glyph-name="uni1ED4" unicode="&#x1ed4;" horiz-adv-x="710" 
d="M235 720h240q83 0 121.5 -39t38.5 -121v-400q0 -82 -38.5 -121t-121.5 -39h-240q-83 0 -121.5 39t-38.5 121v400q0 82 38.5 121t121.5 39zM575 160v400q0 57 -22 80.5t-78 23.5h-240q-56 0 -78 -23.5t-22 -80.5v-400q0 -57 22 -80.5t78 -23.5h240q56 0 78 23.5t22 80.5z
M360 879h-10l-83 -104h-51l111 140h55l112 -140h-52zM433 1067h83q57 0 57 -59v-35q0 -30 -15 -43.5t-59 -13.5v-16q0 -3 -0.5 -8.5t-0.5 -7.5h-37v68h40q23 0 28.5 4t5.5 17v35q0 11 -4 15.5t-15 4.5h-83q-13 0 -17 -4t-4 -16v-28h-38v28q0 59 59 59z" />
    <glyph glyph-name="uni1ED5" unicode="&#x1ed5;" 
d="M235 560h160q83 0 121.5 -39t38.5 -121v-240q0 -82 -38.5 -121t-121.5 -39h-160q-83 0 -121.5 39t-38.5 121v240q0 82 38.5 121t121.5 39zM495 160v240q0 57 -22 80.5t-78 23.5h-160q-56 0 -78 -23.5t-22 -80.5v-240q0 -57 22 -80.5t78 -23.5h160q56 0 78 23.5t22 80.5z
M320 727h-10l-83 -104h-51l111 140h55l112 -140h-52zM394 915h83q57 0 57 -59v-35q0 -30 -15 -43.5t-59 -13.5v-16q0 -3 -0.5 -8.5t-0.5 -7.5h-37v68h40q23 0 28.5 4t5.5 17v35q0 11 -4 15.5t-15 4.5h-83q-12 0 -16.5 -4t-4.5 -16v-28h-38v28q0 59 59 59z" />
    <glyph glyph-name="uni1ED6" unicode="&#x1ed6;" horiz-adv-x="710" 
d="M235 720h240q83 0 121.5 -39t38.5 -121v-400q0 -82 -38.5 -121t-121.5 -39h-240q-83 0 -121.5 39t-38.5 121v400q0 82 38.5 121t121.5 39zM575 160v400q0 57 -22 80.5t-78 23.5h-240q-56 0 -78 -23.5t-22 -80.5v-400q0 -57 22 -80.5t78 -23.5h240q56 0 78 23.5t22 80.5z
M360 879h-10l-83 -104h-51l111 140h55l112 -140h-52zM260 961l-7 -18q-7 2 -22.5 9t-17.5 8l8 18q24 55 58 55q19 0 46 -11q6 -2 19 -7t19 -8q3 -1 38 -14q21 -8 30.5 -3t19.5 29q1 2 3.5 8.5t3.5 9.5q7 -2 22.5 -9t17.5 -8l-8 -18q-24 -55 -59 -55q-18 0 -45 11
q-12 4 -38 14q-14 5 -38 15q-23 9 -32.5 3.5t-17.5 -29.5z" />
    <glyph glyph-name="uni1ED7" unicode="&#x1ed7;" 
d="M235 560h160q83 0 121.5 -39t38.5 -121v-240q0 -82 -38.5 -121t-121.5 -39h-160q-83 0 -121.5 39t-38.5 121v240q0 82 38.5 121t121.5 39zM495 160v240q0 57 -22 80.5t-78 23.5h-160q-56 0 -78 -23.5t-22 -80.5v-240q0 -57 22 -80.5t78 -23.5h160q56 0 78 23.5t22 80.5z
M320 727h-10l-83 -104h-51l111 140h55l112 -140h-52zM221 809l-7 -18q-7 2 -22.5 9t-17.5 8l8 18q24 55 58 55q19 0 46 -11q6 -3 18.5 -8t19.5 -7q3 -1 38 -14q21 -8 30.5 -3t19.5 29q1 2 3.5 8.5t3.5 9.5q7 -2 22.5 -9t17.5 -8l-8 -18q-24 -55 -59 -55q-18 0 -45 11
q-12 4 -38 14q-14 5 -38 15q-23 9 -32.5 3.5t-17.5 -29.5z" />
    <glyph glyph-name="uni1ED8" unicode="&#x1ed8;" horiz-adv-x="710" 
d="M235 720h240q83 0 121.5 -39t38.5 -121v-400q0 -82 -38.5 -121t-121.5 -39h-240q-83 0 -121.5 39t-38.5 121v400q0 82 38.5 121t121.5 39zM575 160v400q0 57 -22 80.5t-78 23.5h-240q-56 0 -78 -23.5t-22 -80.5v-400q0 -57 22 -80.5t78 -23.5h240q56 0 78 23.5t22 80.5z
M360 879h-10l-83 -104h-51l111 140h55l112 -140h-52zM323 -78q11 12 27 12t27 -11t11 -27t-11 -27t-27 -11t-27 11t-11 27t11 26z" />
    <glyph glyph-name="uni1ED9" unicode="&#x1ed9;" 
d="M235 560h160q83 0 121.5 -39t38.5 -121v-240q0 -82 -38.5 -121t-121.5 -39h-160q-83 0 -121.5 39t-38.5 121v240q0 82 38.5 121t121.5 39zM495 160v240q0 57 -22 80.5t-78 23.5h-160q-56 0 -78 -23.5t-22 -80.5v-240q0 -57 22 -80.5t78 -23.5h160q56 0 78 23.5t22 80.5z
M320 727h-10l-83 -104h-51l111 140h55l112 -140h-52zM283 -78q11 12 27 12t27 -11t11 -27t-11 -27t-27 -11t-27 11t-11 27t11 26z" />
    <glyph glyph-name="uni1EDA" unicode="&#x1eda;" horiz-adv-x="710" 
d="M235 720h240q18 0 27 -1h77q45 -2 55 16.5t3 67.5v5h60v-5q6 -91 -26 -117q-22 -19 -61 -22q25 -38 25 -104v-400q0 -82 -38.5 -121t-121.5 -39h-240q-83 0 -121.5 39t-38.5 121v400q0 82 38.5 121t121.5 39zM575 160v400q0 57 -22 80.5t-78 23.5h-240q-56 0 -78 -23.5
t-22 -80.5v-400q0 -57 22 -80.5t78 -23.5h240q56 0 78 23.5t22 80.5zM408 916h67l-117 -140h-43z" />
    <glyph glyph-name="uni1EDB" unicode="&#x1edb;" 
d="M235 560h160q18 0 27 -1h79q45 -2 55 16.5t3 67.5v5h60v-5q6 -91 -26 -117q-22 -19 -63 -22q25 -37 25 -104v-240q0 -82 -38.5 -121t-121.5 -39h-160q-83 0 -121.5 39t-38.5 121v240q0 82 38.5 121t121.5 39zM495 160v240q0 58 -22 80q-19 21 -67 24h-171
q-56 0 -78 -23.5t-22 -80.5v-240q0 -57 22 -80.5t78 -23.5h160q56 0 78 23.5t22 80.5zM366 763h67l-117 -140h-43z" />
    <glyph glyph-name="uni1EDC" unicode="&#x1edc;" horiz-adv-x="710" 
d="M235 720h240q18 0 27 -1h77q45 -2 55 16.5t3 67.5v5h60v-5q6 -91 -26 -117q-22 -19 -61 -22q25 -38 25 -104v-400q0 -82 -38.5 -121t-121.5 -39h-240q-83 0 -121.5 39t-38.5 121v400q0 82 38.5 121t121.5 39zM575 160v400q0 57 -22 80.5t-78 23.5h-240q-56 0 -78 -23.5
t-22 -80.5v-400q0 -57 22 -80.5t78 -23.5h240q56 0 78 23.5t22 80.5zM376 776l-117 140h67l93 -140h-43z" />
    <glyph glyph-name="uni1EDD" unicode="&#x1edd;" 
d="M235 560h160q18 0 27 -1h79q45 -2 55 16.5t3 67.5v5h60v-5q6 -91 -26 -117q-22 -19 -63 -22q25 -37 25 -104v-240q0 -82 -38.5 -121t-121.5 -39h-160q-83 0 -121.5 39t-38.5 121v240q0 82 38.5 121t121.5 39zM495 160v240q0 58 -22 80q-19 21 -67 24h-171
q-56 0 -78 -23.5t-22 -80.5v-240q0 -57 22 -80.5t78 -23.5h160q56 0 78 23.5t22 80.5zM276 763l93 -140h-43l-117 140h67z" />
    <glyph glyph-name="uni1EDE" unicode="&#x1ede;" horiz-adv-x="710" 
d="M235 720h240q18 0 27 -1h77q45 -2 55 16.5t3 67.5v5h60v-5q6 -91 -26 -117q-22 -19 -61 -22q25 -38 25 -104v-400q0 -82 -38.5 -121t-121.5 -39h-240q-83 0 -121.5 39t-38.5 121v400q0 82 38.5 121t121.5 39zM575 160v400q0 57 -22 80.5t-78 23.5h-240q-56 0 -78 -23.5
t-22 -80.5v-400q0 -57 22 -80.5t78 -23.5h240q56 0 78 23.5t22 80.5zM314 959h83q57 0 57 -59v-35q0 -30 -15 -43.5t-59 -13.5v-16q0 -3 -0.5 -8.5t-0.5 -7.5h-37v68h40q23 0 28.5 4t5.5 17v35q0 11 -4 15.5t-15 4.5h-83q-12 0 -16.5 -4t-4.5 -16v-28h-38v28q0 59 59 59z
" />
    <glyph glyph-name="uni1EDF" unicode="&#x1edf;" 
d="M235 560h160q18 0 27 -1h79q45 -2 55 16.5t3 67.5v5h60v-5q6 -91 -26 -117q-22 -19 -63 -22q25 -37 25 -104v-240q0 -82 -38.5 -121t-121.5 -39h-160q-83 0 -121.5 39t-38.5 121v240q0 82 38.5 121t121.5 39zM495 160v240q0 58 -22 80q-19 21 -67 24h-171
q-56 0 -78 -23.5t-22 -80.5v-240q0 -57 22 -80.5t78 -23.5h160q56 0 78 23.5t22 80.5zM281 806h83q57 0 57 -59v-35q0 -30 -15 -43.5t-59 -13.5v-16q0 -3 -0.5 -8.5t-0.5 -7.5h-37v68h40q23 0 28.5 4t5.5 17v35q0 11 -4 15.5t-15 4.5h-83q-13 0 -17 -4.5t-4 -15.5v-28h-38
v28q0 59 59 59z" />
    <glyph glyph-name="uni1EE0" unicode="&#x1ee0;" horiz-adv-x="710" 
d="M235 720h240q18 0 27 -1h77q45 -2 55 16.5t3 67.5v5h60v-5q6 -91 -26 -117q-22 -19 -61 -22q25 -38 25 -104v-400q0 -82 -38.5 -121t-121.5 -39h-240q-83 0 -121.5 39t-38.5 121v400q0 82 38.5 121t121.5 39zM575 160v400q0 57 -22 80.5t-78 23.5h-240q-56 0 -78 -23.5
t-22 -80.5v-400q0 -57 22 -80.5t78 -23.5h240q56 0 78 23.5t22 80.5zM259 815l-7 -18q-7 2 -22.5 9t-17.5 8l8 18q24 55 58 55q19 0 46 -11q6 -3 18.5 -8t19.5 -7q3 -1 38 -14q21 -8 30.5 -3t19.5 29q1 3 3.5 9.5t3.5 8.5q7 -2 22.5 -9t17.5 -8l-8 -18q-24 -55 -59 -55
q-18 0 -45 11q-12 4 -38 14q-14 5 -38 15q-23 9 -32.5 3.5t-17.5 -29.5z" />
    <glyph glyph-name="uni1EE1" unicode="&#x1ee1;" 
d="M235 560h160q18 0 27 -1h79q45 -2 55 16.5t3 67.5v5h60v-5q6 -91 -26 -117q-22 -19 -63 -22q25 -37 25 -104v-240q0 -82 -38.5 -121t-121.5 -39h-160q-83 0 -121.5 39t-38.5 121v240q0 82 38.5 121t121.5 39zM495 160v240q0 58 -22 80q-19 21 -67 24h-171
q-56 0 -78 -23.5t-22 -80.5v-240q0 -57 22 -80.5t78 -23.5h160q56 0 78 23.5t22 80.5zM223 667l-7 -18q-7 2 -22.5 9t-17.5 8l8 18q24 55 58 55q19 0 46 -11q7 -2 19.5 -7t18.5 -8q3 -1 38 -14q21 -8 30.5 -3t19.5 29q1 2 3.5 8.5t3.5 9.5q7 -2 22.5 -9t17.5 -8l-8 -18
q-24 -55 -59 -55q-18 0 -45 11q-12 4 -38 14q-14 5 -38 15q-23 9 -32.5 3.5t-17.5 -29.5z" />
    <glyph glyph-name="uni1EE2" unicode="&#x1ee2;" horiz-adv-x="710" 
d="M235 720h240q18 0 27 -1h77q45 -2 55 16.5t3 67.5v5h60v-5q6 -91 -26 -117q-22 -19 -61 -22q25 -38 25 -104v-400q0 -82 -38.5 -121t-121.5 -39h-240q-83 0 -121.5 39t-38.5 121v400q0 82 38.5 121t121.5 39zM575 160v400q0 57 -22 80.5t-78 23.5h-240q-56 0 -78 -23.5
t-22 -80.5v-400q0 -57 22 -80.5t78 -23.5h240q56 0 78 23.5t22 80.5zM323 -78q11 12 27 12t27 -11t11 -27t-11 -27t-27 -11t-27 11t-11 27t11 26z" />
    <glyph glyph-name="uni1EE3" unicode="&#x1ee3;" 
d="M235 560h160q18 0 27 -1h79q45 -2 55 16.5t3 67.5v5h60v-5q6 -91 -26 -117q-22 -19 -63 -22q25 -37 25 -104v-240q0 -82 -38.5 -121t-121.5 -39h-160q-83 0 -121.5 39t-38.5 121v240q0 82 38.5 121t121.5 39zM495 160v240q0 58 -22 80q-19 21 -67 24h-171
q-56 0 -78 -23.5t-22 -80.5v-240q0 -57 22 -80.5t78 -23.5h160q56 0 78 23.5t22 80.5zM283 -78q11 12 27 12t27 -11t11 -27t-11 -27t-27 -11t-27 11t-11 27t11 26z" />
    <glyph glyph-name="uni1EE4" unicode="&#x1ee4;" horiz-adv-x="720" 
d="M331 -78q11 12 27 12t27 -11t11 -27t-11 -27t-27 -11t-27 11t-11 27t11 26zM580 160v560h60v-560q0 -82 -39 -121t-121 -39h-240q-82 0 -121 39t-39 121v560h60v-560q0 -57 22 -80.5t78 -23.5h240q56 0 78 23.5t22 80.5z" />
    <glyph glyph-name="uni1EE5" unicode="&#x1ee5;" horiz-adv-x="640" 
d="M288 -78q11 12 27 12t27 -11t11 -27t-11 -27t-27 -11t-27 11t-11 27t11 26zM500 160v400h60v-400q0 -82 -39 -121t-121 -39h-160q-82 0 -121 39t-39 121v400h60v-400q0 -57 22 -80.5t78 -23.5h160q56 0 78 23.5t22 80.5z" />
    <glyph glyph-name="uni1EE6" unicode="&#x1ee6;" horiz-adv-x="720" 
d="M325 959h83q57 0 57 -59v-35q0 -30 -15 -43.5t-59 -13.5v-16q0 -3 -0.5 -8.5t-0.5 -7.5h-37v68h40q23 0 28.5 4t5.5 17v35q0 11 -4 15.5t-15 4.5h-83q-13 0 -17 -4t-4 -16v-28h-38v28q0 59 59 59zM580 160v560h60v-560q0 -82 -39 -121t-121 -39h-240q-82 0 -121 39
t-39 121v560h60v-560q0 -57 22 -80.5t78 -23.5h240q56 0 78 23.5t22 80.5z" />
    <glyph glyph-name="uni1EE7" unicode="&#x1ee7;" horiz-adv-x="640" 
d="M281 806h83q57 0 57 -59v-35q0 -30 -15 -43.5t-59 -13.5v-16q0 -3 -0.5 -8.5t-0.5 -7.5h-37v68h40q23 0 28.5 4t5.5 17v35q0 11 -4 15.5t-15 4.5h-83q-13 0 -17 -4.5t-4 -15.5v-28h-38v28q0 59 59 59zM500 160v400h60v-400q0 -82 -39 -121t-121 -39h-160q-82 0 -121 39
t-39 121v400h60v-400q0 -57 22 -80.5t78 -23.5h160q56 0 78 23.5t22 80.5z" />
    <glyph glyph-name="uni1EE8" unicode="&#x1ee8;" horiz-adv-x="720" 
d="M580 160v560h40q45 -2 55 16.5t3 67.5v5h60v-5q6 -91 -26 -117q-26 -23 -72 -24v-503q0 -82 -39 -121t-121 -39h-240q-82 0 -121 39t-39 121v560h60v-560q0 -57 22 -80.5t78 -23.5h240q56 0 78 23.5t22 80.5zM404 915h67l-117 -140h-43z" />
    <glyph glyph-name="uni1EE9" unicode="&#x1ee9;" horiz-adv-x="640" 
d="M597 643v5h60v-5q6 -91 -26 -117q-25 -22 -71 -24v-342q0 -82 -39 -121t-121 -39h-160q-82 0 -121 39t-39 121v400h60v-400q0 -57 22 -80.5t78 -23.5h160q56 0 78 23.5t22 80.5v400h60v-1q27 3 35 18q9 22 2 66zM366 763h67l-117 -140h-43z" />
    <glyph glyph-name="uni1EEA" unicode="&#x1eea;" horiz-adv-x="720" 
d="M580 160v560h40q45 -2 55 16.5t3 67.5v5h60v-5q6 -91 -26 -117q-26 -23 -72 -24v-503q0 -82 -39 -121t-121 -39h-240q-82 0 -121 39t-39 121v560h60v-560q0 -57 22 -80.5t78 -23.5h240q56 0 78 23.5t22 80.5zM373 775l-117 140h67l93 -140h-43z" />
    <glyph glyph-name="uni1EEB" unicode="&#x1eeb;" horiz-adv-x="640" 
d="M597 643v5h60v-5q6 -91 -26 -117q-25 -22 -71 -24v-342q0 -82 -39 -121t-121 -39h-160q-82 0 -121 39t-39 121v400h60v-400q0 -57 22 -80.5t78 -23.5h160q56 0 78 23.5t22 80.5v400h60v-1q27 3 35 18q9 22 2 66zM283 763l93 -140h-43l-117 140h67z" />
    <glyph glyph-name="uni1EEC" unicode="&#x1eec;" horiz-adv-x="720" 
d="M580 160v560h40q45 -2 55 16.5t3 67.5v5h60v-5q6 -91 -26 -117q-26 -23 -72 -24v-503q0 -82 -39 -121t-121 -39h-240q-82 0 -121 39t-39 121v560h60v-560q0 -57 22 -80.5t78 -23.5h240q56 0 78 23.5t22 80.5zM325 959h83q57 0 57 -59v-35q0 -30 -15 -43.5t-59 -13.5v-16
q0 -3 -0.5 -8.5t-0.5 -7.5h-37v68h40q23 0 28.5 4t5.5 17v35q0 11 -4 15.5t-15 4.5h-83q-13 0 -17 -4t-4 -16v-28h-38v28q0 59 59 59z" />
    <glyph glyph-name="uni1EED" unicode="&#x1eed;" horiz-adv-x="640" 
d="M597 643v5h60v-5q6 -91 -26 -117q-25 -22 -71 -24v-342q0 -82 -39 -121t-121 -39h-160q-82 0 -121 39t-39 121v400h60v-400q0 -57 22 -80.5t78 -23.5h160q56 0 78 23.5t22 80.5v400h60v-1q27 3 35 18q9 22 2 66zM281 806h83q57 0 57 -59v-35q0 -30 -15 -43.5t-59 -13.5
v-16q0 -3 -0.5 -8.5t-0.5 -7.5h-37v68h40q23 0 28.5 4t5.5 17v35q0 11 -4 15.5t-15 4.5h-83q-13 0 -17 -4.5t-4 -15.5v-28h-38v28q0 59 59 59z" />
    <glyph glyph-name="uni1EEE" unicode="&#x1eee;" horiz-adv-x="720" 
d="M580 160v560h40q45 -2 55 16.5t3 67.5v5h60v-5q6 -91 -26 -117q-26 -23 -72 -24v-503q0 -82 -39 -121t-121 -39h-240q-82 0 -121 39t-39 121v560h60v-560q0 -57 22 -80.5t78 -23.5h240q56 0 78 23.5t22 80.5zM265 815l-7 -18q-7 2 -22.5 9t-17.5 8l8 18q24 55 58 55
q19 0 46 -11q7 -3 19 -8t19 -7q3 -1 38 -14q21 -8 30.5 -3t19.5 29q1 3 3.5 9.5t3.5 8.5q7 -2 22.5 -9t17.5 -8l-8 -18q-24 -55 -59 -55q-18 0 -45 11q-12 4 -38 14q-14 5 -38 15q-23 9 -32.5 3.5t-17.5 -29.5z" />
    <glyph glyph-name="uni1EEF" unicode="&#x1eef;" horiz-adv-x="640" 
d="M597 643v5h60v-5q6 -91 -26 -117q-25 -22 -71 -24v-342q0 -82 -39 -121t-121 -39h-160q-82 0 -121 39t-39 121v400h60v-400q0 -57 22 -80.5t78 -23.5h160q56 0 78 23.5t22 80.5v400h60v-1q27 3 35 18q9 22 2 66zM222 666l-7 -18q-7 2 -22.5 9t-17.5 8l8 18q24 55 58 55
q19 0 46 -11q7 -3 19.5 -8t18.5 -7q3 -1 38 -14q21 -8 30.5 -3t19.5 29q1 2 3.5 8.5t3.5 9.5q7 -2 22.5 -9t17.5 -8l-8 -18q-24 -55 -59 -55q-18 0 -45 11q-12 4 -38 14q-14 5 -38 15q-23 9 -32.5 3.5t-17.5 -29.5z" />
    <glyph glyph-name="uni1EF0" unicode="&#x1ef0;" horiz-adv-x="720" 
d="M580 160v560h40q45 -2 55 16.5t3 67.5v5h60v-5q6 -91 -26 -117q-26 -23 -72 -24v-503q0 -82 -39 -121t-121 -39h-240q-82 0 -121 39t-39 121v560h60v-560q0 -57 22 -80.5t78 -23.5h240q56 0 78 23.5t22 80.5zM331 -78q11 12 27 12t27 -11t11 -27t-11 -27t-27 -11t-27 11
t-11 27t11 26z" />
    <glyph glyph-name="uni1EF1" unicode="&#x1ef1;" horiz-adv-x="640" 
d="M597 643v5h60v-5q6 -91 -26 -117q-25 -22 -71 -24v-342q0 -82 -39 -121t-121 -39h-160q-82 0 -121 39t-39 121v400h60v-400q0 -57 22 -80.5t78 -23.5h160q56 0 78 23.5t22 80.5v400h60v-1q27 3 35 18q9 22 2 66zM288 -78q11 12 27 12t27 -11t11 -27t-11 -27t-27 -11
t-27 11t-11 27t11 26z" />
    <glyph glyph-name="Ygrave" unicode="&#x1ef2;" horiz-adv-x="663" 
d="M301 916l93 -140h-43l-117 140h67zM564 720h69l-272 -482v-238h-60v238l-271 482h69l227 -404h10z" />
    <glyph glyph-name="ygrave" unicode="&#x1ef3;" horiz-adv-x="604" 
d="M279 763l93 -140h-43l-117 140h67zM307 56l203 504h64l-305 -760h-65l81 200h-30l-225 560h65l202 -504h10z" />
    <glyph glyph-name="uni1EF4" unicode="&#x1ef4;" horiz-adv-x="663" 
d="M305 -78q11 12 27 12t27 -11t11 -27t-11 -27t-27 -11t-27 11t-11 27t11 26zM564 720h69l-272 -482v-238h-60v238l-271 482h69l227 -404h10z" />
    <glyph glyph-name="uni1EF5" unicode="&#x1ef5;" horiz-adv-x="604" 
d="M407 -78q11 12 27 12t27 -11t11 -27t-11 -27t-27 -11t-27 11t-11 27t11 26zM307 56l203 504h64l-305 -760h-65l81 200h-30l-225 560h65l202 -504h10z" />
    <glyph glyph-name="uni1EF6" unicode="&#x1ef6;" horiz-adv-x="663" 
d="M303 959h83q57 0 57 -59v-35q0 -30 -15 -43.5t-59 -13.5v-16q0 -3 -0.5 -8.5t-0.5 -7.5h-37v68h40q23 0 28.5 4t5.5 17v35q0 11 -4 15.5t-15 4.5h-83q-13 0 -17 -4t-4 -16v-28h-38v28q0 59 59 59zM564 720h69l-272 -482v-238h-60v238l-271 482h69l227 -404h10z" />
    <glyph glyph-name="uni1EF7" unicode="&#x1ef7;" horiz-adv-x="604" 
d="M265 806h83q57 0 57 -59v-35q0 -30 -15 -43.5t-59 -13.5v-16q0 -3 -0.5 -8.5t-0.5 -7.5h-37v68h40q23 0 28.5 4t5.5 17v35q0 11 -4 15.5t-15 4.5h-83q-13 0 -17 -4.5t-4 -15.5v-28h-38v28q0 59 59 59zM307 56l203 504h64l-305 -760h-65l81 200h-30l-225 560h65l202 -504
h10z" />
    <glyph glyph-name="uni1EF8" unicode="&#x1ef8;" horiz-adv-x="663" 
d="M239 815l-7 -18q-7 2 -22.5 9t-17.5 8l8 18q24 55 58 55q19 0 46 -11q7 -3 19.5 -8t18.5 -7q3 -1 38 -14q21 -8 30.5 -3t19.5 29q1 3 3.5 9.5t3.5 8.5q7 -2 22.5 -9t17.5 -8l-8 -18q-24 -55 -59 -55q-18 0 -45 11q-12 4 -38 14q-14 5 -38 15q-23 9 -32.5 3.5t-17.5 -29.5
zM564 720h69l-272 -482v-238h-60v238l-271 482h69l227 -404h10z" />
    <glyph glyph-name="uni1EF9" unicode="&#x1ef9;" horiz-adv-x="604" 
d="M207 666l-7 -18q-7 2 -22.5 9t-17.5 8l8 18q24 55 58 55q19 0 46 -11q6 -3 18.5 -8t19.5 -7q3 -1 38 -14q21 -8 30.5 -3t19.5 29q1 2 3.5 8.5t3.5 9.5q7 -2 22.5 -9t17.5 -8l-8 -18q-24 -55 -59 -55q-18 0 -45 11q-12 4 -38 14q-14 5 -38 15q-23 9 -32.5 3.5t-17.5 -29.5
zM307 56l203 504h64l-305 -760h-65l81 200h-30l-225 560h65l202 -504h10z" />
    <glyph glyph-name="uni1EFA" unicode="&#x1efa;" horiz-adv-x="0" 
 />
    <glyph glyph-name="uni1EFB" unicode="&#x1efb;" horiz-adv-x="0" 
d="M678 804v5h60v-5q6 -91 -26 -117t-92 -23h-10v56h10q45 -2 55 16.5t3 67.5z" />
    <glyph glyph-name="uni1EFC" unicode="&#x1efc;" horiz-adv-x="0" 
d="M637 803v5h60v-5q6 -91 -26 -117t-92 -23h-114v56h114q45 -2 55 16.5t3 67.5z" />
    <glyph glyph-name="uni1EFD" unicode="&#x1efd;" horiz-adv-x="0" 
d="M226 817l-7 -18q-7 2 -22.5 9t-17.5 8l8 18q24 55 58 55q19 0 46 -11q7 -2 19 -7t19 -8q3 -1 38 -14q21 -8 30.5 -3t19.5 29q1 3 3.5 9.5t3.5 8.5q7 -2 22.5 -9t17.5 -8l-8 -18q-24 -55 -59 -55q-18 0 -45 11q-12 4 -38 14q-14 5 -38 15q-23 9 -32.5 3.5t-17.5 -29.5z
" />
    <glyph glyph-name="endash" unicode="&#x2013;" horiz-adv-x="580" 
d="M70 308h440v-56h-440v56z" />
    <glyph glyph-name="emdash" unicode="&#x2014;" horiz-adv-x="720" 
d="M70 308h580v-56h-580v56z" />
    <glyph glyph-name="quoteleft" unicode="&#x2018;" horiz-adv-x="250" 
d="M180 720l-33 -130h-77l65 130h45z" />
    <glyph glyph-name="quoteright" unicode="&#x2019;" horiz-adv-x="250" 
d="M70 590l32 130h78l-65 -130h-45z" />
    <glyph glyph-name="quotesinglbase" unicode="&#x201a;" horiz-adv-x="250" 
d="M70 0l32 130h78l-65 -130h-45z" />
    <glyph glyph-name="quotedblleft" unicode="&#x201c;" horiz-adv-x="390" 
d="M147 590h-77l65 130h45zM210 590l65 130h45l-33 -130h-77z" />
    <glyph glyph-name="quotedblright" unicode="&#x201d;" horiz-adv-x="390" 
d="M242 720h78l-65 -130h-45zM180 720l-65 -130h-45l32 130h78z" />
    <glyph glyph-name="quotedblbase" unicode="&#x201e;" horiz-adv-x="390" 
d="M242 130h78l-65 -130h-45zM180 130l-65 -130h-45l32 130h78z" />
    <glyph glyph-name="dagger" unicode="&#x2020;" horiz-adv-x="680" 
d="M610 560v-56h-240v-624h-60v624h-240v56h240v160h60v-160h240z" />
    <glyph glyph-name="daggerdbl" unicode="&#x2021;" horiz-adv-x="680" 
d="M610 560v-56h-240v-408h240v-56h-240v-160h-60v160h-240v56h240v408h-240v56h240v160h60v-160h240z" />
    <glyph glyph-name="bullet" unicode="&#x2022;" horiz-adv-x="300" 
d="M93 336q24 24 57 24t56 -24q24 -23 24 -56t-24 -57q-23 -23 -56 -23t-57 23q-23 24 -23 57t23 56z" />
    <glyph glyph-name="ellipsis" unicode="&#x2026;" horiz-adv-x="560" 
d="M84 75q15 15 36 15t35 -15q15 -14 15 -35t-15 -36q-14 -14 -35 -14t-36 14q-14 15 -14 36t14 35zM244 75q15 15 36 15t35 -15q15 -14 15 -35t-15 -36q-14 -14 -35 -14t-36 14q-14 15 -14 36t14 35zM404 75q15 15 36 15t35 -15q15 -14 15 -35t-15 -36q-14 -14 -35 -14
t-36 14q-14 15 -14 36t14 35z" />
    <glyph glyph-name="perthousand" unicode="&#x2030;" horiz-adv-x="1270" 
d="M375 600v-120q0 -68 -26.5 -94t-93.5 -26h-60q-67 0 -93.5 26t-26.5 94v120q0 68 26.5 94t93.5 26h60q67 0 93.5 -26t26.5 -94zM115 600v-120q0 -49 16 -66.5t64 -17.5h60q48 0 64 17.5t16 66.5v120q0 49 -16 66.5t-64 17.5h-60q-48 0 -64 -17.5t-16 -66.5zM635 360h60
q67 0 93.5 -26t26.5 -94v-120q0 -68 -26.5 -94t-93.5 -26h-60q-67 0 -93.5 26t-26.5 94v120q0 68 26.5 94t93.5 26zM775 120v120q0 49 -16 66.5t-64 17.5h-60q-48 0 -64 -17.5t-16 -66.5v-120q0 -49 16 -66.5t64 -17.5h60q48 0 64 17.5t16 66.5zM1015 360h60q67 0 93.5 -26
t26.5 -94v-120q0 -68 -26.5 -94t-93.5 -26h-60q-67 0 -93.5 26t-26.5 94v120q0 68 26.5 94t93.5 26zM1155 120v120q0 49 -16 66.5t-64 17.5h-60q-48 0 -64 -17.5t-16 -66.5v-120q0 -49 16 -66.5t64 -17.5h60q48 0 64 17.5t16 66.5zM243 0l360 720h44l-360 -720h-44z" />
    <glyph glyph-name="guilsinglleft" unicode="&#x2039;" horiz-adv-x="365" 
d="M70 280l150 200h75l-150 -200l150 -200h-75z" />
    <glyph glyph-name="guilsinglright" unicode="&#x203a;" horiz-adv-x="365" 
d="M220 280l-150 200h75l150 -200l-150 -200h-75z" />
    <glyph glyph-name="fraction" unicode="&#x2044;" horiz-adv-x="465" 
d="M30 0l360 720h45l-360 -720h-45z" />
    <glyph glyph-name="Euro" unicode="&#x20ac;" horiz-adv-x="750" 
d="M620 160v60h60v-60q0 -82 -39 -121t-121 -39h-240q-82 0 -121 39t-39 121v110h-80v36h360v-36h-220v-110q0 -57 22 -80.5t78 -23.5h240q56 0 78 23.5t22 80.5zM280 720h240q82 0 121 -39t39 -121v-60h-60v60q0 57 -22 80.5t-78 23.5h-240q-56 0 -78 -23.5t-22 -80.5v-110
h220v-36h-360v36h80v110q0 82 39 121t121 39z" />
    <glyph glyph-name="afii61289" unicode="&#x2113;" horiz-adv-x="435" 
d="M195 720h60q67 0 93.5 -26t26.5 -94v-200q0 -68 -26.5 -94t-93.5 -26h-140v-160q0 -49 16 -66.5t64 -17.5h80v-36h-80q-67 0 -93.5 26t-26.5 94v480q0 68 26.5 94t93.5 26zM335 400v200q0 49 -16 66.5t-64 17.5h-60q-48 0 -64 -17.5t-16 -66.5v-284h140q48 0 64 17.5
t16 66.5z" />
    <glyph glyph-name="trademark" unicode="&#x2122;" horiz-adv-x="850" 
d="M595 500l100 220h75v-360h-40v324h-10l-100 -220h-60l-100 220h-10v-324h-40v360h75l100 -220h10zM165 684h-135v36h310v-36h-135v-324h-40v324z" />
    <glyph glyph-name="Omega" unicode="&#x2126;" horiz-adv-x="680" 
d="M520 67v-11h120v-56h-180v90q44 4 62 27t18 74v329q0 57 -22 80.5t-78 23.5h-200q-56 0 -78 -23.5t-22 -80.5v-329q0 -52 17.5 -74.5t62.5 -26.5v-90h-180v56h120v11q-3 0 -8.5 1.5t-19.5 9t-24.5 19.5t-19 37t-8.5 57v329q0 82 39 121t121 39h200q82 0 121 -39t39 -121
v-329q0 -59 -24 -88t-48 -35z" />
    <glyph glyph-name="estimated" unicode="&#x212e;" horiz-adv-x="880" 
d="M728 180h35q-48 -86 -135 -138q-85 -52 -188 -52q-152 0 -262 108q-108 110 -108 262q0 153 108 261q109 109 262 109t261 -109q109 -108 109 -261v-14h-580v-253q91 -73 210 -73q89 0 165.5 43t122.5 117zM230 627v-253h420v253q-91 73 -210 73t-210 -73z" />
    <glyph glyph-name="partialdiff" unicode="&#x2202;" 
d="M155 760h240q83 0 121.5 -39t38.5 -121v-440q0 -82 -38.5 -121t-121.5 -39h-160q-83 0 -121.5 39t-38.5 121v160q0 82 38.5 121t121.5 39h260v120q0 57 -22 80.5t-78 23.5h-240v56zM495 160v264h-260q-56 0 -78 -23.5t-22 -80.5v-160q0 -57 22 -80.5t78 -23.5h160
q56 0 78 23.5t22 80.5z" />
    <glyph glyph-name="increment" unicode="&#x2206;" horiz-adv-x="683" 
d="M294 720h96l263 -720h-623zM337 664l-223 -608h454l-221 608h-10z" />
    <glyph glyph-name="product" unicode="&#x220f;" horiz-adv-x="720" 
d="M80 0v720h560v-720h-60v664h-440v-664h-60z" />
    <glyph glyph-name="summation" unicode="&#x2211;" horiz-adv-x="640" 
d="M600 720v-56h-500v-10l300 -350v-48l-300 -350v-10h500v-56h-560v85l300 350v10l-300 350v85h560z" />
    <glyph glyph-name="minus" unicode="&#x2212;" horiz-adv-x="620" 
d="M70 308h480v-56h-480v56z" />
    <glyph glyph-name="uni2215" unicode="&#x2215;" horiz-adv-x="465" 
d="M30 0l360 720h45l-360 -720h-45z" />
    <glyph glyph-name="uni2219" unicode="&#x2219;" horiz-adv-x="240" 
d="M84 315q15 15 36 15t35 -15q15 -14 15 -35t-15 -36q-14 -14 -35 -14t-36 14q-14 15 -14 36t14 35z" />
    <glyph glyph-name="radical" unicode="&#x221a;" horiz-adv-x="680" 
d="M334 -144l275 1084h41l-284 -1120h-74l-143 564h-99v36h131l143 -564h10z" />
    <glyph glyph-name="infinity" unicode="&#x221e;" horiz-adv-x="920" 
d="M590 460h100q82 0 121 -39t39 -121v-40q0 -82 -39 -121t-121 -39h-100q-59 0 -88.5 24t-35.5 48l-1 8h-10q0 -3 -1.5 -8.5t-9.5 -19.5t-20 -24.5t-37 -19t-57 -8.5h-100q-82 0 -121 39t-39 121v40q0 82 39 121t121 39h100q59 0 88.5 -24t35.5 -48l1 -8h10q0 3 1.5 8.5
t9.5 19.5t20 24.5t37 19t57 8.5zM430 260v40q0 57 -22 80.5t-78 23.5h-100q-56 0 -78 -23.5t-22 -80.5v-40q0 -57 22 -80.5t78 -23.5h100q56 0 78 23.5t22 80.5zM790 260v40q0 57 -22 80.5t-78 23.5h-100q-56 0 -78 -23.5t-22 -80.5v-40q0 -57 22 -80.5t78 -23.5h100
q56 0 78 23.5t22 80.5z" />
    <glyph glyph-name="integral" unicode="&#x222b;" horiz-adv-x="440" 
d="M320 800h80v-36h-80q-48 0 -64 -17.5t-16 -66.5v-680q0 -68 -26 -94t-94 -26h-80v36h80q48 0 64 17.5t16 66.5v680q0 68 26 94t94 26z" />
    <glyph glyph-name="approxequal" unicode="&#x2248;" horiz-adv-x="620" 
d="M490 512v28h60v-28q0 -75 -32.5 -107.5t-107.5 -32.5h-200q-48 0 -64 -17.5t-16 -66.5v-28h-60v28q0 75 32.5 107.5t107.5 32.5h200q48 0 64 17.5t16 66.5zM490 272v28h60v-28q0 -75 -32.5 -107.5t-107.5 -32.5h-200q-48 0 -64 -17.5t-16 -66.5v-28h-60v28
q0 75 32.5 107.5t107.5 32.5h200q48 0 64 17.5t16 66.5z" />
    <glyph glyph-name="notequal" unicode="&#x2260;" horiz-adv-x="620" 
d="M550 390v-56h-191l-54 -108h245v-56h-273l-50 -100h-44l50 100h-163v56h191l54 108h-245v56h273l50 100h44l-50 -100h163z" />
    <glyph glyph-name="lessequal" unicode="&#x2264;" horiz-adv-x="620" 
d="M550 521v-59l-420 -127v-10l420 -128v-58l-480 146v90zM550 40h-480v56h480v-56z" />
    <glyph glyph-name="greaterequal" unicode="&#x2265;" horiz-adv-x="620" 
d="M490 335l-420 127v59l480 -146v-90l-480 -146v58l420 128v10zM550 96v-56h-480v56h480z" />
    <glyph glyph-name="lozenge" unicode="&#x25ca;" horiz-adv-x="660" 
d="M301 0l-231 360l231 360h58l231 -360l-231 -360h-58zM335 36l207 324l-207 324h-10l-208 -324l208 -324h10z" />
    <glyph glyph-name="f_f_j" unicode="&#xe095;" horiz-adv-x="900" 
d="M480 620v-60h340v-620q0 -75 -32.5 -107.5t-107.5 -32.5h-60v56h60q48 0 64 17.5t16 66.5v564h-280v-504h-60v504h-280v-504h-60v620q0 75 32.5 107.5t107.5 32.5h140v-56h-140q-48 0 -64 -17.5t-16 -66.5v-60h280v60q0 75 32.5 107.5t107.5 32.5h140v-56h-140
q-48 0 -64 -17.5t-16 -66.5z" />
    <glyph glyph-name="f_j" unicode="&#xe09a;" horiz-adv-x="560" 
d="M140 620v-60h340v-620q0 -75 -32.5 -107.5t-107.5 -32.5h-60v56h60q48 0 64 17.5t16 66.5v564h-280v-504h-60v620q0 75 32.5 107.5t107.5 32.5h140v-56h-140q-48 0 -64 -17.5t-16 -66.5z" />
    <glyph glyph-name="lslash.sc" unicode="&#xf6f9;" horiz-adv-x="620" 
d="M210 235v-179h380v-56h-440v205l-120 -60v40l120 60v315h60v-285l180 90v-40z" />
    <glyph glyph-name="oe.sc" unicode="&#xf6fa;" horiz-adv-x="1000" 
d="M935 560v-56h-380v-196h370v-56h-370v-196h380v-56h-700q-83 0 -121.5 39t-38.5 121v240q0 82 38.5 121t121.5 39h700zM235 56h260v448h-260q-56 0 -78 -23.5t-22 -80.5v-240q0 -57 22 -80.5t78 -23.5z" />
    <glyph glyph-name="scaron.sc" unicode="&#xf6fd;" horiz-adv-x="620" 
d="M550 400v-20h-60v20q0 57 -22 80.5t-78 23.5h-160q-56 0 -78 -23.5t-22 -80.5q0 -31 17.5 -43t70.5 -25l12 -3l160 -40q13 -4 31.5 -8.5t24.5 -6.5q16 -4 42 -15q34 -14 45.5 -34.5t16.5 -64.5q0 -82 -39 -121t-121 -39h-160q-82 0 -121 39t-39 121v20h60v-20
q0 -57 22 -80.5t78 -23.5h160q56 0 78 23.5t22 80.5q0 31 -17.5 43t-70.5 25q-6 3 -12 3l-160 40q-15 4 -33.5 8.5t-22.5 5.5q-12 3 -43 16q-33 14 -45 35t-16 64q0 82 39 121t121 39h160q82 0 121 -39t39 -121zM449 780l-112 -140h-55l-111 140h51l83 -104h10l82 104h52z
" />
    <glyph glyph-name="zcaron.sc" unicode="&#xf6ff;" horiz-adv-x="610" 
d="M545 472l-420 -406v-10h420v-56h-480v87l420 407v10h-420v56h480v-88zM444 780l-112 -140h-55l-111 140h51l83 -104h10l82 104h52z" />
    <glyph glyph-name="a.sc" unicode="&#xf761;" horiz-adv-x="604" 
d="M255 560h94l225 -560h-64l-61 152h-293l-61 -152h-65zM297 504l-119 -296h248l-119 296h-10z" />
    <glyph glyph-name="b.sc" unicode="&#xf762;" horiz-adv-x="635" 
d="M488 286l-8 -1v-10q3 0 8.5 -1.5t19.5 -9t24.5 -18.5t19 -34t8.5 -52v-10q0 -150 -160 -150h-320v560h320q160 0 160 -150v-10q0 -54 -24 -81t-48 -33zM500 150v10q0 50 -22.5 71t-77.5 21h-260v-196h260q54 0 77 21.5t23 72.5zM400 504h-260v-196h260q55 0 77.5 21
t22.5 71v10q0 51 -23 72.5t-77 21.5z" />
    <glyph glyph-name="c.sc" unicode="&#xf763;" horiz-adv-x="625" 
d="M495 160v20h60v-20q0 -82 -38.5 -121t-121.5 -39h-160q-83 0 -121.5 39t-38.5 121v240q0 82 38.5 121t121.5 39h160q83 0 121.5 -39t38.5 -121v-20h-60v20q0 57 -22 80.5t-78 23.5h-160q-56 0 -78 -23.5t-22 -80.5v-240q0 -57 22 -80.5t78 -23.5h160q56 0 78 23.5
t22 80.5z" />
    <glyph glyph-name="d.sc" unicode="&#xf764;" horiz-adv-x="635" 
d="M80 560h320q82 0 121 -39t39 -121v-240q0 -82 -39 -121t-121 -39h-320v560zM500 160v240q0 57 -22 80.5t-78 23.5h-260v-448h260q56 0 78 23.5t22 80.5z" />
    <glyph glyph-name="e.sc" unicode="&#xf765;" horiz-adv-x="585" 
d="M520 560v-56h-380v-196h370v-56h-370v-196h380v-56h-440v560h440z" />
    <glyph glyph-name="f.sc" unicode="&#xf766;" horiz-adv-x="575" 
d="M140 252v-252h-60v560h440v-56h-380v-196h370v-56h-370z" />
    <glyph glyph-name="g.sc" unicode="&#xf767;" 
d="M555 400v-20h-60v20q0 57 -22 80.5t-78 23.5h-160q-56 0 -78 -23.5t-22 -80.5v-240q0 -57 22 -80.5t78 -23.5h160q56 0 78 23.5t22 80.5v92h-180v56h240v-148q0 -82 -38.5 -121t-121.5 -39h-160q-83 0 -121.5 39t-38.5 121v240q0 82 38.5 121t121.5 39h160
q83 0 121.5 -39t38.5 -121z" />
    <glyph glyph-name="h.sc" unicode="&#xf768;" horiz-adv-x="640" 
d="M500 308v252h60v-560h-60v252h-360v-252h-60v560h60v-252h360z" />
    <glyph glyph-name="i.sc" unicode="&#xf769;" horiz-adv-x="220" 
d="M140 0h-60v560h60v-560z" />
    <glyph glyph-name="j.sc" unicode="&#xf76a;" horiz-adv-x="620" 
d="M480 160v400h60v-400q0 -82 -39 -121t-121 -39h-160q-82 0 -121 39t-39 121v120h60v-120q0 -57 22 -80.5t78 -23.5h160q56 0 78 23.5t22 80.5z" />
    <glyph glyph-name="k.sc" unicode="&#xf76b;" horiz-adv-x="612" 
d="M507 560h75l-203 -280l203 -280h-75l-182 252h-185v-252h-60v560h60v-252h185z" />
    <glyph glyph-name="l.sc" unicode="&#xf76c;" horiz-adv-x="550" 
d="M80 560h60v-504h380v-56h-440v560z" />
    <glyph glyph-name="m.sc" unicode="&#xf76d;" horiz-adv-x="740" 
d="M375 196l180 364h105v-560h-60v504h-10l-180 -364h-80l-180 364h-10v-504h-60v560h105l180 -364h10z" />
    <glyph glyph-name="n.sc" unicode="&#xf76e;" horiz-adv-x="640" 
d="M500 56v504h60v-560h-105l-305 504h-10v-504h-60v560h105l305 -504h10z" />
    <glyph glyph-name="o.sc" unicode="&#xf76f;" 
d="M235 560h160q83 0 121.5 -39t38.5 -121v-240q0 -82 -38.5 -121t-121.5 -39h-160q-83 0 -121.5 39t-38.5 121v240q0 82 38.5 121t121.5 39zM495 160v240q0 57 -22 80.5t-78 23.5h-160q-56 0 -78 -23.5t-22 -80.5v-240q0 -57 22 -80.5t78 -23.5h160q56 0 78 23.5t22 80.5z
" />
    <glyph glyph-name="p.sc" unicode="&#xf770;" horiz-adv-x="620" 
d="M80 560h320q82 0 121 -39t39 -121v-40q0 -82 -39 -121t-121 -39h-260v-200h-60v560zM500 360v40q0 57 -22 80.5t-78 23.5h-260v-248h260q56 0 78 23.5t22 80.5z" />
    <glyph glyph-name="q.sc" unicode="&#xf771;" 
d="M235 560h160q83 0 121.5 -39t38.5 -121v-240q0 -82 -38.5 -121t-121.5 -39h-50v-160h-60v160h-50q-83 0 -121.5 39t-38.5 121v240q0 82 38.5 121t121.5 39zM495 160v240q0 57 -22 80.5t-78 23.5h-160q-56 0 -78 -23.5t-22 -80.5v-240q0 -57 22 -80.5t78 -23.5h160
q56 0 78 23.5t22 80.5z" />
    <glyph glyph-name="r.sc" unicode="&#xf772;" 
d="M560 400v-40q0 -82 -39 -121t-121 -39h-1l145 -200h-74l-145 200h-185v-200h-60v560h320q82 0 121 -39t39 -121zM140 504v-248h260q56 0 78 23.5t22 80.5v40q0 57 -22 80.5t-78 23.5h-260z" />
    <glyph glyph-name="s.sc" unicode="&#xf773;" horiz-adv-x="620" 
d="M550 400v-20h-60v20q0 57 -22 80.5t-78 23.5h-160q-56 0 -78 -23.5t-22 -80.5q0 -31 17.5 -43t70.5 -25l12 -3l160 -40q13 -4 31.5 -8.5t24.5 -6.5q16 -4 42 -15q34 -14 45.5 -34.5t16.5 -64.5q0 -82 -39 -121t-121 -39h-160q-82 0 -121 39t-39 121v20h60v-20
q0 -57 22 -80.5t78 -23.5h160q56 0 78 23.5t22 80.5q0 31 -17.5 43t-70.5 25q-6 3 -12 3l-160 40q-15 4 -33.5 8.5t-22.5 5.5q-12 3 -43 16q-33 14 -45 35t-16 64q0 82 39 121t121 39h160q82 0 121 -39t39 -121z" />
    <glyph glyph-name="t.sc" unicode="&#xf774;" horiz-adv-x="540" 
d="M30 560h480v-56h-210v-504h-60v504h-210v56z" />
    <glyph glyph-name="u.sc" unicode="&#xf775;" horiz-adv-x="640" 
d="M500 160v400h60v-400q0 -82 -39 -121t-121 -39h-160q-82 0 -121 39t-39 121v400h60v-400q0 -57 22 -80.5t78 -23.5h160q56 0 78 23.5t22 80.5z" />
    <glyph glyph-name="v.sc" unicode="&#xf776;" horiz-adv-x="604" 
d="M95 560l202 -504h10l203 504h64l-225 -560h-94l-225 560h65z" />
    <glyph glyph-name="w.sc" unicode="&#xf777;" horiz-adv-x="899" 
d="M652 56l145 504h62l-161 -560h-98l-145 504h-10l-145 -504h-99l-161 560h62l145 -504h10l145 504h95l145 -504h10z" />
    <glyph glyph-name="x.sc" unicode="&#xf778;" horiz-adv-x="583" 
d="M553 560l-203 -280l203 -280h-74l-182 252h-10l-183 -252h-74l203 280l-203 280h74l183 -252h10l182 252h74z" />
    <glyph glyph-name="y.sc" unicode="&#xf779;" horiz-adv-x="585" 
d="M297 246l188 314h70l-233 -389v-171h-60v171l-232 389h70l187 -314h10z" />
    <glyph glyph-name="z.sc" unicode="&#xf77a;" horiz-adv-x="610" 
d="M545 472l-420 -406v-10h420v-56h-480v87l420 407v10h-420v56h480v-88z" />
    <glyph glyph-name="agrave.sc" unicode="&#xf7e0;" horiz-adv-x="604" 
d="M255 560h94l225 -560h-64l-61 152h-293l-61 -152h-65zM297 504l-119 -296h248l-119 296h-10zM249 780l93 -140h-43l-117 140h67z" />
    <glyph glyph-name="aacute.sc" unicode="&#xf7e1;" horiz-adv-x="604" 
d="M30 0l225 560h94l225 -560h-64l-61 152h-293l-61 -152h-65zM178 208h248l-119 296h-10zM305 640h-43l93 140h67z" />
    <glyph glyph-name="acircumflex.sc" unicode="&#xf7e2;" horiz-adv-x="604" 
d="M255 560h94l225 -560h-64l-61 152h-293l-61 -152h-65zM297 504l-119 -296h248l-119 296h-10zM307 744h-10l-82 -104h-51l111 140h55l111 -140h-51z" />
    <glyph glyph-name="atilde.sc" unicode="&#xf7e3;" horiz-adv-x="604" 
d="M255 560h94l225 -560h-64l-61 152h-293l-61 -152h-65zM297 504l-119 -296h248l-119 296h-10zM222 658v-18h-40v18q0 45 17.5 62.5t62.5 17.5h80q26 0 33 8t7 36v18h40v-18q0 -45 -17.5 -62.5t-62.5 -17.5h-80q-26 0 -33 -8t-7 -36z" />
    <glyph glyph-name="adieresis.sc" unicode="&#xf7e4;" horiz-adv-x="604" 
d="M260 642q-16 -18 -38.5 -10t-28 28t10.5 38t38.5 10t28 -28t-10.5 -38zM400 642q-16 -18 -38.5 -10t-28 28t10.5 38t38.5 10t28 -28t-10.5 -38zM255 560h94l225 -560h-64l-61 152h-293l-61 -152h-65zM297 504l-119 -296h248l-119 296h-10z" />
    <glyph glyph-name="aring.sc" unicode="&#xf7e5;" horiz-adv-x="604" 
d="M362 655q-25 -25 -60 -25t-60 25t-25 60t25 60t60 25t60 -25t25 -60t-25 -60zM334 747q-13 13 -32 13t-32 -13t-13 -32t13 -32t32 -13t32 13t13 32t-13 32zM255 560h94l225 -560h-64l-61 152h-293l-61 -152h-65zM297 504l-119 -296h248l-119 296h-10z" />
    <glyph glyph-name="ae.sc" unicode="&#xf7e6;" horiz-adv-x="912" 
d="M847 560v-56h-380v-196h370v-56h-370v-196h380v-56h-440v152h-218l-89 -152h-70l331 560h486zM222 208h185v296h-10z" />
    <glyph glyph-name="ccedilla.sc" unicode="&#xf7e7;" horiz-adv-x="625" 
d="M555 400v-20h-60v20q0 57 -22 80.5t-78 23.5h-160q-56 0 -78 -23.5t-22 -80.5v-240q0 -57 22 -80.5t78 -23.5h160q56 0 78 23.5t22 80.5v20h60v-20q0 -82 -38.5 -121t-121.5 -39h-100v-50h60q45 0 62.5 -17.5t17.5 -62.5v-10q0 -45 -17.5 -62.5t-62.5 -17.5h-160v36h160
q26 0 33 8t7 36v10q0 28 -7 36t-33 8h-100v86h-20q-83 0 -121.5 39t-38.5 121v240q0 82 38.5 121t121.5 39h160q83 0 121.5 -39t38.5 -121z" />
    <glyph glyph-name="egrave.sc" unicode="&#xf7e8;" horiz-adv-x="585" 
d="M247 780l93 -140h-43l-117 140h67zM520 560v-56h-380v-196h370v-56h-370v-196h380v-56h-440v560h440z" />
    <glyph glyph-name="eacute.sc" unicode="&#xf7e9;" horiz-adv-x="585" 
d="M353 780h67l-117 -140h-43zM520 560v-56h-380v-196h370v-56h-370v-196h380v-56h-440v560h440z" />
    <glyph glyph-name="ecircumflex.sc" unicode="&#xf7ea;" horiz-adv-x="585" 
d="M520 560v-56h-380v-196h370v-56h-370v-196h380v-56h-440v560h440zM305 744h-10l-83 -104h-51l111 140h55l112 -140h-52z" />
    <glyph glyph-name="edieresis.sc" unicode="&#xf7eb;" horiz-adv-x="585" 
d="M520 560v-56h-380v-196h370v-56h-370v-196h380v-56h-440v560h440zM258 642q-16 -18 -38.5 -10t-28 28t10.5 38t38.5 10t28 -28t-10.5 -38zM398 642q-16 -18 -38.5 -10t-28 28t10.5 38t38.5 10t28 -28t-10.5 -38z" />
    <glyph glyph-name="igrave.sc" unicode="&#xf7ec;" horiz-adv-x="220" 
d="M140 560v-560h-60v560h60zM107 640l-117 140h67l93 -140h-43z" />
    <glyph glyph-name="iacute.sc" unicode="&#xf7ed;" horiz-adv-x="220" 
d="M140 0h-60v560h60v-560zM163 780h67l-117 -140h-43z" />
    <glyph glyph-name="icircumflex.sc" unicode="&#xf7ee;" horiz-adv-x="220" 
d="M140 0h-60v560h60v-560zM82 780h55l111 -140h-51l-82 104h-10l-83 -104h-51z" />
    <glyph glyph-name="idieresis.sc" unicode="&#xf7ef;" horiz-adv-x="220" 
d="M140 0h-60v560h60v-560zM12 698q16 18 38.5 10t28 -28t-10.5 -38t-38.5 -10t-28 28t10.5 38zM152 698q16 18 38.5 10t28 -28t-10.5 -38t-38.5 -10t-28 28t10.5 38z" />
    <glyph glyph-name="eth.sc" unicode="&#xf7f0;" horiz-adv-x="675" 
d="M120 560h320q82 0 121 -39t39 -121v-240q0 -82 -39 -121t-121 -39h-320v252h-80v56h80v252zM540 160v240q0 57 -22 80.5t-78 23.5h-260v-196h180v-56h-180v-196h260q56 0 78 23.5t22 80.5z" />
    <glyph glyph-name="ntilde.sc" unicode="&#xf7f1;" horiz-adv-x="640" 
d="M500 56v504h60v-560h-105l-305 504h-10v-504h-60v560h105l305 -504h10zM240 658v-18h-40v18q0 45 17.5 62.5t62.5 17.5h80q26 0 33 8t7 36v18h40v-18q0 -45 -17.5 -62.5t-62.5 -17.5h-80q-26 0 -33 -8t-7 -36z" />
    <glyph glyph-name="ograve.sc" unicode="&#xf7f2;" 
d="M235 560h160q83 0 121.5 -39t38.5 -121v-240q0 -82 -38.5 -121t-121.5 -39h-160q-83 0 -121.5 39t-38.5 121v240q0 82 38.5 121t121.5 39zM495 160v240q0 57 -22 80.5t-78 23.5h-160q-56 0 -78 -23.5t-22 -80.5v-240q0 -57 22 -80.5t78 -23.5h160q56 0 78 23.5t22 80.5z
M262 780l93 -140h-43l-117 140h67z" />
    <glyph glyph-name="oacute.sc" unicode="&#xf7f3;" 
d="M235 560h160q83 0 121.5 -39t38.5 -121v-240q0 -82 -38.5 -121t-121.5 -39h-160q-83 0 -121.5 39t-38.5 121v240q0 82 38.5 121t121.5 39zM135 400v-240q0 -57 22 -80.5t78 -23.5h160q56 0 78 23.5t22 80.5v240q0 57 -22 80.5t-78 23.5h-160q-56 0 -78 -23.5t-22 -80.5z
M318 640h-43l93 140h67z" />
    <glyph glyph-name="ocircumflex.sc" unicode="&#xf7f4;" 
d="M235 560h160q83 0 121.5 -39t38.5 -121v-240q0 -82 -38.5 -121t-121.5 -39h-160q-83 0 -121.5 39t-38.5 121v240q0 82 38.5 121t121.5 39zM495 160v240q0 57 -22 80.5t-78 23.5h-160q-56 0 -78 -23.5t-22 -80.5v-240q0 -57 22 -80.5t78 -23.5h160q56 0 78 23.5t22 80.5z
M320 744h-10l-83 -104h-51l111 140h55l112 -140h-52z" />
    <glyph glyph-name="otilde.sc" unicode="&#xf7f5;" 
d="M235 658v-18h-40v18q0 45 17.5 62.5t62.5 17.5h80q26 0 33 8t7 36v18h40v-18q0 -45 -17.5 -62.5t-62.5 -17.5h-80q-26 0 -33 -8t-7 -36zM235 560h160q83 0 121.5 -39t38.5 -121v-240q0 -82 -38.5 -121t-121.5 -39h-160q-83 0 -121.5 39t-38.5 121v240q0 82 38.5 121
t121.5 39zM495 160v240q0 57 -22 80.5t-78 23.5h-160q-56 0 -78 -23.5t-22 -80.5v-240q0 -57 22 -80.5t78 -23.5h160q56 0 78 23.5t22 80.5z" />
    <glyph glyph-name="odieresis.sc" unicode="&#xf7f6;" 
d="M273 642q-11 -12 -28 -12t-29 12q-11 12 -11 28t11 28q12 12 29 12t28 -12q12 -12 12 -28t-12 -28zM413 642q-11 -12 -28 -12t-29 12q-11 12 -11 28t11 28q12 12 29 12t28 -12q12 -12 12 -28t-12 -28zM235 560h160q83 0 121.5 -39t38.5 -121v-240q0 -82 -38.5 -121
t-121.5 -39h-160q-83 0 -121.5 39t-38.5 121v240q0 82 38.5 121t121.5 39zM495 160v240q0 57 -22 80.5t-78 23.5h-160q-56 0 -78 -23.5t-22 -80.5v-240q0 -57 22 -80.5t78 -23.5h160q56 0 78 23.5t22 80.5z" />
    <glyph glyph-name="oslash.sc" unicode="&#xf7f8;" 
d="M235 560h160q83 0 121.5 -39t38.5 -121v-240q0 -82 -38.5 -121t-121.5 -39h-160q-83 0 -121.5 39t-38.5 121v240q0 82 38.5 121t121.5 39zM395 504h-160q-56 0 -78 -23.5t-22 -80.5v-190l360 180v10q0 57 -22 80.5t-78 23.5zM235 56h160q56 0 78 23.5t22 80.5v190
l-360 -180v-10q0 -57 22 -80.5t78 -23.5z" />
    <glyph glyph-name="ugrave.sc" unicode="&#xf7f9;" horiz-adv-x="640" 
d="M500 160v400h60v-400q0 -82 -39 -121t-121 -39h-160q-82 0 -121 39t-39 121v400h60v-400q0 -57 22 -80.5t78 -23.5h160q56 0 78 23.5t22 80.5zM267 780l93 -140h-43l-117 140h67z" />
    <glyph glyph-name="uacute.sc" unicode="&#xf7fa;" horiz-adv-x="640" 
d="M80 560h60v-400q0 -57 22 -80.5t78 -23.5h160q56 0 78 23.5t22 80.5v400h60v-400q0 -82 -39 -121t-121 -39h-160q-82 0 -121 39t-39 121v400zM323 640h-43l93 140h67z" />
    <glyph glyph-name="ucircumflex.sc" unicode="&#xf7fb;" horiz-adv-x="640" 
d="M500 160v400h60v-400q0 -82 -39 -121t-121 -39h-160q-82 0 -121 39t-39 121v400h60v-400q0 -57 22 -80.5t78 -23.5h160q56 0 78 23.5t22 80.5zM325 744h-10l-83 -104h-51l111 140h55l112 -140h-52z" />
    <glyph glyph-name="udieresis.sc" unicode="&#xf7fc;" horiz-adv-x="640" 
d="M500 160v400h60v-400q0 -82 -39 -121t-121 -39h-160q-82 0 -121 39t-39 121v400h60v-400q0 -57 22 -80.5t78 -23.5h160q56 0 78 23.5t22 80.5zM278 642q-16 -18 -38.5 -10t-28 28t10.5 38t38.5 10t28 -28t-10.5 -38zM418 642q-16 -18 -38.5 -10t-28 28t10.5 38t38.5 10
t28 -28t-10.5 -38z" />
    <glyph glyph-name="yacute.sc" unicode="&#xf7fd;" horiz-adv-x="585" 
d="M346 780h66l-116 -140h-44zM297 246l188 314h70l-233 -389v-171h-60v171l-232 389h70l187 -314h10z" />
    <glyph glyph-name="thorn.sc" unicode="&#xf7fe;" horiz-adv-x="620" 
d="M140 460h260q82 0 121 -39t39 -121v-40q0 -82 -39 -121t-121 -39h-260v-100h-60v560h60v-100zM500 260v40q0 57 -22 80.5t-78 23.5h-260v-248h260q56 0 78 23.5t22 80.5z" />
    <glyph glyph-name="ydieresis.sc" unicode="&#xf7ff;" horiz-adv-x="585" 
d="M297 246l188 314h70l-233 -389v-171h-60v171l-232 389h70l187 -314h10zM250 642q-16 -18 -38.5 -10t-28 28t10.5 38t38.5 10t28 -28t-10.5 -38zM390 642q-16 -18 -38.5 -10t-28 28t10.5 38t38.5 10t28 -28t-10.5 -38z" />
    <glyph glyph-name="Lslash.salt" unicode="&#xf800;" horiz-adv-x="700" 
d="M310 56h360v-56h-360q-82 0 -121 39t-39 121v125l-120 -60v40l120 60v395h60v-365l240 120v-40l-240 -120v-155q0 -57 22 -80.5t78 -23.5z" />
    <glyph glyph-name="four.salt" unicode="&#xf801;" horiz-adv-x="665" 
d="M525 296v424h60v-720h-60v240h-300q-83 0 -121.5 39t-38.5 121v320h60v-320q0 -57 22 -80.5t78 -23.5h300z" />
    <glyph glyph-name="seven.salt" unicode="&#xf802;" horiz-adv-x="590" 
d="M350 664h-320v56h320q82 0 121 -39t39 -121v-560h-60v560q0 57 -22 80.5t-78 23.5z" />
    <glyph glyph-name="A.salt" unicode="&#xf803;" horiz-adv-x="720" 
d="M240 720h240q82 0 121 -39t39 -121v-560h-60v272h-440v-272h-60v560q0 82 39 121t121 39zM140 560v-232h440v232q0 57 -22 80.5t-78 23.5h-240q-56 0 -78 -23.5t-22 -80.5z" />
    <glyph glyph-name="E.salt" unicode="&#xf804;" horiz-adv-x="660" 
d="M595 664h-360q-56 0 -78 -23.5t-22 -80.5v-172h450v-56h-450v-172q0 -57 22 -80.5t78 -23.5h360v-56h-360q-83 0 -121.5 39t-38.5 121v400q0 82 38.5 121t121.5 39h360v-56z" />
    <glyph glyph-name="F.salt" unicode="&#xf805;" horiz-adv-x="655" 
d="M140 332v-332h-60v560q0 82 39 121t121 39h360v-56h-360q-56 0 -78 -23.5t-22 -80.5v-172h450v-56h-450z" />
    <glyph glyph-name="J.salt" unicode="&#xf806;" 
d="M30 56h360q56 0 78 23.5t22 80.5v560h60v-560q0 -82 -39 -121t-121 -39h-360v56z" />
    <glyph glyph-name="K.salt" unicode="&#xf807;" horiz-adv-x="720" 
d="M640 720v-230q0 -59 -24 -88.5t-48 -35.5l-8 -1v-10q3 0 8.5 -1.5t19.5 -9.5t24.5 -20t19 -37t8.5 -57v-230h-60v230q0 57 -22 79.5t-78 22.5h-340v-332h-60v720h60v-332h340q56 0 78 22.5t22 79.5v230h60z" />
    <glyph glyph-name="L.salt" unicode="&#xf808;" 
d="M240 56h360v-56h-360q-82 0 -121 39t-39 121v560h60v-560q0 -57 22 -80.5t78 -23.5z" />
    <glyph glyph-name="M.salt" unicode="&#xf809;" horiz-adv-x="1060" 
d="M660 720h160q82 0 121 -39t39 -121v-560h-60v560q0 57 -22 80.5t-78 23.5h-160q-56 0 -78 -23.5t-22 -80.5v-560h-60v560q0 57 -22 80.5t-78 23.5h-160q-56 0 -78 -23.5t-22 -80.5v-560h-60v560q0 82 39 121t121 39h160q59 0 88.5 -24t35.5 -48l1 -8h10q0 3 1.5 8.5
t9.5 19.5t20 24.5t37 19t57 8.5z" />
    <glyph glyph-name="N.salt" unicode="&#xf810;" horiz-adv-x="720" 
d="M640 0h-60v560q0 57 -22 80.5t-78 23.5h-240q-56 0 -78 -23.5t-22 -80.5v-560h-60v560q0 82 39 121t121 39h240q82 0 121 -39t39 -121v-560z" />
    <glyph glyph-name="R.salt" unicode="&#xf811;" horiz-adv-x="720" 
d="M80 720h400q82 0 121 -39t39 -121v-122q0 -59 -24 -88.5t-48 -35.5l-8 -1v-10q3 0 8.5 -1.5t19.5 -9.5t24.5 -20t19 -37t8.5 -57v-178h-60v178q0 57 -22 79.5t-78 22.5h-340v-280h-60v720zM580 438v122q0 57 -22 80.5t-78 23.5h-340v-328h340q56 0 78 22.5t22 79.5z" />
    <glyph glyph-name="W.salt" unicode="&#xf812;" horiz-adv-x="1060" 
d="M820 0h-160q-59 0 -88.5 24t-35.5 48l-1 8h-10q0 -3 -1.5 -8.5t-9.5 -19.5t-20 -24.5t-37 -19t-57 -8.5h-160q-82 0 -121 39t-39 121v560h60v-560q0 -57 22 -80.5t78 -23.5h160q56 0 78 23.5t22 80.5v560h60v-560q0 -57 22 -80.5t78 -23.5h160q56 0 78 23.5t22 80.5v560
h60v-560q0 -82 -39 -121t-121 -39z" />
    <glyph glyph-name="X.salt" unicode="&#xf813;" horiz-adv-x="720" 
d="M640 720v-230q0 -59 -24 -88.5t-48 -35.5l-8 -1v-10q3 0 8.5 -1.5t19.5 -9.5t24.5 -20t19 -37t8.5 -57v-230h-60v230q0 57 -22 79.5t-78 22.5h-240q-56 0 -78 -22.5t-22 -79.5v-230h-60v230q0 59 24 88.5t48 35.5l8 1v10q-3 0 -8.5 1.5t-19.5 9.5t-24.5 20t-19 37
t-8.5 57v230h60v-230q0 -57 22 -79.5t78 -22.5h240q56 0 78 22.5t22 79.5v230h60z" />
    <glyph glyph-name="Y.salt" unicode="&#xf814;" horiz-adv-x="690" 
d="M565 440v280h60v-280q0 -82 -38.5 -121t-121.5 -39h-90v-280h-60v280h-90q-83 0 -121.5 39t-38.5 121v280h60v-280q0 -57 22 -80.5t78 -23.5h240q56 0 78 23.5t22 80.5z" />
    <glyph glyph-name="g.salt" unicode="&#xf815;" horiz-adv-x="635" 
d="M235 560h160q83 0 121.5 -39t38.5 -121v-460q0 -75 -32.5 -107.5t-107.5 -32.5h-180v56h180q48 0 64 17.5t16 66.5v60h-260q-83 0 -121.5 39t-38.5 121v240q0 82 38.5 121t121.5 39zM235 56h260v344q0 57 -22 80.5t-78 23.5h-160q-56 0 -78 -23.5t-22 -80.5v-240
q0 -57 22 -80.5t78 -23.5z" />
    <glyph glyph-name="k.salt" unicode="&#xf816;" horiz-adv-x="640" 
d="M560 560v-150q0 -59 -24 -88.5t-48 -35.5l-8 -1v-10q3 0 8.5 -1.5t19.5 -9.5t24.5 -20t19 -37t8.5 -57v-150h-60v150q0 57 -22 79.5t-78 22.5h-260v-252h-60v760h60v-452h260q56 0 78 22.5t22 79.5v150h60z" />
    <glyph glyph-name="w.salt" unicode="&#xf817;" horiz-adv-x="940" 
d="M700 0h-100q-59 0 -88.5 24t-35.5 48l-1 8h-10q0 -3 -1.5 -8.5t-9.5 -19.5t-20 -24.5t-37 -19t-57 -8.5h-100q-82 0 -121 39t-39 121v400h60v-400q0 -57 22 -80.5t78 -23.5h100q56 0 78 23.5t22 80.5v400h60v-400q0 -57 22 -80.5t78 -23.5h100q56 0 78 23.5t22 80.5v400
h60v-400q0 -82 -39 -121t-121 -39z" />
    <glyph glyph-name="x.salt" unicode="&#xf818;" horiz-adv-x="640" 
d="M560 560v-150q0 -59 -24 -88.5t-48 -35.5l-8 -1v-10q3 0 8.5 -1.5t19.5 -9.5t24.5 -20t19 -37t8.5 -57v-150h-60v150q0 57 -22 79.5t-78 22.5h-160q-56 0 -78 -22.5t-22 -79.5v-150h-60v150q0 59 24 88.5t48 35.5l8 1v10q-3 0 -8.5 1.5t-19.5 9.5t-24.5 20t-19 37
t-8.5 57v150h60v-150q0 -57 22 -79.5t78 -22.5h160q56 0 78 22.5t22 79.5v150h60z" />
    <glyph glyph-name="y.salt" unicode="&#xf819;" horiz-adv-x="640" 
d="M500 56v504h60v-620q0 -75 -32.5 -107.5t-107.5 -32.5h-180v56h180q48 0 64 17.5t16 66.5v60h-260q-82 0 -121 39t-39 121v400h60v-400q0 -57 22 -80.5t78 -23.5h260z" />
    <glyph glyph-name="OE.salt" unicode="&#xf820;" horiz-adv-x="1160" 
d="M1095 664h-360q-56 0 -78 -23.5t-22 -80.5v-172h450v-56h-450v-172q0 -57 22 -80.5t78 -23.5h360v-56h-360q-59 0 -89.5 24.5t-33.5 47.5l-2 8h-10q0 -3 -1.5 -8.5t-9.5 -19.5t-20 -24.5t-37 -19t-57 -8.5h-240q-83 0 -121.5 39t-38.5 121v400q0 82 38.5 121t121.5 39
h240q59 0 89.5 -24.5t33.5 -47.5l2 -8h10q0 3 1.5 8.5t9.5 19.5t20 24.5t37 19t57 8.5h360v-56zM575 160v400q0 57 -22 80.5t-78 23.5h-240q-56 0 -78 -23.5t-22 -80.5v-400q0 -57 22 -80.5t78 -23.5h240q56 0 78 23.5t22 80.5z" />
    <glyph glyph-name="trademark.salt" unicode="&#xf821;" horiz-adv-x="1010" 
d="M770 720h40q68 0 94 -26t26 -94v-240h-40v240q0 49 -16 66.5t-64 17.5h-40q-48 0 -64 -17.5t-16 -66.5v-240h-40v240q0 49 -16 66.5t-64 17.5h-40q-48 0 -64 -17.5t-16 -66.5v-240h-40v240q0 68 26 94t94 26h40q34 0 57 -10.5t30 -22t7 -21.5l1 -6h10q0 2 0.5 6.5
t5.5 14.5t14 18t28.5 14.5t46.5 6.5zM165 684h-135v36h310v-36h-135v-324h-40v324z" />
    <glyph glyph-name="Ydieresis.salt" unicode="&#xf822;" horiz-adv-x="690" 
d="M565 440v280h60v-280q0 -82 -38.5 -121t-121.5 -39h-90v-280h-60v280h-90q-83 0 -121.5 39t-38.5 121v280h60v-280q0 -57 22 -80.5t78 -23.5h240q56 0 78 23.5t22 80.5zM303 802q-11 -12 -28 -12t-29 12q-11 12 -11 28t11 28q12 12 29 12t28 -12q12 -12 12 -28t-12 -28z
M443 802q-11 -12 -28 -12t-29 12q-11 12 -11 28t11 28q12 12 29 12t28 -12q12 -12 12 -28t-12 -28z" />
    <glyph glyph-name="yen.salt" unicode="&#xf823;" horiz-adv-x="690" 
d="M565 440v280h60v-280q0 -82 -38.5 -121t-121.5 -39h-90v-104h130v-36h-130v-140h-60v140h-130v36h130v104h-90q-83 0 -121.5 39t-38.5 121v280h60v-280q0 -57 22 -80.5t78 -23.5h240q56 0 78 23.5t22 80.5z" />
    <glyph glyph-name="registered.salt" unicode="&#xf824;" horiz-adv-x="800" 
d="M167 593q97 97 233 97t233 -97t97 -233t-97 -233t-233 -97t-233 97t-97 233t97 233zM195 155q85 -85 205 -85t205 85t85 205t-85 205t-205 85t-205 -85t-85 -205t85 -205zM255 540h180q66 0 93 -23t27 -77v-32q0 -31 -14 -50.5t-31 -22.5l-15 -2v-10q2 0 6.5 -0.5
t14.5 -4.5t18 -11t14.5 -22.5t6.5 -36.5v-68h-40v68q0 36 -16.5 49t-63.5 13h-140v-130h-40v360zM515 408v32q0 36 -17 50t-63 14h-140v-158h140q47 0 63.5 13t16.5 49z" />
    <glyph glyph-name="onequarter.salt" unicode="&#xf825;" horiz-adv-x="740" 
d="M620 156v204h40v-360h-40v120h-140q-68 0 -94 26t-26 94v120h40v-120q0 -49 16 -66.5t64 -17.5h140zM160 360h-40v324h-80v36h120v-360zM68 0l360 720h44l-360 -720h-44z" />
    <glyph glyph-name="threequarters.salt" unicode="&#xf826;" horiz-adv-x="910" 
d="M370 460q0 -54 -27 -77t-93 -23h-60q-68 0 -94 26t-26 94h40q0 -49 16 -66.5t64 -17.5h60q46 0 63 14t17 50t-16.5 49t-63.5 13h-90v36h90q47 0 63.5 13t16.5 49t-17 50t-63 14h-60q-48 0 -64 -17.5t-16 -66.5h-40q0 68 26 94t94 26h60q66 0 93 -23t27 -77
q0 -31 -14 -50.5t-31 -22.5l-15 -2v-10q2 0 6.5 -0.5t14.5 -4.5t18 -11t14.5 -22.5t6.5 -36.5zM790 156v204h40v-360h-40v120h-140q-68 0 -94 26t-26 94v120h40v-120q0 -49 16 -66.5t64 -17.5h140zM238 0l360 720h44l-360 -720h-44z" />
    <glyph glyph-name="Agrave.salt" unicode="&#xf827;" horiz-adv-x="720" 
d="M240 720h240q82 0 121 -39t39 -121v-560h-60v272h-440v-272h-60v560q0 82 39 121t121 39zM140 328h440v232q0 57 -22 80.5t-78 23.5h-240q-56 0 -78 -23.5t-22 -80.5v-232zM307 940l93 -140h-43l-117 140h67z" />
    <glyph glyph-name="Aacute.salt" unicode="&#xf828;" horiz-adv-x="720" 
d="M240 720h240q82 0 121 -39t39 -121v-560h-60v272h-440v-272h-60v560q0 82 39 121t121 39zM140 560v-232h440v232q0 57 -22 80.5t-78 23.5h-240q-56 0 -78 -23.5t-22 -80.5zM363 800h-43l93 140h67z" />
    <glyph glyph-name="Acircumflex.salt" unicode="&#xf829;" horiz-adv-x="720" 
d="M240 720h240q82 0 121 -39t39 -121v-560h-60v272h-440v-272h-60v560q0 82 39 121t121 39zM140 328h440v232q0 57 -22 80.5t-78 23.5h-240q-56 0 -78 -23.5t-22 -80.5v-232zM365 904h-10l-83 -104h-51l111 140h55l112 -140h-52z" />
    <glyph glyph-name="Atilde.salt" unicode="&#xf830;" horiz-adv-x="720" 
d="M240 720h240q82 0 121 -39t39 -121v-560h-60v272h-440v-272h-60v560q0 82 39 121t121 39zM140 328h440v232q0 57 -22 80.5t-78 23.5h-240q-56 0 -78 -23.5t-22 -80.5v-232zM280 818v-18h-40v18q0 45 17.5 62.5t62.5 17.5h80q26 0 33 8t7 36v18h40v-18q0 -45 -17.5 -62.5
t-62.5 -17.5h-80q-26 0 -33 -8t-7 -36z" />
    <glyph glyph-name="Adieresis.salt" unicode="&#xf831;" horiz-adv-x="720" 
d="M240 720h240q82 0 121 -39t39 -121v-560h-60v272h-440v-272h-60v560q0 82 39 121t121 39zM140 328h440v232q0 57 -22 80.5t-78 23.5h-240q-56 0 -78 -23.5t-22 -80.5v-232zM318 802q-16 -18 -38.5 -10t-28 28t10.5 38t38.5 10t28 -28t-10.5 -38zM458 802
q-16 -18 -38.5 -10t-28 28t10.5 38t38.5 10t28 -28t-10.5 -38z" />
    <glyph glyph-name="Aring.salt" unicode="&#xf832;" horiz-adv-x="720" 
d="M240 720h240q82 0 121 -39t39 -121v-560h-60v272h-440v-272h-60v560q0 82 39 121t121 39zM140 328h440v232q0 57 -22 80.5t-78 23.5h-240q-56 0 -78 -23.5t-22 -80.5v-232zM420 815q-25 -25 -60 -25t-60 25t-25 60t25 60t60 25t60 -25t25 -60t-25 -60zM392 907
q-13 13 -32 13t-32 -13t-13 -32t13 -32t32 -13t32 13t13 32t-13 32z" />
    <glyph glyph-name="AE.salt" unicode="&#xf833;" horiz-adv-x="1165" 
d="M1100 664h-360q-56 0 -78 -23.5t-22 -80.5v-172h450v-56h-450v-172q0 -57 22 -80.5t78 -23.5h360v-56h-360q-82 0 -121 39t-39 121v112h-440v-272h-60v560q0 82 39 121t121 39h240q59 0 88.5 -24t35.5 -48l1 -8h10q0 3 1.5 8.5t9.5 19.5t20 24.5t37 19t57 8.5h360v-56z
M140 560v-232h440v232q0 57 -22 80.5t-78 23.5h-240q-56 0 -78 -23.5t-22 -80.5z" />
    <glyph glyph-name="Egrave.salt" unicode="&#xf834;" horiz-adv-x="660" 
d="M595 664h-360q-56 0 -78 -23.5t-22 -80.5v-172h450v-56h-450v-172q0 -57 22 -80.5t78 -23.5h360v-56h-360q-83 0 -121.5 39t-38.5 121v400q0 82 38.5 121t121.5 39h360v-56zM282 940l93 -140h-43l-117 140h67z" />
    <glyph glyph-name="Eacute.salt" unicode="&#xf835;" horiz-adv-x="660" 
d="M595 664h-360q-56 0 -78 -23.5t-22 -80.5v-172h450v-56h-450v-172q0 -57 22 -80.5t78 -23.5h360v-56h-360q-83 0 -121.5 39t-38.5 121v400q0 82 38.5 121t121.5 39h360v-56zM388 940h67l-117 -140h-43z" />
    <glyph glyph-name="Ecircumflex.salt" unicode="&#xf836;" horiz-adv-x="660" 
d="M595 664h-360q-56 0 -78 -23.5t-22 -80.5v-172h450v-56h-450v-172q0 -57 22 -80.5t78 -23.5h360v-56h-360q-83 0 -121.5 39t-38.5 121v400q0 82 38.5 121t121.5 39h360v-56zM340 904h-10l-83 -104h-51l111 140h55l112 -140h-52z" />
    <glyph glyph-name="Edieresis.salt" unicode="&#xf837;" horiz-adv-x="660" 
d="M595 664h-360q-56 0 -78 -23.5t-22 -80.5v-172h450v-56h-450v-172q0 -57 22 -80.5t78 -23.5h360v-56h-360q-83 0 -121.5 39t-38.5 121v400q0 82 38.5 121t121.5 39h360v-56zM293 802q-11 -12 -28 -12t-29 12q-11 12 -11 28t11 28q12 12 29 12t28 -12q12 -12 12 -28
t-12 -28zM433 802q-11 -12 -28 -12t-29 12q-11 12 -11 28t11 28q12 12 29 12t28 -12q12 -12 12 -28t-12 -28z" />
    <glyph glyph-name="Ntilde.salt" unicode="&#xf838;" horiz-adv-x="720" 
d="M240 720h240q82 0 121 -39t39 -121v-560h-60v560q0 57 -22 80.5t-78 23.5h-240q-56 0 -78 -23.5t-22 -80.5v-560h-60v560q0 82 39 121t121 39zM280 818v-18h-40v18q0 45 17.5 62.5t62.5 17.5h80q26 0 33 8t7 36v18h40v-18q0 -45 -17.5 -62.5t-62.5 -17.5h-80
q-26 0 -33 -8t-7 -36z" />
    <glyph glyph-name="Yacute.salt" unicode="&#xf839;" horiz-adv-x="690" 
d="M398 940h67l-117 -140h-43zM565 440v280h60v-280q0 -82 -38.5 -121t-121.5 -39h-90v-280h-60v280h-90q-83 0 -121.5 39t-38.5 121v280h60v-280q0 -57 22 -80.5t78 -23.5h240q56 0 78 23.5t22 80.5z" />
    <glyph glyph-name="yacute.salt" unicode="&#xf840;" horiz-adv-x="640" 
d="M500 56v504h60v-620q0 -75 -32.5 -107.5t-107.5 -32.5h-180v56h180q48 0 64 17.5t16 66.5v60h-260q-82 0 -121 39t-39 121v400h60v-400q0 -57 22 -80.5t78 -23.5h260zM373 780h67l-117 -140h-43z" />
    <glyph glyph-name="ydieresis.salt" unicode="&#xf841;" horiz-adv-x="640" 
d="M500 56v504h60v-620q0 -75 -32.5 -107.5t-107.5 -32.5h-180v56h180q48 0 64 17.5t16 66.5v60h-260q-82 0 -121 39t-39 121v400h60v-400q0 -57 22 -80.5t78 -23.5h260zM278 642q-16 -18 -38.5 -10t-28 28t10.5 38t38.5 10t28 -28t-10.5 -38zM418 642q-16 -18 -38.5 -10
t-28 28t10.5 38t38.5 10t28 -28t-10.5 -38z" />
    <glyph glyph-name="lslashsc.salt" unicode="&#xf842;" horiz-adv-x="620" 
d="M210 235v-75q0 -57 22 -80.5t78 -23.5h280v-56h-280q-82 0 -121 39t-39 121v45l-120 -60v40l120 60v315h60v-285l180 90v-40z" />
    <glyph glyph-name="oesc.salt" unicode="&#xf843;" horiz-adv-x="1000" 
d="M935 504h-280q-56 0 -78 -23.5t-22 -80.5v-92h370v-56h-370v-92q0 -57 22 -80.5t78 -23.5h280v-56h-280q-59 0 -89.5 24.5t-33.5 47.5l-2 8h-10q0 -3 -1.5 -8.5t-9.5 -19.5t-20 -24.5t-37 -19t-57 -8.5h-160q-83 0 -121.5 39t-38.5 121v240q0 82 38.5 121t121.5 39h160
q59 0 89.5 -24.5t33.5 -47.5l2 -8h10q0 3 1.5 8.5t9.5 19.5t20 24.5t37 19t57 8.5h280v-56zM495 160v240q0 57 -22 80.5t-78 23.5h-160q-56 0 -78 -23.5t-22 -80.5v-240q0 -57 22 -80.5t78 -23.5h160q56 0 78 23.5t22 80.5z" />
    <glyph glyph-name="asc.salt" unicode="&#xf844;" horiz-adv-x="640" 
d="M240 560h160q82 0 121 -39t39 -121v-400h-60v192h-360v-192h-60v400q0 82 39 121t121 39zM140 400v-152h360v152q0 57 -22 80.5t-78 23.5h-160q-56 0 -78 -23.5t-22 -80.5z" />
    <glyph glyph-name="esc.salt" unicode="&#xf845;" horiz-adv-x="580" 
d="M515 504h-280q-56 0 -78 -23.5t-22 -80.5v-92h370v-56h-370v-92q0 -57 22 -80.5t78 -23.5h280v-56h-280q-83 0 -121.5 39t-38.5 121v240q0 82 38.5 121t121.5 39h280v-56z" />
    <glyph glyph-name="fsc.salt" unicode="&#xf846;" horiz-adv-x="575" 
d="M140 252v-252h-60v400q0 82 39 121t121 39h280v-56h-280q-56 0 -78 -23.5t-22 -80.5v-92h370v-56h-370z" />
    <glyph glyph-name="jsc.salt" unicode="&#xf847;" horiz-adv-x="550" 
d="M410 160v400h60v-400q0 -82 -39 -121t-121 -39h-280v56h280q56 0 78 23.5t22 80.5z" />
    <glyph glyph-name="ksc.salt" unicode="&#xf848;" horiz-adv-x="640" 
d="M560 560v-150q0 -59 -24 -88.5t-48 -35.5l-8 -1v-10q3 0 8.5 -1.5t19.5 -9.5t24.5 -20t19 -37t8.5 -57v-150h-60v150q0 57 -22 79.5t-78 22.5h-260v-252h-60v560h60v-252h260q56 0 78 22.5t22 79.5v150h60z" />
    <glyph glyph-name="lsc.salt" unicode="&#xf849;" horiz-adv-x="550" 
d="M140 560v-400q0 -57 22 -80.5t78 -23.5h280v-56h-280q-82 0 -121 39t-39 121v400h60z" />
    <glyph glyph-name="msc.salt" unicode="&#xf850;" horiz-adv-x="940" 
d="M600 560h100q82 0 121 -39t39 -121v-400h-60v400q0 57 -22 80.5t-78 23.5h-100q-56 0 -78 -23.5t-22 -80.5v-400h-60v400q0 57 -22 80.5t-78 23.5h-100q-56 0 -78 -23.5t-22 -80.5v-400h-60v400q0 82 39 121t121 39h100q59 0 88.5 -24t35.5 -48l1 -8h10q0 3 1.5 8.5
t9.5 19.5t20 24.5t37 19t57 8.5z" />
    <glyph glyph-name="nsc.salt" unicode="&#xf851;" horiz-adv-x="640" 
d="M560 0h-60v400q0 57 -22 80.5t-78 23.5h-160q-56 0 -78 -23.5t-22 -80.5v-400h-60v400q0 82 39 121t121 39h160q82 0 121 -39t39 -121v-400z" />
    <glyph glyph-name="rsc.salt" unicode="&#xf852;" horiz-adv-x="640" 
d="M560 400v-42q0 -59 -24 -88.5t-48 -35.5l-8 -1v-10q3 0 8.5 -1.5t19.5 -9.5t24.5 -20t19 -37t8.5 -57v-98h-60v98q0 57 -22 79.5t-78 22.5h-260v-200h-60v560h320q82 0 121 -39t39 -121zM140 256h260q56 0 78 22.5t22 79.5v42q0 57 -22 80.5t-78 23.5h-260v-248z" />
    <glyph glyph-name="wsc.salt" unicode="&#xf853;" horiz-adv-x="940" 
d="M700 0h-100q-59 0 -88.5 24t-35.5 48l-1 8h-10q0 -3 -1.5 -8.5t-9.5 -19.5t-20 -24.5t-37 -19t-57 -8.5h-100q-82 0 -121 39t-39 121v400h60v-400q0 -57 22 -80.5t78 -23.5h100q56 0 78 23.5t22 80.5v400h60v-400q0 -57 22 -80.5t78 -23.5h100q56 0 78 23.5t22 80.5v400
h60v-400q0 -82 -39 -121t-121 -39z" />
    <glyph glyph-name="xsc.salt" unicode="&#xf854;" horiz-adv-x="640" 
d="M560 560v-150q0 -59 -24 -88.5t-48 -35.5l-8 -1v-10q3 0 8.5 -1.5t19.5 -9.5t24.5 -20t19 -37t8.5 -57v-150h-60v150q0 57 -22 79.5t-78 22.5h-160q-56 0 -78 -22.5t-22 -79.5v-150h-60v150q0 59 24 88.5t48 35.5l8 1v10q-3 0 -8.5 1.5t-19.5 9.5t-24.5 20t-19 37
t-8.5 57v150h60v-150q0 -57 22 -79.5t78 -22.5h160q56 0 78 22.5t22 79.5v150h60z" />
    <glyph glyph-name="ysc.salt" unicode="&#xf855;" horiz-adv-x="610" 
d="M485 360v200h60v-200q0 -82 -38.5 -121t-121.5 -39h-50v-200h-60v200h-50q-83 0 -121.5 39t-38.5 121v200h60v-200q0 -57 22 -80.5t78 -23.5h160q56 0 78 23.5t22 80.5z" />
    <glyph glyph-name="agravesc.salt" unicode="&#xf856;" horiz-adv-x="640" 
d="M240 560h160q82 0 121 -39t39 -121v-400h-60v192h-360v-192h-60v400q0 82 39 121t121 39zM140 248h360v152q0 57 -22 80.5t-78 23.5h-160q-56 0 -78 -23.5t-22 -80.5v-152zM267 780l93 -140h-43l-117 140h67z" />
    <glyph glyph-name="aacutesc.salt" unicode="&#xf857;" horiz-adv-x="640" 
d="M240 560h160q82 0 121 -39t39 -121v-400h-60v192h-360v-192h-60v400q0 82 39 121t121 39zM140 248h360v152q0 57 -22 80.5t-78 23.5h-160q-56 0 -78 -23.5t-22 -80.5v-152zM373 780h67l-117 -140h-43z" />
    <glyph glyph-name="acircumflexsc.salt" unicode="&#xf858;" horiz-adv-x="640" 
d="M240 560h160q82 0 121 -39t39 -121v-400h-60v192h-360v-192h-60v400q0 82 39 121t121 39zM140 248h360v152q0 57 -22 80.5t-78 23.5h-160q-56 0 -78 -23.5t-22 -80.5v-152zM325 744h-10l-83 -104h-51l111 140h55l112 -140h-52z" />
    <glyph glyph-name="atildesc.salt" unicode="&#xf859;" horiz-adv-x="640" 
d="M240 560h160q82 0 121 -39t39 -121v-400h-60v192h-360v-192h-60v400q0 82 39 121t121 39zM140 248h360v152q0 57 -22 80.5t-78 23.5h-160q-56 0 -78 -23.5t-22 -80.5v-152zM240 658v-18h-40v18q0 45 17.5 62.5t62.5 17.5h80q26 0 33 8t7 36v18h40v-18q0 -45 -17.5 -62.5
t-62.5 -17.5h-80q-26 0 -33 -8t-7 -36z" />
    <glyph glyph-name="adieresissc.salt" unicode="&#xf860;" horiz-adv-x="640" 
d="M240 560h160q82 0 121 -39t39 -121v-400h-60v192h-360v-192h-60v400q0 82 39 121t121 39zM140 248h360v152q0 57 -22 80.5t-78 23.5h-160q-56 0 -78 -23.5t-22 -80.5v-152zM278 642q-16 -18 -38.5 -10t-28 28t10.5 38t38.5 10t28 -28t-10.5 -38zM418 642
q-16 -18 -38.5 -10t-28 28t10.5 38t38.5 10t28 -28t-10.5 -38z" />
    <glyph glyph-name="aringsc.salt" unicode="&#xf861;" horiz-adv-x="640" 
d="M240 560h160q82 0 121 -39t39 -121v-400h-60v192h-360v-192h-60v400q0 82 39 121t121 39zM140 248h360v152q0 57 -22 80.5t-78 23.5h-160q-56 0 -78 -23.5t-22 -80.5v-152zM380 655q-25 -25 -60 -25t-60 25t-25 60t25 60t60 25t60 -25t25 -60t-25 -60zM352 747
q-13 13 -32 13t-32 -13t-13 -32t13 -32t32 -13t32 13t13 32t-13 32z" />
    <glyph glyph-name="aesc.salt" unicode="&#xf862;" horiz-adv-x="1005" 
d="M940 504h-280q-56 0 -78 -23.5t-22 -80.5v-92h370v-56h-370v-92q0 -57 22 -80.5t78 -23.5h280v-56h-280q-82 0 -121 39t-39 121v32h-360v-192h-60v400q0 82 39 121t121 39h160q59 0 88.5 -24t35.5 -48l1 -8h10q0 3 1.5 8.5t9.5 19.5t20 24.5t37 19t57 8.5h280v-56z
M140 248h360v152q0 57 -22 80.5t-78 23.5h-160q-56 0 -78 -23.5t-22 -80.5v-152z" />
    <glyph glyph-name="egravesc.salt" unicode="&#xf863;" horiz-adv-x="580" 
d="M515 504h-280q-56 0 -78 -23.5t-22 -80.5v-92h370v-56h-370v-92q0 -57 22 -80.5t78 -23.5h280v-56h-280q-83 0 -121.5 39t-38.5 121v240q0 82 38.5 121t121.5 39h280v-56zM242 780l93 -140h-43l-117 140h67z" />
    <glyph glyph-name="eacutesc.salt" unicode="&#xf864;" horiz-adv-x="580" 
d="M348 780h67l-117 -140h-43zM515 504h-280q-56 0 -78 -23.5t-22 -80.5v-92h370v-56h-370v-92q0 -57 22 -80.5t78 -23.5h280v-56h-280q-83 0 -121.5 39t-38.5 121v240q0 82 38.5 121t121.5 39h280v-56z" />
    <glyph glyph-name="ecircumflexsc.salt" unicode="&#xf865;" horiz-adv-x="580" 
d="M515 504h-280q-56 0 -78 -23.5t-22 -80.5v-92h370v-56h-370v-92q0 -57 22 -80.5t78 -23.5h280v-56h-280q-83 0 -121.5 39t-38.5 121v240q0 82 38.5 121t121.5 39h280v-56zM300 744h-10l-83 -104h-51l111 140h55l112 -140h-52z" />
    <glyph glyph-name="edieresissc.salt" unicode="&#xf866;" horiz-adv-x="580" 
d="M515 504h-280q-56 0 -78 -23.5t-22 -80.5v-92h370v-56h-370v-92q0 -57 22 -80.5t78 -23.5h280v-56h-280q-83 0 -121.5 39t-38.5 121v240q0 82 38.5 121t121.5 39h280v-56zM253 642q-11 -12 -28 -12t-29 12q-11 12 -11 28t11 28q12 12 29 12t28 -12q12 -12 12 -28t-12 -28
zM393 642q-11 -12 -28 -12t-29 12q-11 12 -11 28t11 28q12 12 29 12t28 -12q12 -12 12 -28t-12 -28z" />
    <glyph glyph-name="ntildesc.salt" unicode="&#xf867;" horiz-adv-x="640" 
d="M240 560h160q82 0 121 -39t39 -121v-400h-60v400q0 57 -22 80.5t-78 23.5h-160q-56 0 -78 -23.5t-22 -80.5v-400h-60v400q0 82 39 121t121 39zM240 658v-18h-40v18q0 45 17.5 62.5t62.5 17.5h80q26 0 33 8t7 36v18h40v-18q0 -45 -17.5 -62.5t-62.5 -17.5h-80
q-26 0 -33 -8t-7 -36z" />
    <glyph glyph-name="yacutesc.salt" unicode="&#xf868;" horiz-adv-x="610" 
d="M485 360v200h60v-200q0 -82 -38.5 -121t-121.5 -39h-50v-200h-60v200h-50q-83 0 -121.5 39t-38.5 121v200h60v-200q0 -57 22 -80.5t78 -23.5h160q56 0 78 23.5t22 80.5zM358 780h67l-117 -140h-43z" />
    <glyph glyph-name="ydieresissc.salt" unicode="&#xf869;" horiz-adv-x="610" 
d="M485 360v200h60v-200q0 -82 -38.5 -121t-121.5 -39h-50v-200h-60v200h-50q-83 0 -121.5 39t-38.5 121v200h60v-200q0 -57 22 -80.5t78 -23.5h160q56 0 78 23.5t22 80.5zM263 642q-11 -12 -28 -12t-29 12q-11 12 -11 28t11 28q12 12 29 12t28 -12q12 -12 12 -28t-12 -28z
M403 642q-11 -12 -28 -12t-29 12q-11 12 -11 28t11 28q12 12 29 12t28 -12q12 -12 12 -28t-12 -28z" />
    <glyph glyph-name="f_f" unicode="&#xfb00;" horiz-adv-x="755" 
d="M700 704h-140q-48 0 -64 -17.5t-16 -66.5v-60h200v-56h-200v-504h-60v504h-280v-504h-60v620q0 75 32.5 107.5t107.5 32.5h140v-56h-140q-48 0 -64 -17.5t-16 -66.5v-60h280v60q0 75 32.5 107.5t107.5 32.5h140v-56z" />
    <glyph glyph-name="fi" unicode="&#xfb01;" horiz-adv-x="560" 
d="M140 620v-60h340v-560h-60v504h-280v-504h-60v620q0 75 32.5 107.5t107.5 32.5h140v-56h-140q-48 0 -64 -17.5t-16 -66.5z" />
    <glyph glyph-name="fl" unicode="&#xfb02;" horiz-adv-x="660" 
d="M560 56h60v-56h-60q-75 0 -107.5 32.5t-32.5 107.5v564h-200q-48 0 -64 -17.5t-16 -66.5v-60h200v-56h-200v-504h-60v620q0 75 32.5 107.5t107.5 32.5h260v-620q0 -49 16 -66.5t64 -17.5z" />
    <glyph glyph-name="f_f_i" unicode="&#xfb03;" horiz-adv-x="900" 
d="M480 620v-60h340v-560h-60v504h-280v-504h-60v504h-280v-504h-60v620q0 75 32.5 107.5t107.5 32.5h140v-56h-140q-48 0 -64 -17.5t-16 -66.5v-60h280v60q0 75 32.5 107.5t107.5 32.5h140v-56h-140q-48 0 -64 -17.5t-16 -66.5z" />
    <glyph glyph-name="f_f_l" unicode="&#xfb04;" horiz-adv-x="1000" 
d="M900 56h60v-56h-60q-75 0 -107.5 32.5t-32.5 107.5v564h-200q-48 0 -64 -17.5t-16 -66.5v-60h200v-56h-200v-504h-60v504h-280v-504h-60v620q0 75 32.5 107.5t107.5 32.5h140v-56h-140q-48 0 -64 -17.5t-16 -66.5v-60h280v60q0 75 32.5 107.5t107.5 32.5h260v-620
q0 -49 16 -66.5t64 -17.5z" />
    <glyph glyph-name="arrow1" unicode="&#xfb05;" horiz-adv-x="400" 
d="M330 510v-300l-260 150z" />
    <glyph glyph-name="arrow2" unicode="&#xfb06;" horiz-adv-x="440" 
d="M370 273h-300l150 260z" />
    <glyph glyph-name="arrow3" unicode="&#xfb07;" horiz-adv-x="400" 
d="M330 360l-260 -150v300z" />
    <glyph glyph-name="arrow4" unicode="&#xfb08;" horiz-adv-x="440" 
d="M370 447l-150 -260l-150 260h300z" />
    <glyph glyph-name="arrow5" unicode="&#xfb09;" horiz-adv-x="680" 
d="M149 551q79 79 191 79t191 -79t79 -191t-79 -191t-191 -79t-191 79t-79 191t79 191zM167 360l260 -150v300z" />
    <glyph glyph-name="arrow6" unicode="&#xfb10;" horiz-adv-x="680" 
d="M149 551q79 79 191 79t191 -79t79 -191t-79 -191t-191 -79t-191 79t-79 191t79 191zM340 533l-150 -260h300z" />
    <glyph glyph-name="arrow7" unicode="&#xfb11;" horiz-adv-x="680" 
d="M149 551q79 79 191 79t191 -79t79 -191t-79 -191t-191 -79t-191 79t-79 191t79 191zM253 510v-300l260 150z" />
    <glyph glyph-name="arrow8" unicode="&#xfb12;" horiz-adv-x="680" 
d="M149 551q79 79 191 79t191 -79t79 -191t-79 -191t-191 -79t-191 79t-79 191t79 191zM190 447l150 -260l150 260h-300z" />
    <glyph glyph-name="NULL" horiz-adv-x="0" 
 />
    <glyph glyph-name="CR" horiz-adv-x="333" 
 />
    </font>
</defs>
</svg>
